<mxfile host="" modified="2021-01-27T19:48:04.940Z" agent="5.0 (X11; Linux x86_64) AppleWebKit/537.36 (KHTML, like Gecko) Chrome/84.0.4147.105 Safari/537.36" etag="VvKswGzOXGrJ3Ft_9fAs" version="13.7.9" type="embed" pages="2"><diagram id="8PupADGtw2umZL63_4jl" name="Страница 2"><mxGraphModel dx="222" dy="409" grid="0" gridSize="10" guides="1" tooltips="1" connect="1" arrows="1" fold="1" page="1" pageScale="1" pageWidth="827" pageHeight="1169" math="0" shadow="0"><root><mxCell id="OkBOiD5OcaHg_WbjaFcI-0"/><mxCell id="OkBOiD5OcaHg_WbjaFcI-1" parent="OkBOiD5OcaHg_WbjaFcI-0"/><mxCell id="pyIBk68P-THsy5OXbhP9-0" value="&lt;p style=&quot;margin: 0px ; margin-top: 4px ; text-align: center ; text-decoration: underline&quot;&gt;&lt;b&gt;Фильм&lt;/b&gt;&lt;/p&gt;&lt;p style=&quot;margin: 0px ; margin-top: 4px ; text-align: center ; text-decoration: underline&quot;&gt;&lt;b&gt;&lt;br&gt;&lt;/b&gt;&lt;/p&gt;" style="verticalAlign=top;align=left;overflow=fill;fontSize=12;fontFamily=Helvetica;html=1;strokeColor=#003366;shadow=1;fillColor=#D4E1F5;fontColor=#003366" parent="OkBOiD5OcaHg_WbjaFcI-1" vertex="1"><mxGeometry x="102" y="185" width="110" height="28.36" as="geometry"/></mxCell><mxCell id="pyIBk68P-THsy5OXbhP9-1" value="" style="shape=image;verticalLabelPosition=bottom;labelBackgroundColor=#ffffff;verticalAlign=top;aspect=fixed;imageAspect=0;image=data:image/png,iVBORw0KGgoAAAANSUhEUgAAAggAAAEUCAYAAABOAM4eAAAgAElEQVR4Xux9B3gUR9L2O7urXWmDMkogIQkJSUSJnEQOBgM2GIMxNs7Y/u4c7mzf77P9ncP5u7N9tnHOGAeMTbDIOeecwQgsQCiAck4b53+qZ2Y1Wq2QQCCBb+Z59Eja7emuru6ueru6uoorKi3jARVUADhYwMMBnuMBXgW7g0NlZSVUKg4GvRc4jkrRDw8OPHuDh5r9ps+kh/5jP+JHrD7Z986Cbv9wV5Zqo3YdQou8DeBscEADB7RXru6K3zrEb4U+CVQL7Vzvh1jAuMTxjMfUHs/zsFgsUGu8oFarGQlUBpzw/bU/1IfGH47nQD8WjQZlDh5FVjvgUIPjaT4Qd+3sbyNvhp9eBY6nsXaIA0v9ICpr26L/VTzrAc0iODjqj5rVBdjg4OwCUbwKVhuPmpoaeHio4anTsXo4jngglmHzqu4j1CyOEk1RkZ9N41VDc1CarQ6oeR4cZwUPOxzwqtO3xrkpL0FtUZ+FVSX8LfXnWsZV6nn9dyXqpTnrEMfDbrfBYbdDo9GCU3FQUd8A2KVFeXUdkpWubbGhKoqLSxAREQ6e42AFUGYByq3EVbA5oOV4cA6erQU/tQreWg04jhNligPg2UwSeMdJfRenjlOuSLwQZQ+bWwJtZosVFZWV0OsN0Gq1rO7at6UZ5Dq3iD9COXnNTWdTfZkhSEmq1SHKQqsoZrT1+tVgO+6mC5MPcr4I0ripM6vxEWyAGrEBm9UGu80GnZdnXdFfd6iazromlnQ4HCgvL4fNYoOHpx5V4FBos6PGxkEFNeu/Gna2jrU8D38dD63KPVGCfhK45uAE/tEaYTqN8dfOpp7DwaGioorJZ71e3wilJENI8qlRozIwmaeGVRx7FfvOg7eAgx1mlSeEtSofNUkBiHJO/FeuS69EgIPpFlpXjTGUZ30X5jvJJUmGEy2S/BVpKCotZ2QwFjHhLCovepkXXuScCktSoFS5sCDsTEELi0DqrNQhuepgpRslXFqerlNdmtJSxwQBTEqFKSgXIdIYe2q/d2mHcZaEUlOXWtNbkpQ/U6ti/exvNicFAUmAgU3aqwBUAmhz97gIVjb5XR5x5Al2ETdpNFVsLCU+iOUdDpHF0oQWFhZTOS68Z9hSfI2xkyfFz+BCHdHLO2exWJopCBpPOWirT7I0t2pFft1F1fCINAIQ2IKRgC/1jQQOQzjX8Eht1c5btgjZ2F5LdTTHJf7Vr6BWuQrQXXgkAUC9Ej6l+eW+/fpzg5Vla9+1vfrqRSorlZcAAs0NVgttQZyATtTwBE4lGlkTEs+kCSTNQZf23S5NQR4Ic1FYD6RMHNRdFc2/xnl+zUrTWbUbHsrHgn0tzm22ZptAlMQWV/Kd8omNqrhRc99Ht/ii6a27r1SOTyQSpJJN7FbjIyKVqO2BBBDsVjs8tKRgqfd2Jr1UnLheRZ6x8SQVdsWGxHUhrhaSPsLr4nyS5CDNVLZ5aKxzol7kVbBxBAIJGBJ9bGUwAKJi9AI2Rm9dgCDoBhnBcoDg0g93lAgyvH6fhQ163UcCCCSHa3WI1O/aslxOXqHzbYmpKlZhraCpXbxCR4WH1AphJB1blGrY6u68eQGbSPOHdpPXQ+268K/p8+wPXLLxiSsqh1uCB64Sp2WJls/6lm253hKWKU2NiOzl69JlwTckvKRFR+tP2jXUkS71gVPD4EBa/7UVyMEB+5bjUFVVhbCwMMEqIIKEK4tWJ6Ss2ykJsDdpIGqBJpNOZKEgAUt8aYJBrfkAoQlEysaiCaWFIg1p+CZU0AgkbkINDRRxNWBcqabGdGqjVNRaZmhMKyrKUVNjhkbjUc9y3WhVjRS4Xmuf6qm1DkiQXbKQScPqBmgL+/86qreheenuc3fjLdoU6uFRwaLtbmHUtYRxFzIu1wEIOq0G9CPIG0lYy2epDCDwDgEpsSMKAckJj4AG5J1gxDd7sjR3CijvKxy4VTjghNYACCDQ2pKOLa53H67mSK1xbUvmWKPR6AQHTBZcce03oMquCiDUih4JIDhlUeMk15FV15u7zapPAQhO9klHsgQQ3BlEm8Xn6/qyZLO7kp2o/oKQLAB19ubOg7O6BLpbTg1twB3MuubyPrPgudZSfx1ymdlFtQCB42EyeMFo9ILz6IbtPNwtcOFIwsaR8BJEWJ3Tu2ZM7Os6Vkpl/zUcuPLO91Zkg7RgJQ13owBCQ3tNdzxrfK8tmWNdjx4aHgEFIDTIm2bI0T+aBaEuj5qA+m6xJd8QTG9wxbnOjQZAOAMILo8AD5oEEEplFgQeJqMOer2WOaE42LkL4OHhAbWKzkHlrRBAIAuC4Hx1tQBBfqbTtPOdqxvtG1Hn1VHQ8qVbS0G2Nq/pbNJsNjOnRzIp0+6VdrHujl4a4lFr98H9bLk1AcLVz3wFICgAoSEOuFObjYPUq5+Drf/GTQkQfj+XyxcVFcPLyxN+fn4w6D1gNlehuqoaGo0GZksNDAYDgtoEQqUWHQk4oKykBF6eHiiptDJPYV+THjxPzmzi4Dlhh3Bu2pCDFJUnAS8X5nWPN2jghPcFIU7WDNmtAzfHsvXORZk7VF0nk3oKgflGCUQ35Uy/DlSSOXRd/e5JPBt2Y4O9ahAl9kFyeKyHGkWvnTpHoeLZtBz9SaTU2wHKeCTV7XSudPU2d3HqaYoCdu2vnH75mLiOb2FhITIzM9nZt06nQ3x8PAMJDdEv1eVaT0PtXS/RQe0RiCkoKIDJZIKPj4/TOTU/P595aHt6eiIgIAA6nSc40VmVZ46eREXDPgjNo7Eh42RDtV7vs8IrtS9rqylkiiczkrwgxtEtjqY8TSvVlJpunjINsaxZfb0aHwRBfDfjuSE9aAY9N+7VJq6CWgKaaEGQ9Fod+SZoOpfO1KeAW7l6K59fUIA2gYHo1q0rE0rV1dXw9/eBwegFs9mKrMxs+Pv7ITg4gB03VNfU4PSpk4hsF4rz2QXw9/dHTGS40xeeKXBXtwV3ykVU3HKlKgAAifjaSmoBgtzrkgPvEBS/HAC4c5xin4ny9Uo7S1eA0BQlLd+VulNyDSlRaXQabEOmD1yBh6uSk4MCeXt1eSFMCPmREcMMsrGqw3oneBBAkzuFeqW+MZrFMZYDigaXmEt/XRW2K8ig/ysqKnD27FkGUkNDQ9lvuo7Ero028DDTmuS056ZfVK+K5rC4fpoCbhoTG1QHAZkLFy4gNycX0R2iERcXB5VKhYyMDPz+++/Msc9up+tVHGJjYqHzlK7wSgv5RgGExqi/yb5vTJIyg4Rwi4HGkHisPNeRA1cLEK5j02712vWu/1aprymAuZkAjdt34BR/5sxZ+Pr5IikxEQVFhTBbLPDxNUKjVjOlUFBYAoNBj4S4KLbbz8i8jONHjyI8xA+p57IQExOLxK5xzApRx4IgXqsiwUjK2T8wgN37p12Ul5cXE4ZUHwl0+rusrAxGo4FZImw2m7MMARaDwQibzcp2WX5+/rBarSxGA31ONJKJ2dvbmw1taWkpe5d2k9QWWUMsVgv7TCpD9RNdVA9ZSnx9fKFSq1idtLOTKxii2VxjhqeXJytLdEr3Yul9+p/ap/bICkPfUf3FxcWsv8zC4uvLfrs+RDvxgPpI79EOkuinz6gu+l1SUsLqp++JfipD/JLKUZ10DES7UmqPHk+dJ6prqtl7VE9FRSWjXeBJNawWK7snTrsrUrLEV/qe6tfrvVgd9C61QX3UaXVsjhCd9Jn0kPBt06YNK1NUVOS8DmQ0GFmfCbhR3dQG9ZXGmuhp6KE2aVyo32xucxwbG72BLFQ88vLyGG+Jl9RudnY2Tpw4wWilvhNY7devH7MgSPSzWBNqNRtXeo8sDQxEqNSoqKxg7dDcoLGn38RLopdokOZLU6xKVwISRMOlS5cY7QQSQkJCkJCQwJTXypWrEBfXETExMbh8+TLOnTuHuLgEBAcTX4kfpTCZjDAa6R52s7Zjt4rouzKdCkBo3XFUAELr8l9qvSUAwvn0PH7nzp3w8fVFYmIicvNyUVxSAqvd5txZklLx9fVGt65xsFisOH48FWlnUxFg0qKovAZtgkLRo1sCgoICXI4YhB6kLFoMO89jxKiRTACmp6ez3RMJS1KunTp1YjsoEowDBvRjgp2UTXx8AhPUZ86kIikpEQUFhdizZw/GjRvH6jiTehb9+vVHeUU5MzH37NmTvXv48GFERkY6BS61QT9U59ChQ5miuHjxIo4fP+5UyNR3Urz07qhRo5gCka5pEc1EHwl0Um5btmxBYGAgM2WfOXOGKS1SNvkF+ejatStr97fffmOKjuogBd+hQwf2nbudLSmskydPMgVNCo4UCNVP7VE/z58/z455CHDQ9927d2fKi+gICQ5BVXUVA0IDBgxAVlYWayMoKAjHjh1jbd9xxx04cOAgfH390KFDNAgQXsq+hMSkRPaexAcJaCQldWfKmHbmpNxJiZGy79ixIzOP0zixPqvVbNdL40e74CNHjiA8PJyNAb2flJTExliqn2jOzc3FyJEjGX3uHhqnU6dOsb6S2Z14GR0dzRQqvUu8IJpp/GgeEH179+5Fly5d2Jzav38/4/nAgQNZ+YMHDzJQRHzo3Lkzo4/oJNoI1FB56hu1c/ToUcbzdu3aYceOHYzHgwcPFoP4SFC8NtADT74PVgoFRPftOTZ+7sZXDhwIhNAcDg4OZm3R2K9du5bRQ6CG+kXznGht3z4ChYX5WL5sNXr0TEJiYjfZneWbQ0a1ChUKQGgVtjsbVQBC6/K/JQHChfQ8fsfOnUxIJpJAt1vZTowsCLRjoSOG7Ow8eJuMCGsbyABCVlYesjLSEejriaycIkRHxyAupj2YH6PcB4HnYbNasXzZMgQGBUHrqWN1k9Kg3R8pHlIIpPRIGZFiGTCgPxOaWVmZTJiTMqCdV9++fVFUVIidO3ehR48eTAHTUUaPHj1ZHSR46SGhTgKZhDUJWdrxSqZoUiQk8MkUTbtOeoeUPCkkUgq0u6QyVD/tJCWFTcqQFDiVoR0lKR0CIG3btsW+ffvQq1cvpvBST6ciJzeHKaoNGzagd+/erDwpVFIctLN1Z0UgGkk5kUIjJUHKivpOfVm5ciXrB32Wk5ODtLQ0Bjao3Pbt2zE4eTDy8vNEcDWAASU6drHZhZ0qPXfeeSeOHj2GsrJyBhAyMjIZz3r27IETJ06yY4DYjrGorKzAuXPn0blzJ/Y39ZuAk3RWLs1LUqzEf+m8n/4n/hA4ofIE6mjMCFCQwqMxl/pOAIzK03gSf909NF70Ps0JAnSSn4pkPSC+HDp0iPGZdvvE3z59+jDwRn/TeN52220MoFH7VO706dPsexozooF4SvUT+KPPYmNjGXCQAALxltqR2pcfmUlHLZXl5Th48ABz5tUbDOgYF8fmcr1HdjLgChDKSsuwZu0atG/fnvWFgFB+fgGzkkVFtWdWs6LCEhhNBmbFazgw1s0hs1qECgUgtAibG2xEAQity/+WBghkQfD29UVSjyTmeFhdVSGY+00mlJaUwtvHB6EhQdBoVCgrLceRoyeQkX4eAf4m5JdUIrJ9JAb1783C5roChKKCAqxdtw4Dkwfh/IULTLGxWxGilzkpAlJA9HlqaioDCOXlZUhNPQ0fH1+mXAgwkKAuLi7Cxo2bmDAnJUOBM8LDI1BSUorQkBBcSE+Hh4cGoaFhyMvNRbvwdkxpeXhoUV1dxawAZB0gIUzKgOogJcYAQtt20Oq0TOkSECDlRe2SMibLAoEC2sXT37SrJwVDioUABSk7Ajy0iyaFRO8sWbKE1U1mfzoOoB0j7YTdKUVqh+ih3TkBCgIfBBBIEaWkpDDLCL1LFhACCPQd1UNKkgAPAQdSjP379xd3oAWMn6So6ThgwoQJ7O/ffjvNrEJUj4rjGLAhcEiKkCwBdA5EvIqOjmTgQNp1u5rZXQECAT7iIYGuqKgoBuoI7HXr1o2BFJoT1BaBIwIWRBMpdJoHDQEEUtw0H4YMGcKsM0TLgYMH4OXpBavNygAEgRFS+hJoIh4TUKGyZE2hsaByZHGhdiWAQFYDGhcJONK4EgCTA4StW7cyXg0fPoyRKOmk2t88eLuDzU/iJYFdGpPGzrtprHfv3u20IJDCX7ZsKVsDNM40V8hKEhbWFmFhoeDtNpSWV8LLoIfOg+KTKOfpV4y45gzdovgg3DAtpgCEG8baq6q4JY4Ytm8/wKemnoGnwYiETl0QGRHCrjrSOTUJKzrzJGVDNxhYJgYOuJx9CenpFxEUFoKz5zLQt08v+PsYZWE/hXNSirdeVFiIrdu2seMFJkxVKuc5MpUhpU2mdzKpk+Ds0SOJKXMyMdPungQqKQoS8qTYNm3aiC5duqJt23CmqP39A1FaWsIUKIEOqp925JkZmWgT1IYpCKqbgAPtHEmZUzlqlxQtfUfKTXJwI/Mv7SJJeTGFbfKGf4A/U8BkSidLCykPAgTUJpnPSfGRgBd8JQzMmiCZriV/BvJMJ0Xr7iybdpWk2OhdslyQUiWQQfRRPaSQiT5SupK5n0ABtUeKls7hSanQ36QsSbmSciZFTEqSQJEQeUy4MUFAhoBTfHwcsrKyUVxUxMAU0UY0EK3Ef+IR/U8/dORCNEj+FbQjp37HdYyDg3ewoxb6IR5Rf4g+2rlLCo/AFM0japsAEIGwhpQp0Ujvk1In0EM8of/J7E/zgOYR0U+7bvohOqlNGhuqPyE+gfks0JjRuwQoaQ4R/wkcbtu2jX1OCpnmENVHwObAgQPMAkD9J4BKcdhHjBgu+MVcYeU2xSuAQBiNhwR8iFZqk8aYeEn9I9porOmhua/30sNSVY2N27ehTWgIeiQmuslQcVUi5Y9RuLHBUJwUb+w4KwDhxvK3qbW3BEDYumUfX2M2A2otfPz8ERMVigA/SjRRe92P6LA7KHEPD7UKqCwrR2lZOXRGE/ILSxAR3hZ6nWQuFiKss/fpWld1jSDMoyLZDosEJSkfAXyAnSGTsiDlROWCg4OYWZV2oSSsSWCS5SAoKFhQ/JkZiIhoz5LQFBYK1zOrq4WyknMd7ZbJAkJCmHaTFouZ1U/vk5KjNulvapcUHp11S3fnSWFQWVJeZEInoU20Es0ECsiCQEqXFCb9T6CF3qd+0a6UwAEpTipPRwb0UL+pLNHjChBIGVIfCYyQ0iI6iAZ6h5Qf9YUAAJWjtgnQED3UJoEPao/6Sv0kWoke2tHTbprepc/JwkMOmBJAoP7Tj2QOp2MJooH6TO3Tu7Rrp6ML6ge1TU6HbZllRc36SvRKRzD0fVFhETIyM1jfJcdT4i89pBSrKqug89QxfksWmiutA6Kd+kiWDRoHUuLEd3qo//QZ8ZuUOYEDAoLUB+IhgRHqNylk6gsBHOILgT4aN6qH3iOLguSoSmNDfBAcGlWw2Sw4evQUBg1KRnR0+6YuWbflJEdUooksMwR6iXdEF4ElGi9qm+Y8jTHNFXasQ2ldzBbM+fEHePmYMG3qNEgBZptF0K3+sgIQWncEFYDQuvyXWm8JgHAxPZcHp4JDpQHPqeBr0sLbqGVmU+dVOheAQAKP7mY7VCrYHDw0ZF5lyWQYLKgFCOKOlZy5KGmKs1+ye3VUFykNSYgKbdZ6sEtKTYp9IMRMEJKdSLHW2bU0dtdZiA3F4k/T9UeVSoyfUBuCQrqWJ7VL9Use86QgSflITmUSUJBoo+/pR16eJYUR/R6k76Uzc7knvlSXfGZJZ9m1fRSiWwmJZhzQqDWsL1L9zjp4AbBJ7cnpk9Mm1e+6UxfGT7geSj+koORlpfJSvRJYVKnoCEmwQsjfl3gogT76X6JN+k7e14aCGLnyhvoip13qmzDewnyi64hyHtHn8jGW/y/VL69X6os09kIZ4rkVO7bvQ1x8PNq1C22WQBDmrHBNVD6W9Jk09+k76Yqj5OjIW21ISz2D3YcPoXPPRHTv2l0BCMLwNPwoRwzNmqtNelkBCE1i0w0v1BIAISurkGdKgiNlpIKPQQ1vo05UuJK4lFkQpGBJtLshYEGZ2jhKzOQGIEgdcLHBSsrFPQOZfbAJvK0fTUvCHQ3GfZcFEnLGnGlGgKQrESkpxKZcj7tiZ5t49V3i6bW06+6dK49R/eBObtt1of1aaBP1daO3+xqjtxadinkonUGj3GVpIwBkQ1WlFTqdFhoP986UTZik9Yu4G0/5Z+LUZ6DHYkVm+kXY1BxC2reH1sNDAQgKQLimaXddX1IAwnVl5zVX1hQ1SZU35Qy0ASK47KxCnvK22ym9LaeGj1EDH6M8h7qgrp1HDC4AQZJtVwMQGmeIBBKk7YC7N64BIIgWjfpm/saSyTROsWuJa1aGV9+UoENlkQubrCzFtm4YQHDpy43kydX2WSLN/Xt0E4aSj3k0a3Fd41DWonIecPB2sPXJLCY8PNxEUG9WO7fiy4oFoXVHTQEIrct/p/BqIhnNAQiXKFkTWRCgZvkYfRlA0NU5K68LEMS89mRBILdFISgdVFdhQWhit2SKj/4Usn8LrUlR8mqBBCWfrgMZZPnnnZ/XsWi4SplmcPFqOqSUvQU4IGZO5DWtBhAYmKK1xXMsC6qNDu7oOI7meaN56W8BFjeHxKsACM7Q7Mrybg7H677b2gChmbvi68eIVqqpqZYDOXnXOP+5zIwC1pydfBBUaviZPOBtaNyCYDFbkJ2bD19/fxYj4fpaEMgPgCIRUmx6PXMsA8ipUcpmpxbjBTvYb9ph0fGI5IPA5g/tvsQU0xJAYKHtnZPL9ShDzsFr5GYrzRel2evNgZsAIFCXxJTpdnaEpzxODjQRIDj3E1LY7GsRrArb63OgiceeCutufQ5w+/ce5y02GziNDr4BgQgN8oav6QoWBDHxScbFTMz+5FPcOekuJA/sdx0tCLT1r4HFUoyUlPWIj09EYmJ3gBOuXNbmq6l1hpR8FgSQUPvIDyic30gpGWRx9ul9YVcmSRDlrvmtP7Wb0wMFIDSHezf8XQUg3HAWX7EBBSC0Lv9bsHVu+dL1vIdOh4LiMgSGhKBXYjwCfA0NHzGoBK//4qJS7D9yFAmdOiG8bRhUnPNyo+yao3zH3sRe8TwL1HTh/Bn8+usKREVFo3//foiIiGSBmGx2u3BdkjzCyUFSrWJOkkQT88ZndlkVNCq1gCccdDVT8GwXrzgwfwoqT9fZmPXETt7y4tVMTripQA8FYnI47A2mDm5ij5RitxwHbhKAIFrCFAuCywRSAELrrigFILQu/1uwde70b+m8ztMTp1LPosZqw+CBPdHG39QgQODgQEZ6Og4dOoq84hIMHzEKMTFR4hGDoGRr4yBcPUCwmi04eugI9u7Zg99/P4vANl7w9PTAmNFTEN0hCgcOHsSAgf2QU5CNw2ey0bVzN0SHBiL9Qjq2bFoPm1YLm8YDI/sOgIdajeysbHTp3JlloxQeOy5mpGLr1gMYMWIwPDRq7Np1AO0igmA1c/D1C0LnznHM6Y+C11AQHoqTT3fulee/hQMkAQkktJ5h33kaRkdllJHwv4X1TemnAhCawqUbV0YBCDeOtzdZzVxGRiFfVFSM1LO/w+TjjT69uiDAjwCCRCmZ8mtvMVA66LycHJw8+Rs++2IOZj35JEaPHAYVxUEgbyq6nsXO/lWiV8BV9JgHCvPysWpZCvReHigsrEaHWH8cPr4fOp8uuHPMSHz5ydt48skHsW7bVqw5lo+HH3gIIxJjsWHteuzcsRVdB/RByvqNeGjiZBg8ddi7Zx/unnIXomJiWD80vBU7NyzFu5//hGn33oUgX2/8NHcBOveKQ6VFjdiYLrj37juZhYFC765evRqPPPKIGIr4KvqiFL2FOVDHWaVV+uGUwXQkJhq/WoWQm7FRBSC07qgoAKF1+d+CrXOnTmXwp06dhNbTCzGxHdAujJwOvVwAAidecwTUtKni7agor8JTT7+A+x54AMOGDhJ9EAgg2GBntyI07M721ex86DggKz0dq5fOR2K3GPx2sgYJXYKRVpCGw7nBeGhUD3z+zrMYOyYZW3al4ZI2CtOmT8Ko7h3w83fzYbfXYMo9U/Du+x9gYL9+MBmN+P6H7xEUHALvwCC0adsOd48ag0MrlmPezq3w9PVBkFoHrqQCAZ07ILuqGpnpGegT1xHh4e1Y5EPKmPj44487kyfR2DQWb78Fx09pSuHAfx8HFIDQumOuAITW5X8Lts4tXryOV2s0LGKcj48RJqMHjHVuMQjOgHaKBseiHhJAsDGA8PTTL+L+hx7EkMH9BYDAUzjjMuSXFENr8EOAtzc8xLP9JvXJweNyVjZSfvkJYSGhyLmsRly8AXt/3w9L2GhMStTib3/7G9pEdMOoPvE4ku+BwcOGY2CHCLz47JsYM7Yfxtw2CLNnf8AyKfr4+mD1mjUY2LsXwnxN+GrhFoy9azJqik/ifH4OPD2j4MgrQ1tdCcr0PM4Xe0Gn8cbofrFYs2oV2ke2Z2F5n3jiCRaimfIckC8D5WBoKNFQk/qpFFI4oHDg2jmgAIRr5931eFMBCNeDi7dEHdzbb3/GUzIbT4Mevj5GdIyJgH8dH4S6AMFht+D0yWM4eOgIvv1uEfoN6I/hw5IxcsQwIcPgvt1475OP0X/oGDw0Yzq8DXRFselPdUUlNq1bj62bt6OgwMwAiy7AiLseeQom6zm8/NpbGH77fRg9IA4/rziMrt2TUJl7AZvW7cI//vcZBLYxYvZHH6FP7z4sr8BP839CVFgo2pqMOJhWiNunT8Pvabug13ti6uSZ8LDx2L9tLU6ln0FmgRq5l4rRPT4YaWfPokfPHgwUzJo1i8Xu/+KLL1j2xtmzZ7N8AsqjcEDhQCtwQAEIrcB0WZMKQGhd/rdg69zOXcfZcqPQrnovHSLbh8DPzyhzUqwLEHiHDRkXzyE9PQNmi4rFIAgM8EWPpESWO6C0OB9nLlyAKSAE0eHtoNNcpaMXz6OivAQnjh3C4kVrEB6ehDsn3Y6ISB9UVVUg/cIFxMR0gANq5EEwjNsAACAASURBVFyugadOg9yCC9B5ahEf1wE2uwPpFzNZshs6CjiTmoqS0lJ2RZISG1EmyMysTBgMXmgbSimOgYKCQhSVlDC/g4yL6eDF9MyUKIgS7FDGPbIYrFm9Bp9+9ik+//xzZkVQHoUDCgdagQMKQGgFpisAoXWZ3jqtc1lZpWy5sRBEHGUk9IDJ6NkgQGA3A3kru0rogAcDCCxEkTMBkw02FvlNiBt/lfCAUcLz5SgtycbCBYfQMbY7BiV3gVrDwcHxsuuUlIhJSNgkxZqWHCsJ7FBcRZaIR0xRLbBXcLiUvmcfie9LIXflPhPO/AYOnqUOXrlqJbOSzJw5k6UOVh6FAwoHWoEDCkBoBaYrAKF1md46rbsABF4ECPJASS4+CCJAoLwNFk7DFLGaB9TOWww22MhVkbtWgECMMMNsLsfZMwXw8wtEWNsA5jTpoHiJlIFQUPuisheUvAQEmFIXU1VTrARCEFIMBAE2sMQFQnY9WfBmZ3ZC+ToQy5Fl4ejRo+zaY8+ePZkl4r8+3G3rzFelVYUDTc7mqERSvEGTRTliuEGMvfmq5bKzy9gmnI05WRCMZEG4AkAQnRQdnAo10EAlpLQR4iCwa45W2EDZIZsDEJrGKIlueen6KZxqv3V3ea31L7Q1ra9KKYUDCgdEDigWhNadCgpAaF3+t2DrggWBRTCmJDAEEDRXPmJwAxAoGa7mFgAILchXpSmFAwoHbhQHFIBwozjbtHoVgNA0Pv0BSnEX0wt5lpxLpYJGwzXZglBUUop1O/ajc6dO6BQTDY1o5y/Mv4yDx47BP7Q9usZ3hKeG4MONea7WgnBjqFBqVTigcKBFOaAAhBZld73GFIDQuvxvwda5hQtW85TfQG80IrZjDAuU1JQjhoysLLzzyRzcPnYcRg8dxJwReYcDF9JS8UtKCmI6J+H2USNZNMPr9rhMzDo+BGIjVzpiuG50KBUpHFA40HocUABC6/GeWlYAQuvyvwVb59LScvnq6iqkpZ2H0ccbPXskwNebIinWpjwWAiXZWQplNXkk8jbY7DyKymvg5aWHQadjCZPImcFuM6O8qhoqrQ5GT0+oG8pd3+Aks4HnLeT6CEAr3K9gvoZqQGUHOCv7mzwfBL8JwUNRyv8g3McQHnkfyD2RhYBmPoqSs6OYNVoKZSsTPJQghx61shpacDoqTSkcaAIHFIDQBCbdwCIKQLiBzL25qubS0wv46qoqpJ45C6OfH3omEkCQX3MUlKoAEEgTW3Hk0H4sSVmK0nIbZj35J3TuHA/eYcfRI8ex4OdfWKbFSXdNRt++veDh0cARg7tJxvPIz03H9m0rEdI2FlnZWnSIDMal7HPIytFg1uPDcer0Hnzx+XzAHophowZj3Nh+OPt7Jo6dKsc9d/WEzVKBFatWoGPHOBiMnti9dx8uXryEgsx0dOnRFzMffAT79uxCRUUFJky4HTzvwP49e1BUXI7ByYNgMhrYCFlUwo0HD+n6ZkNA5+YaT4UahQN/fA4oAKF1x1gBCK3L/xZsnVu5citfkJcLD60OUXEJiI+NgK+3/BZDXYCgVvEw11QgLzcfb7/zEabecy+Skwcwks1VNSg4l4F1q9YgJC4aI28fA52OrADSI78z4BYhwFZZjOP7tmDHsVQc+a0SHWOTYLMUYuKk/oiKboNdu7eifWgEctOKsHRvKibeNRQVJZlI2Z6LN5+ZAVVVOb788kv0698LelM1Ppi7AAP7T8Ck7m2xYNEhjBt/D4rO7sLxohw8+tT/QIsabElZjAu5Xpg6cxICA4TIjxYVWSkIINB/vBhrodaq0oJjpDSlcEDhgJwDCkBo3fmgAITW5X8Lts5lZZXwvN2G8+kXkVtUioH9ExEa5NtgumfhiMGKyspqvPbqW5h4x2QMSu4vJHdyAOU5RVi5KAV+4cEYfvsYaEWAwPN2OByC2V/F8jO4U7Y8eEclCrPTsPCHn/FtymYY/Ttj5sx7MWVKEjxqKrB50zoUV1SgOqcSW7J53D1jNCzl5zH7l+OYltwHvDkf2w7uw4OTJyPQ1wNb9xzCnRMmo3OIBh99sAntgjvBryYNCw/swKCxYxDhp0HR76m4ZI7GXQ/egeAAL3buYKZslJyKHXKwR8EGLTgtlaYUDlyBAwpAaN3poQCE1uV/C7bOXTifz9utFqRnZKKkqgb9+3RFaLBfgwBBpXLAaq5CSUkp3nzzPYy7fSIGDxkAT50nrBYrCrJzsWrJMviFBWHUuDHwZiGPrSgry8WhQ6kICWmLjh07Qq12d/TAw1JTjNMHt2Lzmo3YevQCAgJjkRCXgInTx6Hi3FF8/vUnGD91KgpyyrAqtQz33TcG1vIL+GJVOv4yaQTs1jIsWLMcU0eMRrC3F7Zv34Gxo29DWKAnPv50JYb0HQ11zmksP3kIvYcmI//sISA/Fx7ho3HXg3eijb8a586cQHp+BXr37As/KZeEAhBacFoqTSkcUADCTTsHFIBw0w7N9SaM27hxL++wWWG22tEmrB1iokPh7+PqpFjrg0DJms6knsTxY8exadMudIiNQ5++vTGg/wAWjvjAgQM4deoUDEYjkgcnY+CAAdB72XEx4wg++GAeevVKxt13T4VWKz96ELvF8yi9fBGbVy1ClacB2QUadI9oj8y0VHhFdkanTv748sv30L17Iix2D5wv1+KO2wbAWnkZG45X4u8P3gG1uRo/zv8JXRNioebK8fMvC9C+fTcE+vujxsxjyvjJOLd7N1L270R05zgYbGXQV1eD90nCyEnD4WMyY3nKV/jku42Y/d5n6BYfq1gQrvesU+pTONAcDigWhOZwr/nvKgCh+Ty8RWrg9u49SfcDoDeaYPAPhK9RDW+jtkELAh0vZGWlIzMjCxYLhStWITAwAPHxCcjJuYz09Iuw2m3s/cA2gYiLi4NOq0JVZTHOnk2Hv38bhIdHsERK9R8e1WWlyL54AabgYFRUOuBn1KOmohxFVVbExrXH0WOHUFZWBpO3L0x+wQgO9IXDVoO8Uhs6tg+FyuFAZqaQjOnM2ZNYtnQZunXtiajoaCQkJCDQPwD5WZfw27k0cB5qhIe0gVGng8XhiTahbQC+CGtXzsV7X63BB+9/gaRO8QpAuEUms0LmfwkHFIDQugOtAITW5X8Lts5lZ5fydDuBrgnaVBr4NAIQmA8CrMKhPE8xDlwUvcwUL3dJvF59alKdPFhmxsOHD+HwoUMYPXo0IqMiXfwI5GcGwoyn649rVqZg84YV6DFkIkaPug2BJuFWg+KDcL1GUKlH4UAzOaAAhGYysJmvKwChmQy8dV6/RoBA6ZjIuf/KAKHV2CAKkOrqatCP0WiAlq5bNuhHIH7BAYX5BaisqIBvaBg8tZ7QSu8oPgitNpxKwwoH6nBAAQitOyEUgNC6/G/B1v/QAKGWj3RN8UpSRcZxFutBuebYgnNQaUrhwNVxQAEIV8ev611aAQjXm6M3bX1OgOCgaIlNPmKgaIc8HHYPqFQacCyMotRHHg6HEDegrp8BD7ud0iy7fn4DeONWgIgfCvmeXRqlD8XP6BfPwSoGStKwQElSqEXxtSadc9yAfilVKhxQOKCke27tOaAAhNYegRZrn8vMKuGt5hrYeR4anSf8fDzhXSfdsxQoyQGOd4ACJZEPQklxMbZs3ovOXbqjY1yMQDDPoyy3EMcPHYFvuxB07BwPDw8PFuS4vLwY27YdRFBwMHokdYVGI/ouMGXLCZmixafZ1nx3AMFZKUMAMgZLMRnEQMyMEBWsIibQyIrSV3XwxVURKlgm6oIN8v2QTj5cfCIkhojYS/jWHTFXO1fk6EYKPk1jIbWvoJ+r5ahSvoU5oFgQWpjhLs0pAKF1+d+CrXMXLhbwR48egcViQXxCHCIjQmEyurvmyAsAQW1nAOFS1iXMmfMzhg8fjYGD+gkkO3jkncvA2hWrEJYQi4HDB8NTR1EZrSjIz8a3361Eh5gOmHD7SGi1alHfCbPNwQmA4bokW7oiQGCEungdilGenOqag11IgA2VDLk49fs16VAZQJCUPUcAgfiqoghSzmFnsIEXQj0zWCCiEnZKwnJPyLh0VSDFBWSwdlj0KpZ1QsxUcb1GoQWnsdLUfxUHFIDQusOtAITW5X8Lts7t3neCP3XyJNRqNbp27YK42EgYje5yMQgAQaWyobK8CAX5+aisAtqFR8LH15sdOVRWVCIvJwcWswVtgoPhF+DHjhkqK4twKesCqswmBIcEo00bb6iZtmNZmMBzKjjE2xDyvew186EhgCBObKuVAjdVwWjUw253oLCwBN7eeuj1OhSWlMIU4AcP3oL8ghJ4eplg0KlQVmmFt8EIT40aZcVFUKk1MPp6o8ZsRn5+PsxmM0wmEwICAqDRaGC323H58mVUVVUx3vr7+bHvKyuq4OXlCa0OuJSbB3joEejthfIqM3SeRui1GpSXl8Jms8PX1xclxSXQeGhgMnmisqoaZpsa3gY941Z+Xh4qKiuYlSYkJASenp5sHOgaaGFhIaOB6vD392e0kMMm5Z4gGEYhsNsEtoHDDljtFvj6mlBdU4m84goEBQZBr/W4ZvYrLyocuKEcUADCDWVvo5UrAKFRFv1RCnBffj2fDw4OQnl5ORLi49CxEYBA1oCsi2k4cuQIjh3/HZPvmorOXTqza4XZ2dnYu2cPLl26jD59+6BX797w0Hjg8qUL2L59A34/V4EBAwdgcDJ9Lp77tyRAEEctL68ImzYeQteuHXE5Jwfnz2VjyNAe8Pc34peVSzF66nh45J3Ftwu2oEu/UegdbcDGQxkY1qcvYgP9sCZlMXx8TEhKTsYulgzqInQ6HeNBv379EBsbi5KSEvz444/Q6/UsMVRCfDx69+qNgwcPolOnWHh6VePtT+ciJGEYpo+Jx84jZxEV3QPdIoKwZ8c2lBQVY+zY27Bs+RIEBQZi8JBE7DtxGml5Hhjeswuyzqfit9NnoVOrGAiJjIzEkCFDUFRUhK1bt6KyshJ6Lz06xnVE586dsWvXDqSlpSEjI5uBmNjYGPTs2QuZGRnIy72MMWMHYfn6pdhxvByzHnwIndv6KTc7/yir/I/WDwUgtO6IKgChdfnfgq1zCxev5tu3b4/ff09DfFxsowBBpbKjiiwCly7j/Xe/wIz7H8DAQQOYJYAU1cW0C9iwZi2iOsZi1O23sSOG6uoyZGel4dvvViMuPg73Tr8TWg/RpN0KAOHixWx89tlP8PcLhtliQb++iejdJwEV5SV4+/03MOtPd2PPinWYvzUdo6fNxNiueny2/AgmDh2Jbm0DMPubj9Aj3AfJw8bgky/mY+So0YiOjmaKmfI3TJ02FQUFBfj6669xxx134NjRY2x3P2rkCKxcmYIePTvg6NHD+PinTegycjr+Oas3flm8CmHteiG5V1csXLkcltJyPP+nh/Hue68gwDcSd0y6E2v2HsHZQhVmjOiMH378GV0Th2BYj3icT0vDxo0bMXPmTKSnp7OIlgMHDmSWA29vb/j6+iAvNx1nzpzCipWH0L17VwwZ0hcB/v7svfPnDmDQ4J549Z3PYfbtgVeffxbJ8aGuES5acFoqTSkcuAIHFIDQutNDAQity/8WbJ3bsGkvT+ZsUiyRkeHo1jUeIcEBdW4g0HywO2Q+CLwFVVXV+Mf/voU7J01hyZqYsz8la8otwvJFv8I3PBgjx1E2R4qVYIXFXIrZH81HSEioABA0tWfe8iOGhnwQruqovREfhPT0LLzxxgcoKa5BUo8kPPrIFISE+iArKwv/fut1dIgJQNGFbJSbEtCua3eM6KTFG1+uh5+HCe2NDqw/ugOzxiejz4Ch+OiTefj7S6+gXbt2WLduHfbv348nnniC7dZTUlLw3HPPYfeu3aiuMWP4sAFYsuIXWNRARto55NUYoQrpjk+evx17t2/D5s2HodFpceDsaSR2TMBrz/8J//fv53A2tQBdunbDiUuF8OnQE7MmJuDtj3/EfQ+/gkm9opF76RLeffddTJo0iY0jgZHx48ez3xTRkn4cjkKcP38aCxacQp8+PTB8eE8aVaxatRibdm+B1oucSQ34vSIAf3l0JpLjQpkFgY4s6H3lUThw03BAAQitOxQKQGhd/rdg69zGzQd4MkdTeOKIiLZISkxAWGhQgwCBLAhWSwXKSsvw5j/fxfiJd2BQcjLLrWC32lGanYuVS5bARMmaxt4Go48Jdls1yssK8clnCxEcEoJ777kTBoMny+qYn5uLxb8uQbuoWAwdMgQGPQGKus9VOS42JDxkOu7ixRx89eUSdOrUAecvnEdEeDQmTByI8vJCPPnia+CCI/CPe3tj88Hz0AREY3gnE75adggThw5DUlgAvv/iY0S2D0efkaMw+6OPMXbcOPTp0weLFi1i/gYTJ07EL7/8wsz8BBY2bdqM6mozRoxIwqfffYGTed54/pERWLdpMy7XxOCzlx4Ab65GWVk5bBYblixdivKycjz95z/hP++9gwD/AEy+ayjW7tmPMwVemDYqBu9/swA9+9yBR0f1wbHDh7BkyRI8+eST7OiHQMKUKVOYXwL5QzCQxhfhHAGEX06gd++eGDGyF4AqpCz5Ev/7xSY8NmsWekbZ8Oni03j64UcxKC4UOZcvY9myZejSpQuzSChAoQVXptJUwxxQAELrzg4FILQu/1uwdS4jq5QvLS3B2bNnERXZHh2i28JkavgWg8VcjtUrUpgSO3f+Mrz0RgYQ/vKXv+DA/v34cc5cZGdnQaXTYsTwEXj8T0/i4MHd+PLzD5F92Q6tzhPDhvbFQw/cj8io9rh4/jxe/+ebCGsfg2eeehoBAT43HCBcupSDlJRVGDlyGPMbmDdvPjp3jkWfPr3wzuyPMevpZ9GxnT9SVuyC3hSMrnF+WLslFaOH90JsuB/mzf0Gfn4BuH3iRGzbvh0//Pgj8+FISkrCjBkzsG/fPqxevRovvvgiYmJisH37dtTUmNG/bxJ+mPc9OvccgmGDwjFvwTKUlnbEX/40Dhy7neAAb+OxctVqFBQW4p57puHbb+eibdswTLh9NPbsP4n0rGqMHt4Zl/Iu4dMvvkNuRhq8TSY8/vjjzP+BjjbmzJnDLBmk0AmsPPLIIwBsLIfGqlU70K1rV/TrTwDBjrVrlyBl9R78591XkZe5F/N+PYfpd09Dpw4ByMnJwTPPPMOAxuzZsxn4UR6FA63OAQUgtO4QKAChdfnfgq1zmdllbLmRKVnF8TAZPa4IENRqB8CbRRK9wPMqZ6AkIaOD+NSZRFTeCh4m5wVDaku4xeBw3mJoyJDdbAuCeE2Q+ig8romixM8ph4N42Y9ySfF0nZC+Yn8LVzB5jvoo3L5gFxHpc9GMX1u/yE+Vyhm5gL4Tri8KJnsOpeChg8Ouh4rd+BQaoG8k1rD/qQkWCFKikT5kjbKesCMAClQlsZ3aEcvKA1UJRwVCXfQQDUI5sYOoAVABIJB95OCFWxj/+te/GEB46aWXnACB9Vs5dWjBZao0VYcDCkBo3QmhAITW5X8Lts5lZpeKqo9FI4DJqGVX6uTmZHc+CIKC8BLvz8sodrt4SfkIAMGpojkCGoKCcvVBcO1/8wGCpAil1oVgSLWBh+RBglwCFtWqeEYuwQKK2UCREoRIBSon3JAUs6spnkAHPQL4EAAGAwLi/yIsYC3R92rxu1o+8HCICp7eZcAFREP9JFKN+wxIMSBYTawCCXyI/7FmyapEViK6jTFhwgTmhCk9t8ZRw80mxeRzrwVX+B+xqSYCBAasmfCgOCNuAqg2xptreaexOv8I399sS+uPwNObtA8iQBA0DZm5mQWhgTgIKoqDIFkQ2MrzrA8Q5GrXuZAtIkAwyACCZEEQ2naIO+I6G1Npt+tGETbIz4aEhzMXgzx6oGRJkF4SlScFLnLXphR2WVLs4o6/SWMrxjdyiABBbsvgeKH/kup2GwtCsPMw60EtxBAgTqMAqs6CrgUIjG72ncQT8QiBB4uhUF5RzmIs0FXNWwMUSCNBnaI+3SxHIjT4FGCMJszNQlOTZu3NWcgVa8nXvKTUyTIpSDUBJcj3AA31SoxlxuKWSdj7SmDk5uTOjadKAQg3nsc3SQtcZnaxaEEQFpG30QNGA0U/FLzfJR3isFO2Bh4qSvfMjhjoP0/6RB4E0AnUnXOIoXgS1g7wvMapeJmZ3inPa0Mty3Mqsd2wZM6+GpO266KW7wREWgQRIKni+i80KBfqCCfxuMGtNcJlhEWGsF+Ux4LUPPFYrK9uqOn6na1tVjrIESoktaN2Hu24YZKIw+pKPNdysk5J9LBjiNaYpUK/aq0xEg1XQQwLBmUDz1Gwp9qIlE3tTYMYU6xAPgXcTbV6obyJHt7KGCrQ1EB4bQmv1UGn0kpy1YpN7Y37cvVrc9+T5rXS1Lfrc1w6rLzSqLssRVG2CMd49FBKGMHOxkFS+rLY5kJ5cX2wMOriurSrOPaeIB2aghCoDTnwbkSDNqXKhlgnybKGlnBTWd6ccgpAaA73bql3uazsIgYQmKojgGDQwiTmYpDvGgkg0CNYECyw2WzIySmB0ccP3t6mK3a60R2u/G1x8VB7xSXF8NTqoDcZ3Iv5puqMOgtSrjFrRbWTBLFO6VjgSh0TuOZEOeIfV+itSIfdbmORF728yBlUpEG+w3GjmYXjAKGsqEJZ6xJAYDYPWf6GOmRJr7q6Xril/Rrnb7OEhlzUC5yvqbGwAFP+/r7ijZqrmEVst24BzwnpyJ2g02W+1DmOccFI7mQ4c/0Q2Sz/Xk69wGKZ1mFv0JqpYaZugSYJWLoecknqiECNNE/lc/QqeNDIMNbPwiFvj610wffFxaQnfFaPkbK530jDbtcszW6iiNSyAIBpO+I+qqrAbaFM7U5fCENO30hHl/QXC5bOxt/htArUTlT2l2yo7NXVKKuqgMpkgl7rCYrlRjFem/ZI9UoavMHFJlTXVJBQRy5IL8qZKFt4Ta2zaR1quFSz1npzG1feb0kOcAcP/SZMK04FvdGIkCBf+Ii3GNwDBMGCcPnSJXz51Y8YOmIUBicPatBpjSq/6vDJvA1VVaVYt3Yz2kdEoXtSItTkyef02BMXiGydCDtO6VzfRbCxHspntVyky9ktc/67whqWBGddcS0HHu528qJg44GMjIvYsH49Zj7wALQspLFoAmUk1n237k5aVBviDonnONgAeDAH0yYABJlzY72dVDNmnVyR1DpBulQoGwMeVpSWlKCoqAahoSGgq7OZmRkICQ6FzlPHrtCWlpfj0KFDGDJkBMsNUmMuRW5uJTpEt4dawyE9/QI4ToWIiIj6tysIIPBWQRnLrDTMp9TpqFpLX63DpqTn6u8b2ag4vXVq5TthMrmicgsQmEWjSlC6nKc43CLkkzKASfPXOf6SCpdmmctKkuaApBflTqtu/mbky2Ja1J+t8k+EteIKBuRzsc538kGXZz91HsnJ1l6dNSu5BtQ66ErKk8EFl/UtyCNhHZF1QJBbIkjgJSukHZz4pZ0jeCABBEE2OKsk0EAAQOy2Aw7knr+AA8eOILpnT8REREJLGV3Z2ImyRWzfKWvqLXPimXBUK/DbDZhyBw7kIMD5nkCsq3OxxLFa2awAhGaILuXVRjjA/fDDIr5tu3BwKhV8/QPQPjwIvt7CmbNbgMBWlBnFRUXYuGk3OnXphoRO8bULQly0Uru0SGihu904uCOOt4PnK1FcnIkff1iK+PhEDB06FDqdl+BsJH/ESpnzoNiOpIcE5yQnFUJSIidUkXYFbnZkoqc/q6ehjZKox4W3a+sShENdEoVjEnGhg2OWl5MnTuD777/Ha6+9AW8fH9GRSoZhXAWjtJ8UKhL3V2QwUIO8OzTMsbHpAKHOHordIqGKxasazBeltg/uHC/lnwkCTHCcFBStm6MJ585GUKVmcyHWrFqGDevO4YnHHwbPVeDDDz/AjHunY+CgIVi6bAWysjOQfjET3ROHYsyYgTh8eA1+mr8Xb7/1Gvz8VHj++RfQvn0UnnvuBej15Cwre5iCcJC5q54fah0lKSq2hgACzTbBZ0Q2Gdhco4M1UYnSmErH3MykLZavk1SLdrVVbLwIIAhOocLsqT1iEvxLBP0hGsalWyYSOpHfvnHeQKHGa9cFTwHNVMI4sH22PAmY2Gwt5VK/5OCgVoPVgilpndBvhzjewrsE0pxXY6RX66R/lz4UuOicCuJwCTUKD3tNAmFyFC4DNxKltJ6dFjy2cSDwRbU4wFGCEfqLWQBUrAGHio5CZcdNDCDwQjI28rnh7Th39Dg279qO7sOGoVtCZ3hpCFwI1Al8FACKNIdq1xEFInNd+0JP3fruyJkgYZ5a7CNzLBJvPrHbT4xD4hqrpUlwWL4K+Vp3pVzbfzJMcm0VKG/dKhzgFi5cwffp21cQa2o1fE216Z7rAwQSOA5UV5cy73arVYOANkHMic3BO1BVWQWVWs1M5zablQX70Rv08KKIfk6OSEvcnQmOB+8oRWbmWfzw/SIsXboBnp4GTJs2FQ888AC8DAZUlJXDx9eHJTNi+QYMehakiSI7FhUVswXsodHAx5dM06SMLCw5kgeL3Ci0SebrkqIK+Af4QKVyoLSsDJ6eOtYPi8XKYhDQrQH6n8IUk74pKytl7QnCQQU/X194eWlRWVEEm7UE1TVqeHiY4Ofnz4ITORx2lheBsmRSRENfHx8Wc2HlypVYsXw5zqSmIiGhN5555hV07hyM6moL45HeqEFxaSlUKjVL7lRTVcUkp6dej4LKalTaeYQYvaBXATUWK3KKSxHs7wMvyv4k21XVYzeAanMNikqK4bDboTcY4G3SoLoqAyWl9KqJ9YtiKnibvBn9lPSJwmdTn4nHlMOB+kNjT06MFBeBkkHReNfUWFFZZkVgGwMT1Gy8XXZGEk2VFaVYsngh9u07hhkzxqOsvBQpKRswcsQITJ46DefOpmHTlo34LfUMHnrocXToEIn587/F2k9okgAAIABJREFU4cNnMHRoNyQktMfq1XvZMQ3FmtDrDXXXmwOw22zIy6uAj583dDqO9YWSXhkNRgbS8vLzWL+Idh8fH5hrzIxe6mdFZSUMRhOKiyphNBqg1QkJsCjRllmlgYfJB0E6DcqLCuEfGAjOQ8PmjaW6GnovL2g9NKKyJ+UjqEDeUY2iGiuqoUaoJ4+KIjOsZhX8A/xgtdlhNtfA21+Lcksx8ms8EWA0gauyQQ0N9EY17A4bKsorYDIZmZKgoFpEJ83xwMBARjf1h8ZLWgcUIMvPz4/NO5q7NDctdjsuFJWhja8PvGw1cNhsbA0RKqRxpfqpnurqGtZ3UkCVFVbovTyg0WpgtdYgNzeX0n3BZPSGt68Xs9sJ870YNTU1jKaAgED2WWFhkXhbRhgiCv1N85r4RQnFbA4HqtU6GH284cMB5cWVCAz0gVarQmFRoXMdEP20rrz0emSWlMPu4YlIowdU7JCNQApZEIjfZD0iWVTJopJqNVoUl9WgACq0NXnBIO1WGEBwMAsC4YkTJ47hwzf/hZzSIuhCw/DAjEcweugA8HYz44fBYGDJzuiH5gutT5IJdAzGO1TQ6XwQ4G+A2Wpj9ekNHqCr0tIioPgkNO+Cg4JhqbGivKIGRpMeOp2aJbkrLaVrzzyrm9oieWa2mmHyNsJu51FaXIWAAFqXJIuq4eunh80mRLQ1GPTsKLbFHgUgtBirW7sh7ptv5vMdYmOZkPULCESgvwG+3nUDJZH6EHwQaGdiwYF9O/Dzzz/j6PFUvP7PtzAoeRAqKytY9ECj0YjJkyfgyOH9+HHeItx//4MsAJGGdnN1tJZ7gFBakoWUX39Afn4ZwBsRHh6CzVvWY9xtUxCf0AmffPIJXn3tFew9sAs/pGzCrMdmYWifJCxbuhQff/Qxu7NPwvzpp5+Gj4839uzZw/IhxMbEMgVKi33dqrV4/fUP8M47b8LT0443/v0mRkwcj8njJ2BlSgo2bd0OrU6HkNBQPPboIwgJDsY/Xn2NmbzDwsJgNBlx//33IS62Hd6f/QZycnNgtxHECsQzz7yMXr0ScOZMKubO/Y4FjfI26THj3sngOAN27jiBrl1jsGXLWgwbdjsWLliBF/72IHbtPA2TyQ/Dx3bFEy/8k5k43/j7c1j0y8/sDH7c7ePx1mdzcalajf977lF0aOON3Xv3YdZTz2HO5x+ib++eojKStvAiWmC/ylFaYsbcH1dj955N0Go5JCcPwsSJYzD/l08wb94ydIiOg9VaiU7xg/HiX/+GSxkZ+OrbecjKvYDKSgEo/PLLfJw/d44loaoqKUVNhQX9xk/GvdPHYueOrfj4u71Yt+At6NwPrXP0SaiuXL4Cx48dwYCBFNwpG5kZWejadRTGjh2CBQvn4fiJEyguKUFiUhImT76LASuTSY8L6efRrm0QQsP8sHfPOTz31xdgMJBCls0uhwMXTv6Gu+59Av/70rPo3jkMb7z7MSK6dseTjzyGfZu2YOXS5XTQgYDwjpg07VGUZh9DfuZldOrcA4uWLsWdd03B11/9gr/+9Un4tQHe+fQn/HbsAHLLapA8fiaemJiIWU88j3+/+yUG9OiAffsOYs+O7bj3nqksyqbw1AKEyopCfL98PfIsKkzu3QXvfTAHvsYQvPmPp7B1zSHs3bcMr7z5JObO/w4phy7jny88iz1bj0Cli8Dj9yYj73I2Pv/sczz77DMsGNbPPy9Aevpp2O0VGDlqEh588DHY7Db8/PNCfPTRhwgMDIC3yYhX/vcVZu377rvv8O3c77Bx8w786fUP8eEHr6M68yTSsqvwwLS7oFXZWdm//vWvTAmuXLESjz4yE2WVhfj0h+2YNnksIsNU+Hz+VpzYvQ06BxDRoRvuf2IGYsKDsWvTJsyf9xNTWH4B/njmqadQXlGBDz74AGfOnIGK4xAZFYk7J01iIcF/+Hk+lm1aD85WgawKPe65/zHE6nm8/cZsvPHGMxiYnID7Zz4Lz8BwvPzSi1j+8w+Ij41FUs+eeOjl/yBp6Fj85/EJ0DJ/E/EQU7S0VFeU4bs5c9AneRA6RnbEsy//G1naQHz4/2YhLtTHOVUcsEOFaly6mI2//+NjjOzZDVWqGlTqvHDut7N4cvpYHDmbiVKbDg9PScbXP6zAsWOpeOuVZ2AwqvDye3NwLvUE7GUFqDL0wQ9f/h1bt23F5WI1npx5O0ye5JRdA7OlDJMnP4Aiqw5ffvUNUvfux/x5q/DUU4+gR1IUfv31V+zavRsV5WWIT4jHU3/+M5YtX4F9B0/iqWeexfkLaXjplS8w5+t34eXJ4f3ZP+L/3vwf7N23Dym/rsATj8/EkMH9BV8dVxPNjdAwCkC4EVy9Kevktm47yBOazysoQEBgG/RMSkCgP+0m5bZyAgjCNS12iwHkQFaGv/3tFdxz7/0YMHAgrJYabNm6EXv3HmC5FvYf2IbSUg73zXiYCSqavILbET1UR30tQubRjIsXsHTJd+jWLRxnTuehU+doZGefQ85l4LbbxjNT9L0zJuHnpd/hTGUI/vz4UxibFIvVq5ajML8QU+++G7Nnv89CH/v4GLBxwwYMGTwCUVEdoNGaEODvi2ULf8Kvvy5EXOce8DLosf/oHsQNG4K2xjb4becevPbmq/D18cWSZUvZWffM+2cyYBITG4vp99zDLAtkC83MOo6PP30LnRIGYMKEIViyZB94PhRTpvRnWSKtFjvbRa1ftwJenuXwMcXCU5eAqCgjFiyci5dffhH/+c//oW+/aGRlEr+N0PpW48sVRzGgazf867lZ+HXRAga+vE1e+HrRSiQk34EXHpyCmGATCoqKcODICfTp0Q2Bfr5OE6hTW4pnLzyfgV07TmPZukw888xUhIb4st2KzWbGF19+gkuX8vDwQ1ORnn4Cm9fn4LEZDyLn4kXsO3YGA0clorikEHPnzMGnn30MPx9vFBYUwFxZjV1bDuBgkQOPPURHAGvx/FcnsOb9F+DNWxngJCWl0ZCPhWg1Eq+PEkBYs2oVsrJyodWFQq8vg82WA5VqIO6dPggFhZmoNluxd+9elqGSQOeaNasQGhqEEycKUV1VhHHjg/Hz/N/x3HMvok0g+afIAILdjt3r1uKf772JCcP6IkivQ8rOI/Du0RvTxk/Cys/m4MHpM6EPsWDBpsPILDXinT+PwZoFi3H06HlczM2D2UOHl198Dknd2iI1/Ti+23AR4wZ1xpbtW1DGReD/3ZOELxbuQmGlEc/fNwZrVq2A3lOHuyfdCZ2O8lrIAAJvR0VlEeYsWY1dJy4hxuiPwLgoTB0/GGE6HZb/uh47t3+NkSO74dOflkAbMxjPPTwBm3YcR05NBJ4YnYSC/EtISVmIv/z5T9i+/RCsFhtmzBiJisp0PPTwq/jPu1+gfUQ7zP3uJ9SYK5GcPICF37777ikoLi5i0TX/+pen8dqbb6DUuyP+31P3oCY/DduOV2HK8AHwVJvxwScf4x8vvQRzVRkWLFiESXeMRUl1Fj5fcw6z7p2Iy2fW4Kc9evz89lMwWarwY8pCHM4vxV0jRmPFnDm4c+JEDBkyGBpmrRMeki1fffU1szbNnHk/Ow6qqSnBc/94CT3H3Y5YPy1SNp9E26heCOWLcfrAdlzIOoY+A3ug7DKwM5vDU888hcPLf0KgtwElZYX4dW8qBk28H28/Ng6e0k0n52adh7myAnO/+RpJ/Qbgt0MH8dUvKxE8YCLeenoG4kK9nQ7PAkDIwca1W7FmQyEenTYMOw9tQ0zvPti9cRPGdDHiVLEn0sxtMNAvB69/uwG9uw7EPx8fD4cqH28sOIwZd46CtvgEnv7hDL54bQY2bVuDIxd1eGLCUPhrAF8/G2pseZg87RX0HjeDpWcPsZoBqzeSk3ugR48o5n/j6+/H/HK+/24O7rtvJg4fPon9h9MR36kLSkqzsHf/Zcx69F7ExPjiP//5Fg8+MBm/LlmGvNwCPPfsg0hO7gO1AhBuSiV7KxPFZWeX8GTi/D0tDTn5+RgyqDfahbVpFCBUVpTjb//vH5g2fToGDkxmcQ4yM49j0eIV8PcPY6bG3r0GIDGpJzQEbB2CWU3roRW89wkguJ7XO3hkZpzH0iVzkRDfDr//no/4hGhkZ11ATbUP2/W++tqrSOwej3J7AS5r4jDxtokY1ikcb7/9HuKjo3DHHePwwYez0bt3L5i8Hfjqq6+g0wTD1ycQheoQPD7rEeQc3YBTZ3eg2BGMsopqtGtThVJtMAz2UKCgBC/+fRZ0Xjps3bKZ5VF49JFHMPfbbxlAmCoCBFKwWVnnMPe7bzBgwCAMGtQFvyzYhoICHtPv7YYNG3Zj/77TsNmA3MuXkTyoI4KDOkKtikBklDcWL/4Rzz/3PD759EMMHtIRqadzcOJ4MeI6dUV+WR68jVo8++cnsWDBAhw6dhS+fhY49F7gffrgsTvHISaYTOVWFFfUwNdkEJNfyQ8yxd2rg3w6MrF44UakZXri2b/cAw+tAM7stjJ89sXLWLpsJ7p1Gci8GaIiBmHKHSMARyXm/jAPWZcvoqamivVh/vx5zFl08cJFOEu7QrUB4Z2SMWVyN2zeuwKP/WM9pg+Jg66mBN7e/pgxYzrL4+DqEElhqVevWoXKyiq0bRuBsDAPpJ07jUvZkXj4oTHw1BN4oZseFmZupb9//XUxoqMj2bFWTs4ZdO9uwjffnMBTf34BbduSM6IcIDiwb+N6zF8xFzGxvZB5IgPx0R7INPmjd69kzPvXf9A2uB08vLTItevQMak/nn1wHHauWYMf5/yE42mZCB0wFO+//gxigjXYdXAbPl/6G/766CSsWb8GJVwHvHTvaJSUFGPuTwswduRIbN+6FRMn3I5OcbHCpVd2/i2OAQMIhfjsl2WYu3QzRsTG495JE9G7d1doNCosTfkEP/w0B0nd4qH1D8HvZj88clc/rNtyGMs256JfmBb51hJUmXPwyT9exLbNl6FSaXHP1P5Qq0rw2GN/x0MPPYnuid3x73+/g8TEHiyd99IlKZhy992Mznffew/x8W0R28UPO9MDcff4yegVoce8hctw/uwZlPIWnEw7g4Uff4qaivMsgqa/XxQqbDYcLzXiX688ibQjS3CyOA5vPT0dvijD4rUpWH4gF3cMHo79q1Mw69GHERfXsVZ28IDFWhcgGAxesNty8POC75Gy8iC8fX2QWqTC2DumI8hyEcHGMmw+no5jJzIx5/m78eI3O3DPrOdwYt0vyMpMQ59eYdh88jLCe0zGm4+MYxetndFHRQsCAYQ5X34NTmPAmRPr4BUSgXN8PF7/n+mICzM5x4Xn7OD4PGzZsB0r1mbjgTsH48DJvQhPTMKRnbsxtoc/DuWUYNHpKjgqbIiNi0RQdSWenXQb8kvO4a1fD+DJmZPhUXQK/zPvLD57dTrWr1+B75eeQa+2RuiqKxAZbcBtU4bivpdX4q2/PYB5H7+BTvHD0D68D3z9PBEUpMPixYtQXVWJ8opqlJaW44UXXsDJE9koLCpC9qVUtI9oi4wMKzp3ikbvPlF47fW30afXcJRXlKCiIgvTp03GoIEDFIBwK2vim5R27tChVN5qsyEr+xLUHlr079sdQYHkOOfegsDDhrzcTKRfOI+PP/kKI0aPxqBByYiKiobFXIRVa1KwefNOJCUmY/yESQgNCYEKFcjLO4tfU7YhrmM3DB48BB60s3QBCLQrLynJwOoV85GdXYCcyxUIaxuG4uJijBo1HsEhHvjLs8+jb9/+GH57MpbsL0D/Xj0QoKnAW5+m4OUnHkFSpyh89NFs9OzVAz6+NpYToWfSGLQJCsc3aw9jzKgRMJWchdVRjOhOfVBZWYTc3BM4ekmHDm1CsG9tCm4ffye8fXxx4tgx5u8wauQofPjRR0zo3j11GvReehZyOSvzN3z2xWyEt+uCrl274ODBU4iN7YCkRCNefuV9DBk6CRHt4rBn9wm0CQBiYyNx7Oh5mLzV+P/snQd4VUX6/z+3p/fe6L0HQi/SQaVIsaGrIqLYXdv+V13r7m93XRV1Vdy1YAcU6UjvofcOAUIqJCG93v5/Zs49yU1IIIi6qPc8DyS595wzM++8M+933pqcvIlhQ2/i+Imz3HFnd5Yv287WrRlMu3cKOTmnuHDhPPc/+CCffDmXhRu28uj9N1BpLuJgpg9Tx46iZbiIhjjNl99t4vbJE2gWL9TaLoBQbftXHLCczlJ279zP/EWb6Nc/iYiIEMIjQomM8GH2F6+ScrKEW29+hJycEnZsPc3Ykf0xl+ez5/Bxxt88mrKyIv75z38y841/YROak7NpsqkjKRlsPHyeJ2eM4NCxzTz53j6++Mu9WAtK2b51P927t2LM2NEXsb6wdYvTrRD+4oQLBaxfv4YzZyKZOGEQwSG1tUtC5S3MVx06dKR790R02lIyMnYy+7Nj/OHOaTRp4nsRQEhevpQDp48w4sbJFGbnoK9MZcXpYmnSOLhiHj27DMIYGEqVyYApJoqA0grWL1qCjymMfcdSKA8oIjzAn8k3jmXxiuXsOnSW+6fezoJVm6k0xvK3GbcSHerg869mcya9guCgEB6YPg1fL6PiyKbmunT5IJSX5/PpkjVkllrpExVA6sF0evbrT2L3Dqz44Q2ef/dz/vT008SEBTJ38zHuvakv67ccpMqrM09Pvo7MvCze/89bPDH9LvbtPcjp0+dJ6p5EZVURy5au4qlnHyIl5QRffL6Exx77I1arhUWLFjBx4iSKiot45umnmT79FkaM7szLnxxi4qhbuD4xXtJN6AZziot44aXnefaRR7FV5rNs2TLuuWcaFyou8PqcrdwyZjTkH+fL77Zwz63jsTjsbD16grDgCAZ368qiOV+SEB9H61at8PL2kjVIhObHarXy3/9+JDUId9x5h7SXl5Xn8PwLf2b4sPEk9e7ER4u3YgxoQrTzHAmhBvwimpF2NoOBnXz408zVjJ0wjQPL5nKioIBnHhrJF/NXo2kylFfuGYGgdrWjp0s7aSkv4+233uPYyRKeeWokyYf3sO5UAC/PuJUWEb4uF1AltFLjNHP2VCr//mAuLSMCyS0rQBMWjrOsnD+M78rqvam8tvggMx68m+hQX7I2bGLqgOvYtW8r63IKeeiuMZjTD/PIVym88+IU1m1Yxbbjdu4c3AN7kY2VP3zGnQ+M4u/zz/HXhyZTdGof/gFxpKbmotM5Scs4JcH2uLFjKCiANWs3M2XKGI4fzSMyKoiwMGSxtqXL1hMQ4EO3bp14/vnX6de3N336dmHtmiVcP3qUPKR4TAzXqJT9FXdLs2b1NqdTq5En+8iYWCLD/Qmsk2pZ8UFQTAx2u4WU44c4cvQwZ9PPSb+Fps2a06/fIAwGDWlpR9mxcwfNm3emc6du0vlPQym5OQIgbKBN6y4KQDAoCWNqXU4ndnsRGWmH2bJ5B6tXbScqqgmDBg+lf/++VFVlsHTJcvoPGE5guD9bj+YSER5IXuYJMot9uGX4YPz0DjZu3kBCQhxGk5VNmzbisPni7e1PhSmUAQP6UZ55EpOXng7t26OhgpSzJzlb4EXbZmEc2LaK7HOVMmpCOAz16tVLOu6tW7+e8PBwWZBJOIQpJoYjvPX23/EyxdK+fSKRkRF06dIKP18LK1ZuISe3nAC/SHSaQJokhNKmTRz79+/n4MF9JG/ZxoiRkxg4YAhx8Rr27jlFWZmOvn07yLLMwmmp74CBbNm5j6NZF5h0Yx/OZ50ircBAr45tifSzKABh3gam3DKJZgkJbk6K1X7hylFWOqmVsXbDOkShKuEk1qJFCzp2bMnevWvZs+ckYaHNcTj1RIY1pW9SJ04cPY5NY6BLUhsKi/NZu3otN40ZS9b5c+zZvVu2ZUZPUIv29OvWhMz0o3y25CgdogMw2cDfP5zevdsTGxtee4pBOszt3bNH9qNr167iEync8vMD6Z7YAqOpNnIU2qhdu3YRHx9PQkI8Wk0VhYVpbNueQ1JSH8LDRUZPt8vu4OjOHZRYrPQeOFDmIMhJP8nuM6V07NyKsqzDnDiYhs0OVj8fmnbsgJ/FibmwmLiYVuw/dIRmHYysX7eSMqsfh06X0C42iLjoSI5lFHIwJY2XH7uPxE4B/LByCXO/38PTTz9Du9atZD0TNYm1uwbBYilh15FTlNh19Gsby7aNe6io0jNsaD/Ont3Ikl0p3DnlDsz559h9Mos+nZuSknoOqy6O4V2bU1ZazOatWxg4qA/FJWns2XOUkmIxtU7ad2hH+45xrFq1ArvNn+uvv4ELeRc4eOgAXbp0oaqqUgKye+65FS+TmSXJmXRtn0iHuCAJKa3CgbWinJU/LGPgoME4rFaOHjlKzz5dKbUUsGZvFj06dCbe38DKlSsoK6+kUuuLd1g8I3q1J9zfhyOHDrN33z7p6CqcGwcOHCjXizCxbdu2XQqvHknd5drJFwBx4UJuGncjRpOF5MPp6E2RBDlLCPH1pknTZui0Fqoqz7FsSyrtW3cj9+ghikw+DOzVhOTk3dhC2jC2Z6tauTLVGBC7xczqletwaqMYNqIVew7t4sQFP8YOTCTE25WsTU007tRgqTKze+8udq5Zw9mcXAKaNGNAr5707Z7AniPZrDtewC23Dqa8uIjCE6l0Corg6PEj2JvE0KtLUyrPZTBvdyGTR/fg8PFDbNqbTbSXFr3Vi9goHxJ7xbFsVz7jBvcizMsgNWIpKacQ+VDE77t375YOmHp9OEaDL917tCIzo5CoqBDatImRIG7Xrt3Sfyo6OoGVK7fTo3sbQsN8OHBgH+3bd5AHtBoT7s8skTw+CD8zga+d12tSU/OUoCutFq3BSKCfngBXoiQ3pW01QBAhbVZLhTwZOFC0AGJT8Pb2UcKr7HbMVgs6nWB4gyu0SHhxW6Wnu/jcZKqzoasNyRUu7PZl5Oel8cVn82nbLpEhw4bjZfJGxM8Lz3UhvJ0aB2aRBEDIP5sZtAa8DSZ5mrCI9oVdA6e8X2yiQlAKb3MvkxGnzSb7Kk41IkzRZndgc+pkpIPdasZcJYIHwWA0YhJgwGVL1eq0MkJCZsSTACGNjz/5L0k9+jBo0GC5+RkMIujQhtViwWyxodUY0OuM6HUa+U+c7A4ePMDnX3zNX/7yEqGhwnfAic2qOFvpDaIPFuwokQNmi0WGgZmMOrmhWJ162U+DRoApO+VmG74m8X73rJBuSZul+V8Jl7LaLDKCQyiHRD+NRpP0QxCfyYAwrYjEMMrcDKL/Qosk++NwYDFb8TZ6SUc4QVN5Rtbq0HmZMOnFHNgorXKic9qkZ7heb8LkJTy53WLrZN0NjYwQsVut8v0SKDrt8r0OhwGDoXZmTkF7QWsRPSGKSao+DQ6HFYtFRB2YpNd8bRTiwGGxyHBBnZw/Bw67BYtdjEf4B9gxV5hlQSpRB0Qv3iG3Vyd6nQGr1YZW78RclcWi9Vup9GrD2N5tRWktCorK+W7+fPr2TESvL2bVmhVERifyh7v+gF5m4FPFlMvLRobRKQXOrHYndoyYDBosVpuccwGgnU4zZpsTLy9vuc5sVgeCLMIvWKwxL8HLDidmm0XOjXiL2WyVzwvBK6JkBJ2rKivR6YwYTUbpVCw0g5IfBf3MZnx8vOSYq6waqcHTaxX1vAwKdDqwms3yoCD50WZDL0q4O8V6BqNOh1HnpNIqoi8EpNDL770MegkyxBoTQETwipgPMRaxLwjnRLFXiJvEXAveE5ELAvR5exkkP4ixazU6hXdE7gLXuhR7QaUVDDoDwlbnEPyp18joHYfWgK/gFdl3Zfar84QJfhXMISJODBpsVhtVDh3eJh1697BPVfvgRK6NlIOHWJ+8hW4DBtGpQwe8jWIvcWB1aOWz0qXHZkdADEEfh9GAUa9BY7NSbtXh66XHarNSabbL0AidRoeXUeyDSJqL3yWrChrYhOlPSeUk1pOgm05rkPyp04k+O9CJdW5QeFvwpAyA1eowm22YRP4UjV3SVtBVqbRaVyX7Mwma+qKlfqamPK/931JA+iAo4kNsFFoC/QwE+iuplt0vRYOAK6udGqysRoqLb9TyQ/VH21VjALdkLQ0O3WmnsrKMXTt2ExUdK23/YmG4Egq4sqOo0dwytsL1qsstkLoByI0g/iXQ8oWiQnbs3kXrps1oKaIk3NwE1dJMGvWMIwW1WOR2zp2/wJZde7nh+tF465UNto6Eq4mJd8sroEbfq+2In+7ZHWreUYce7mOoCTSvdhRVcxnUdhxVw1FlNL0rZt/VGTcyylfL9NVqCSq33Vrqfl09lB87ZaEryUeqY4Lrc6XvbpS4iChu71JEkttw69ysSg0pMVzfuX64JzVSObXetL6yXxbyiopxan0IC/SWIEJs7Dk5uVRUlLFz5za5HgYOGkF0TORFs1jdusw07lASRCgZrWr04m5P1a6xoQjvuux3OQ5vBEdfdEttmlzEicrMyI6IHABqngtXTy6x9OrNiVHjsuoqeKZkjlBGqtRPUPYSd36osxddbrW7GhZAVOZmdFVplRGODeRksTuhMC+PlDNniGvWjMiIcAlWRM4KNbm5ADzVy8fd58VFg7rvrr5FXUrqBy4WcI84UNZRDbvWRzuxTt1zkDSmPor7jvdjeMPzzO+bAgpAcDGuzXkpgKBkFJOCutZefgkJWg9ta6W3vQTtxX0CWQtkXK+/wjUwb1XiJGSx4CO0JSL2vVZshpqBTfXoVlJUiwx/NqeJMosdby/vWjZUlxx2jax2ildVeLgP232/uTJy1N3V1R3M3fZ/MUBQS1XLtmphLXcR4/5ud6GunFIdIlmQrB/hekYyXz1Spl6AIO5T+9iIFLhXABDc31w/LWvzuTi5ydh8VzErqVWqc4ar3u/FF65aTUpEXg1t3dtSPm04Ra+b/Liy6b7M3Ve2gq++6Rp5KSqi1tZ8KVxRFyDU2nDcUpPVH9XnnixTCF2BzeTadAEEdQQq58mfQos24AZNAAAgAElEQVRgt8v8GTqD3qVdVLRXSpl296RHSlKkajlfnQVT+axB1q09jJoUnOoKcOvfTwEQ6ueyq58/zxt+PxTQZGQWKIn00GKTGgR9PT4IQmPmAgiiGt1l0oxfinyNBQg/5RS4p9dtDOpubNtCMS+oYhSbiEvjotREUE/ViihULrHJVMoiQg58sEpFJVcNEH7cifLnBgiquK0LEKzYNYrJRgEIgiyKKUi5LqdB+F8ChPq5Qt2Ea49A0ZrUAghCeaSCAyldLt6+/1cAobH8fjX31Z/m+eoAQkP9uQgguEhdrcCp86DKdZJbXRMpcy65gMFFAMFVxdUDEK6GIzzP/hoooMnMLHQKj3ylLImOAAkQ6jMx/DoBggoOlJTHGsVPohHWOvd7Grq/BiDU2D+rD4h1SyiLVh2iYI8Zm1PP+fwqDh85zsBePWRhmIsLVjROg/DrAQiCimbsKGmR/xcAoebkqkIRRRq41+S80kWrQqCazMCq5kgABNdJWNxkEzzixOawUVlZIf0DZPZOby/p/1PTj4Zn9OfSIFzpmBt7v/CZSU09TVFRGe3bdZA+EDLy0wUJhVHzajQIPxYg1IWj7gDBBeWrX12vBsEDEBrLAp77fuUU0Jw4mekUYWRCQhm8fYiOCKgnk6KbBkH1BfiRA/8lNQjCkSgvL08684mdSSRwiYiKqj6rXkq4qpuIumEIW2Qtu6hGWKhVDUIdgCBbqGtiEBoEYWIoprAkk/c+WkxUdFvunDwJk06vZot12XprFxVSlBMNFBC6zDzUT++fSYPgCumrXVxChVeCHlXYUdIiK4YGl2dZQ+UWa42tbp8bMDFU53lWHFPdfRCkk5la3MclklXBrFD4yi91lhWAoEINBXBXAwRxk91OaVkpe/bvZ/VqESmTzdAhQ5gk5t9LieZvqAeKDbxOsaEr7urlYfHl1mZ1DYLG+BFJtb2VU6f2sWzZLnp0H0DvPh3kGrzWAII69yqH1Vr79ZkYGgEQalHbXVnkzmSqZc5jYrhibvY88MtQQDPv22VO4WhlMJgIi4ymdcs4QoN9G3BSFN7GrhIpbh410hvXVdypIcckdTiX+15u2A7hjCOcumqKt8hTlsvWJ62CsoKhzEajiGOx+Yv/RAEW4Qin0VBZUcnatWtJTU3FbrPTqm07Ro0aqXi9S88lYRpw5fER3tPVHytbhNyU1QpyrqLYqvpBo3VicQqPfA0ml/1Z9EvrqtWgVnSrHaBvxm4r44fVy1iycjt//vNLJESEyepzwp9ZVp9ziN+U+juK65ZasKVGgMjiQg6XQ5eMClDgg6x46UonrTpWyWI0sl6NEpsvNCi1tNvVctQl3ITKX9pCXWdjaT4RRBaFa1R7rKswEyIXnXhOp1TQk4WfahhX0Fk4dkkbsABHlOLQhCoRJLX0OG5gQVbrFYWWFFu9oK9aZEetg6EIdfGMXeGBi0S7MqnCLCb4Rtwh4YSgk8xG6/JaczkLaoRfhJw3d1d4wR4OhZdUnnQ5kqlmKhHCJ2gj++h6Xpk3pV6HnEE5H3bsljySt2xn2YY9DOg/gJYtWhAXFyurVwoHOVE50NVFpS/yD6UKmWvmJB2k45x6Aq9bGaya9IpDsaqWEu0Lmir8ocFeLeBdb1aLGNntSr9dRbdqOcSJ/jmc0ttermE5t4pdXtr5XW0Ik5GMx3dR3WwWdTbWkJFxgTvumECMcOas9tf4pTQICh2VqIqL/RbcZXa12cBFwcZrEFy0qLNvK/NYU8/KreZTrcqicm26aKlOfd3p9Tgp/jJC0dNKDQU0c+cudYoMbCYvbxkqGBRgrMfE4KrFIMowl+WTkZ5NSHgc4RERMve6yHsg8gOIwjAN7lnVC66ean9uMyLCk0TikGPHjspQIrHZmIwm+vTpK4ufpJ49K+sCXMgvpFmztrTv2EaGEWVmZ8l4YhEqFx/fgsRubWQRoGPHjmGuLMNmKyOrCIYOG0l8qB8Xzuewe89uiqoq0Hl706tLV+Kjo8nJzWXHzl1SuITFNqdTlw7Yq/JIzcymtKCMsrxiDEY/RozsQfaFYs7nVNKra2sprvIu5MqMg61atlbUqS6YUS3QHGaZ9OmF1//DjTeOYki/XhixYS4v4NDJTM5kF+LlrMJuqaRp06Z06dyZyqpKDuw/wPmcHEnf9h06yERNO3fskPHkVa5wNJEauk/3HoiAveMpJ8m6kCuL9PTu0ZPIsDD27NpNldZB78QOZKRkkn2+gKZtWnHmbCoxcXE0bxKJpaKQM2kX8A0UMf8RMqZfGYLY5oSgd5CVmUFpSTmt2zSnqDSfo5kFtGranOyUk5w5dVI6eon7/f18ZXx2bGw8qalnOXniIHZbHrFN+9CtWxeMMixTuVyFj6XwspVXcvDwUVp27oSzIp9jJ1OJEtVGreWczs6nT/fOMuRuy55j+InEMR3bILN/17nKReKjdWvpltiR4JBADh06ibdPAK3bNqW4JJ99e09iMVfh6+9HYreu5BdkY7dBgH+YLLLVrEk8yXt307pNG4J9fDlw9DDZmVmEhITSoUtnfHQaNq5bT5VVS4VFi7dBxKiH06VrZwJlQSU3Rx2njZKiI3zyxUK2nSijb5f2VBYX0j2pO+26dmdF8j7uuGEABhGia7OSmZUpw+TSUtMoKMiXIYEinNPXz5ce3XvIeRBaseiYGPQyvK3uJQCCIIoCGLduTaakxMqI4QMpr8hhzbbDdGjfGpPOTm6phlYJcXhrHRzYK2LqO+LtjQTVR4+lSvDZpnUbWrZqIYX+ypUrKSsrlyF4IulRxw4i10UoGZlnOXb0NFVVNmJjWpDYvTN6vSJuMzJO8e67sxg+fCJDhvSV5bqVE/aVAgTlqcu5p1b7HLm0RSKaQXUyVABlwyBBBQju9wigWMtJsT4Ngttn6rMqdG3IB0rMo3slUfcKuvVpc34MQPAIOw8FroYCmvnzVzhF5jONVk9wWAStmkcTElRXg6AmSrJSlJ/C4oXLCYtsz3VDhrJz1y4+//xz/vrXvxITE+06hTWsr72cBkHEax85fJidO7aTvDWZ2NhYOnbsxJChg0lPS5dFZzqI9L0aIyVlJm4cMwS9oYzlP6wiKDAYi9XIqZRcJk++Dm8fA5s2r6NPz/acTNnP/322lddefYNRXRM4sGs33y9aiG9UOCcz07n9hnEktm/P1998g8nXB73WyMkCB4l9EmkRUsSsbxYToA+iQ2QTmdRowuTO2PUBbNuazsv/7z7pa7dz1w62bNzElNv/QExMRDVAUDSMogxtFWfSzvHY2/N48y8P0TwkAL3TzIXcY3w6fztZFSa6x/lwYNd2oiIjeOD+B/h+wQLOnDlDkyYJsghVdHQMvXv35tChQ5xOS+fL7+Yz8aYJtGrRnKQOnTm95yAns9PxjgrjTOpZ9E54/O5pvPLKS1gD9Nx5/VAObdrP9oOpTLz/Xo4c2QNGPx6853byzuzn+zW76TngOrp3bqtE5FWf9JV49tUrVnD69GmmTbuD4+nH+c8Ph5g6+SZs59M5fvgoO3ftl7kTRG74jh27knO+gI2bNsqsjSZjGbv2FzJ9+gN06dTS9X4FIKgyviw7j7feeY87H5pB6qFNfP7dCibcPIV2TcP479fz6de1A5ERUfxn0WbGjr2e0QMSZT7+Wlu+w8nBvft56snHuXfa7TRvmcCsWV/TKbE3148ZxIpVSzBoIwgMEMWf0mjatAktW4dz8MBRfLzDyM7Op1mLduw5cYDbJt9E2pGj7E85Qkx4NGnZuTTt2IkR3dqTvHEzGdmlLFy+lYljBtKpY3N6JPWQCbZqmSucNvJy9vHPWQspNTXnsZuHkXX6hEwWNHbKvdzz/JukrP9KemeUl5WxatVKJV+HyLWRns5777/HnXf+QSa36tmzN6dSUqgyVzFkyFCZA0GReG4mmOrGnbKq4WOPPoZOFymL+mTnbOWfszdw2y2jCQ/WsOeskbtuHEagwcHf/vYajz44HZ2zQtZi8POPkfNSXFTMzTdPJjIqmjHjxtGnTx/atm0jK2N269oJc9UFlv/wA0FBUXh7Gzh+rIRRo26gd+/WaHVCe5HLO+/MJjioF5MmD8LHV+QK+eUBgtS+uJd8vsTO6c5RHoBwNSLG8+yvmQKaRYtWO8MjIygtLafKYqd7t7bERIU2kGpZlDLNkVnKTpwsZOToG5j37TyCg4J5YMZ0JcOgS6YoKrOLSXM5gCBVqg6bPDl9+OGHMtPeiJEjZRhh8ubNLF68hAcffBA//zA+nb2SFi0DqKg8wdKl2xk+fLQ0JWzcuI1Bg/qSlNSNFau+w8fHwYkz2WzN8OL/Pf00Y7rGs23LNk6cSmHQ0MEsXbaUbp0642M08tpf/8boMTfgZfJh9d4M4pvHMWF4Au/PTWbc4GHc0DuROXO+Y/fuDQwecQNzv/2BW8eNJDImQpbf3bNzL1PvuZe4OFdcvEuFL1X+jkpSzmbzyLsLee/F+2kW5I/OWUVeziE+W36EsNY9mdSrJQu/+ZJz57K57bbb5FiffPJJ+vXrz4ED+9mwYQMjRoyQNQ7O5Vzg3gce5v233qFJ03jSTqeyaN58OnTtzKARQ0lLS+eZZ57luT8+xSdfv0tc2yiyjubRLjiY9LxCBk24hYRAGx/PXc1TT7zEmR3b2Hs+k9vvvp2IIOErIErnqoHvWknbnVu3s3jREtq3b8nZ/AtszrTz2pPTSWoajdVs5/NPV+DlreXWKcOpqrLzxhuz8fU1ce/U6/HxKePNd5YTEBjFffeMk0l/VA2C3JCdGkqzz/PmX1/m+nFD+Xb9UlJyHNx661RuGj6AY1vX8/2ytWRUGhg4+gaGDepOpJf+IoAgzC+bVq9i5sx3pDCz2q0SLHXr3pMWrZuzfsN6/vj4s4RHONm0aRPLlm3l8SceYtv2laxZuZ5zBSZ0UYm89PhEIny9ef7ZZwgLDaF7Yg82HToLwTG8cP8EWWb72PFs/vTi28z85zM0bRrqBqfceN9pI/f8Pj74ZiOR7Ydyz8iupJ08JQX3H+69j8f+8hqvv/AUwb7etG7dSs6zKHQ1aPB1FOQXMGL4cL76+iuZalokrFr5wwp27d4l0xnrDUa6dO5G+07takwk1aYSJ/n5ucx44GFuuH4se/ftlY6iIbE9CQs3ExCl4+u1OQxolYDOWMWSVQv4+G/PUHjeix+Wb+TRx+7BYNDx97/9n8woKrIjjhg9mtdee5XhI0dKEGSzOZj96Xekpafz0EO3ERVlZdmyNLZtO8P/+7NIrSySI+Xy8cfz0Go6Mfnmgfj6iWRP/xuAoGoQGrNpq5oKD0BoDLU89/wWKaDZtHmvU6izs7LPkZGVTa+kTsTHRjTggyAyt5nJTMtizrwlBIeGc/LkCaZPv4/mzZsrWdJsNqkSFRnvTCbjRe+5LEAQ1nJ7DUAQpovhI0bIeHMBEET55hkPPojFouOzz1bRvIUP+UVHOHrEysiRA9HpRYY6q0zLW1GZx0cffwIOPf0HdeXbHReYctstjGrrxezPNspKc2PHD2XZ4sWKOr+8gnnfzuWW22/Dy8uXEoueiChR/S2bT5anMGXsGPq0jGH+d/NYt+E7Rt54J4sW7+aWcdexe+9WWQa6rKSCe6dOqwEI1WdJYfeuJD09h+fe/J6X/3IfcWEBGKjiwvkDfLH8GKGtezG5V0sWzP2K7KwsJk2axL33TuWtt2bSqXMnDh8+zNo1axgyZAidO3eWAOGu+x/h/XfepUmTWE6cPMX8+QvplZTEsEEDKc7MYcb/e4aHH32E+Qs/ZNSNfUlem0LvVjEcO36KNon9GdKnGXO+20hY0yR2b97K6JvHkNS9vVKyWahW1bO9jPvSUFpcxukTJ6iqyufQ2ZMsOlzOC49MJalJFHazg88+XYfJS8vtdw6motzM3//+b+ITorjjjlGYjCX8e9YGnE4vHpoxSckGV+1nodj/S7LP8/xzfyYwOoToaD9yK0wkdu/HmEE9yT92in+89QYXDCb6T76bMcN6ESSy9tXRIAiAsGXjBlatXEWbNu05duIwCc1CMZsNREW3YM/efTz7zFMEBpawc+dOFi1K5qFH7mX1yh/YueMwhSWQWWTlv2+8RICPkYcfeoAxN4yR5p0Sqxbf0Bi6t0/A26Tn2NFsnn3xXd5+/WmaNg1pECAU5h/iP99uRRPemYdv6kvq0SO89JeXeeDxP3HTQ8/wzXt/49ixveQUF9CpSTPiwiMYNHAg+QX5jBg2nG/mfEO79h0kz65duUqWUBZplAsLK1ixai8fzHpJWAhdgKvG0H4hv5g/PfNPnnzyft6e+RqtWrajQ5feZGZtxzcmkCXbK7khsRMmfSWfzZnNGy8+Te45O+vWbOTJJ6ZLbdArL79EUlJPBg8ezIhRI3n11VcZMWqUjEAQ/fngvdnS7Df9gZsJCy1m9247n3+xlldfm0ZAgMgOWcEb//oPUVHdmTx5AF4+wgPFibmyHKvVISt/iqJVip7NPZdAfd4BP97EILM0Xs4G6trlfy4Ngnh9jQ/LlZsY3IXQTxmy/VsUbp4xXT0FNHPmLnOK/PYFBUXSoSupRwfCQusWaxImUWEvdKDR6aR9fu68b1m3br20Mz/66MMysYiwqe3du5dPP51N//79GT9+nKzc6H6pmtCG16nQINhl6dMPP5xFu/btGT16tEx7vGXTZpnmduTIkeTnl5CTY2Hs+EGUlZ/jvx+tYvSogegNVpkLvkXLlmRlHmfmzA/pkTiIG27sxj8+Xirr0Yc60/nyM1ELYRTdurdm0YL5dOnUmZYtWvL2OzPp2SuJgIBg8A6iWcso8vOPMfObPfRol0jHCCML5n3FhEkDMTuCmDtvK2NG9mX3vmQiIsKpqjAzdepU4uJias+OtIOK5DpmXnr1Q4aM7MfwoX3QOi3k55xkzpIdRLfuxo19OzN/zldkn8vi/vsf4IP335ens3HjxnHm9Gl0ej033XQT4WFhZJ3P5Z4HHubdd96hadN4iopLmD9/gczDP7BzIhknU8i2VnDrbbcxc+arPP7H+/DzjkVnLmX+d/OJjW/F4MHdOH4sg7+9M5vmLVrx0MP3Ex0eiE6dqFru2Krzn0iLXMbeo3v4ePFeZtw9hS5NYrBV2Zg9eylGkyjMc6N08lu2bDkLFy5k5IgBhATr+OyLDTz0yBP07d3etVGqlQsUp8yC7PNMf+hRegwezJQbr2Ph0jU0b9WWjtEh/Oe9z+jXP5E2SV15euYnTJs6lYE9OuEnhUvNJfhw3dq1HDywn/sfmIHVUs7xk3s4cjSLrt168dnns+nYPpFmzQI5mXKE2NimxCfEsmP7bvx8IsnMyKN502i+m/cNb771JitW/EBaRgbXDb4OjVZHfEJTmjdrJtMYHzuWxnMvvsmbrz9P0ybh9WV0kBk0LeYcFq/fx+INhxmV1IbMlKOYjN5cN3oCfW+Zxux/Pcfho7sprKqge/NWxIaFc92gQbK09ogRw5nzTQ1AWL1ipfTRERqF8nIb3363ma++fh2tUXXXVLIHir/y8op58cV/89qrj8hU5cJn4fjJk6Sc2okpMJDD6RruGjsaXwO8+tprPPHEY1RVVPDRf/9Ljx6J0gdI1A8RpZoTEpoydPgQXnnlVUaNHCWFrbDv79+3j08++ZS+/ZKIiTEyb+4Oxo+7m6FDO6PVaaRJatYHX8j9oG/fbtJRVIR5fvLJR6xds40Xnn+Ozl3auHuj1MmkWDO3iuCudtt0M04p/CM1UtWbjOogqJhfGgsQ6hisJB9XOydLD16XA7MLPqsGspoET+6GudoRSR6AcPVCy/OGX44Cmk1b9jvLysrw9w+Qdu+I8AD86xZrkg7qiuOTAAhi/eUKZ74dO2jTpo38py7MrKwsuaE0adKEtm3b1luU6fJaBBEVZpd2dh8fH6mdEMVMNm/ezEcffUT37t2Jjo6Was+4uDjZtjhRJScnyxzsISEh9OvXD5PJxOkzp2napClBQUHsP3CAhPgEzpw5RUV5Jb379pECVwje0JAQoqKiyM7OYs2a1TLXvTUonk49u6CvPMGbXyQTHxxFhzADA/v2lFXrzqZlsmHDJlkjoXmL5sQnxFNSXELbtu3w8/OpdxbFuDZs2MjHH3/Ea6+9RrNmzRBhpsLPQNiuhc9FSkqKTOXbqVMnma1vzZo15OcXEBERIf0PoqIiZMRGeUUlGzdtZkD//rLwkSIQcqVfyPlz5wgICGDYsGGSDnv27JH2ceGM6rDbSDmZIqspCvplZGXyyiuv8PBDD8s2Zb2JWsCgtolf3RDz8/M5feYM7dq2lW2JsR07dlxGiYi5Fycc4bcg2hbOoqK4QGJSDzp36dLgSU7QYuvWrST1VOrbnzp1SlYFFBUgC/LzJfAUtQY2bd4iNUXi74tBqFOhYXkFXbuJYlBOcnPzyc8vJT4+iHPnUtm8+bRUkCQkBNGrT0cy08vR6iolMMzLtdC6VSxr166kU+fOBAYFsWPbds6mnZV1AoT2Rpi+hEmtqLiY7Tt2ynK7/n5+l1i5IjOohX379rN//z45790TE+XcfL9woeQBwYP9BwygrLRUjikmJkZ+vnTpUmlWEk6qgsZnTp2Smo/ysnIprLomdqdHj+6u6AGXFsElJAUNhDlCmFpEWwI8XbhwATF34u/KyiqaN28m50qsWzH/Yq2J+RJgXwAEsd7EfIpryZIl9OjRQ2ro1BOsEMgHDx6U9wvfiI4dOsr1J74X/Rcly4WG4dZbbyEkRBw+tNI0sSV5K88++yavvPw8I0cmNWrXk7E1rrG5O/ipQvtyAKE6IuaSM1UX27tSHLuAQV2A4H636phYK7eoW+Ym91O/mItaz7p8JC5HCPfoksvd6/neQ4GroYAmPbPYKTZ0NY7b38+Av59XbdNAPQDhUuqty8dTXzqSoXpA0vnYFXKo0UgAIDbGadOmSeGmonH3jUr9rK7n8CUXlasdtd/KScSBTWxkzlIOHtvOnA3pTBw5il7NY9ALRajLs1/STTba+GkQQl/4V4jNd8aMGXKjVje26j40oGJxH5cM9dSK/PAihKvO6clNlSneLTYjca/YXNWuCjB17tw5SVdxynvqqackILv8/F0cNqBu1u79r897uy7ucKeae5x93Xmsj98as1Gqnt81IWSK2cTpVECQRisLJSh/u/Ih14pAcHVQCT1003a4Cnap/WzM7DfEk+qz9a4pN4LVN88NrcNL8b/qPa+Ox/0d7s/VNwfVz7rxZ91n1PGIz48ePSpDjQdfN5hOnTvIuh0i0EWYy3bu3MHx46k88cQTxMUJp976QlbrCGs3gFAd7+laf43RIFSvk0sBBDcNhKSRWgPBAxAaw+aee35DFNBkZJVU7/Yi9r2xAKE2alY2TnchJRdrA0KzMRoEVWBWq/Y0GnnKTktLo2/fvtVCta6AqSvc6m6g7kKo1glEPSQLalRXB1SS+2SeT2PfyXy6tO9AQliwzHUgI+tdse5Xyg+iD6KcszhZi5OdOC3W7Uvd8Cf3fqvAoG671WOvA6waAhDnz59nzpw58jV33HGHLM+r0v1y9s3aglfZRGvxhJsAde+7EiNfz+Xqszru+ujR4HgbmICLAYdyEqyRbS6B5HSF3bnl3ZCvvAToqw/8NJYPGgNsGqKRkhukfoBWdy3UBR4NAb/LAUJ3bdJl73WBUTF/QtshNECC14XWRWSOFJfNZmX58uWcOZPK5MmTpdZM4bfLo2x3DYIHIFyeXo3lSc99HgrUR4E6AMGBv5/xshqEehfypY6GdVpuLEBoaMoas0k1uAmr/aynv6rtscYGKdMXuc41qoXRVX1OOvDVqf7yK+GxxtDvSofSEEC4HNC40nau6H7XHNeAAlWw1qRDrifHtctwXc/m+xPtxz8H/a+ILr/AzQ2OUc6Ju5Vf1V42jrgegFADEP+na+sX4CFPE/97CmgysordjiMOAvxNPw4gXMFYrhYgNKapH78JK0YNRRGvukSpiXPdj5VXgIga0+HfwD11QdmPn4OfgxiqUFIFkQAJboW06lMZuB/UGye/GtXxa4sujeryz3CTIK7waxImMiUbY2M1CFJ7pd7umqNaz9f5XtLb5aToHnt9sR5GGWZd7VCNtkxpVG1LZQn1Pe46EPfPGtI2eXwQfga28rzyJ6WAJi09X8mO67IIBAR44e+vqLyrrzo+CI1ZyJfq5S8BEK6WSop+wF2oqBbOq32z5/n/HQXc1Ufq7zVAsDE28P9d33+LLdfNidhIM0M9Jha5hdXjhyNXsAsgKH4ol0Z6UrC7v1+G97qcFN3auNx73GfLAxB+i7z7+xiTZt68pdLNTqDZoKAAunXrQHh4yM8MEGr8Fa5VMiviw/0ccK321NOvH0eBuhogj0box9Hxap+6cjVNfT4YDQEEd41AYwDCpTQI7m14AMLVzrvn+V8DBTSHD59xWswWzp49i06vpV/fJELq5kH4yTUI1z5A+DVMnqePHgr8HingAQgKqLoSkPJ75BPPmK+eApqsrCKniIkWYUetW7ekVaumv4CJwQMQrn7qPG/wUOD3SQEPQPAAhN8n5//yo9ZkpOc7RZKTyqoqmUEwMNAbf7+f2wfBAxB++an2tOihwG+DAh6A4AEIvw1OvvZHoTlzOte5JXkLLVu1okmTePxkoiQPQLj2p87TQw8Ffp8U8AAED0D4fXL+Lz9qzd69Kc4zqWdo37Ej/v6+BPzYPAhX0HdPmNcVEMtzq4cCHgrUooAHIHgAgmdJ/DIU0CxevN4ZGBRIQrNm6HUaD0D4ZejuacVDAQ8FfiQFPADBAxB+JOt4HrtCCmi2bDngjIiKwuTthciCG+B7+VoMV58HweODcIXz5LndQwEPBVwU8AAED0DwLIZfhgKarKwSmTTYIRMlOQnwMxBwmWJNHoDwy0yOpxUPBTwUuJgCHoDgAQiedfHLUMADEH4ZOnta8VDAQ4GfiAIegOABCD8RK6xW1+AAACAASURBVHlecxkK1AEIDumD4NEgePjGQwEPBa5VCngAggcgXKu8+Vvr1xUABJscu0YnCtxcXeUaTxTDb42NPOPxUOCXo4AHIHgAwi/Hbb/vljRpaQVOB06cGg1aHQT5e2My6bFYzEqpIqcTb5MXep1WqXEoAUL9ZW3EvSUlJaSlpREaEkp0TDRa4flY5/IAhN8303lG76HA1VDAAxA8AOFq+MfzbOMpoFm7dqfT5rBjdzoICQ0mIT4Gq81CRUUFvr4+lJWV420yER4ehsGgR6tTtAeyfGodXYLT4eTEyRPMnz+fxG6JDB06FKPJeA0ChGu9MI8oZ9tw9chrvfeNZz/PnR4KXDkFfisAQS0jrVLgSotJeWoxXDnveJ64MgpoFi1a52zZuhXpmRmUlBTRslVzvH28CAgMwMtkxGZ3UpBfgI+XkZjoSDROO1VmCzq9AZPRgMPuoLysDC9vL6FgoLi4iPKKCoKCgggMDER7UXlVUTq14UIjTqcds9VKWYUFp90mdBvo9HoC/fzQ6xyYzRbKyqpkoRIfHx+8TCY5YqvVSmlpqbxfq9Xh6+sr77HZbBiMxmrNhxYnDpuN4rJyHDY7Wo0WvZc33t4m9FoNDquNkpJSHE4HBm9vfHy8cdqtlFZYsFlt6BxOdDojQcG+sl27wy7BlMViQW/yxtvHG+x2SkqKXWVjFUBlMplkf8VVVlaGzWZFrzfg7++PVrTrcMj3mKuq0GjB5OWDt7c3FrNZ0tjb20ilxYLNocPbS/T1ag09V8Yonrs9FLhWKPC/AAh1x34lwrmhcs/q5+rPKwEI8vhwdZbea2U6Pf24himgmTNvmTMmJoai4mKMRgPBwQE4tQ5sTocEB1p0Ehx4GXW0adkEW2kuO3fuwSc0gU4dO5Jz7hzLVvzA6OuvR6/TsXvPbnLz8khM7EbnTp0x6PWKaaJBIrh/48BmK2R/yinW7jpHqFFDlb2UKpuVO268Hi99EVu37aas1IjT4SAiPIxu3boREBDAsaPH2LxlEyEhoRSXlNC3b18pYFNTU2nXqRO+4RHYNRr8nE6qCgvZsG8P5oIS7JU6rEER9OjdnlgvPcd27uZcQQFWHFi8Q+nSows+znyWbDmB3grhOi0Xcu1MnDSAsAh/ss+d48iRoxQWF1Gi8Saxdx9ifXRs3bSO0uISss+dp3nzFjRr2pS2bduSmZnJmTNnJKAQoKZHjyRatmhGQWEBycnJFBYU4LBaSWjajP6DBrJz505KigoYMLALq7bupIQ4bhjQg3Bfw296f/DsfdfwrnENdK0uSKgrsC8HIi41hLoC/XJtXY4clwMI7s83Cnh4VIiXI7nn+5+IAppPZn/rDA4OpqyslOjoaCIiQqmymxFHVCc6tE49DpuZsBB/EqJDsRen8t28BVQ5Qpk4YTKbNm9g2ZrVvPjyy/Jke/jAIVYsW0bnHt0YO368PDmL/Ari3+UvJ2ZLJos3JbMwuYixfbpRXn6etZtX8fLj93H65CnWr9/BDaPHYLOWcOjAUTp1TqRPn74sX7ac/fv3MXToML5fuIARI0YQFBTI2rXr6N1/AOEJzTH4eNMsPBRtVRUHUlMxF5WSk17BvrQiRtyYhFdZFSu+XcDo8QNxGCrYuC8bo18QPTp68d6ig/Tp0Im2oWHM+mojd9/UlzE39CQ9PZO0tFTM1hK+336czr2HMSGpFdln9nPs+Fnmzl3Dk398gIT4KKkxWLFiJaGhIURGRnDo4Gny88t57rkZnDlzigULFxIbHU1W+lmMXr7c+8D9zJ79KelnDzFqZD/e/mIpYR3H8ae7b6JFmLcECI2h6uXpfm3dIcblAQjX1px4euOhgIcCvz8KaFauTnbGxsaRmZkhQULnLh2xYQeDDi9vP6xVdirLS2jeJAZvowadrYCje/eRvH4PQ/qPYNHaNbRL6srIkSPRaXUUnbvA3M8+J7xZLKNvGo/J60oAgkMChKVbtrL1hJ4HJozGUnSez7/8DzPum8jy5SfJzy/jqT/eBpzjs88WoNEEMXHSZL74/HP8/PyYOHESM99+m6SkHvgHBPCf//wXvVZPkF8IxqBw7rnvbuJig9m2bRe7NyXjLNMTFt2G627sw9G9KexN3sWLr01HYzrP8nXH+WH1bm4Y3YJZCw8QoPMlxt+LMxVe3DNxMAMTW7IreStbNq/DbDvPjoxKhtx4Lw+N6U+gVx779mXx9tureOftPxMUqOfAgYO89dbb0rcjJCSIgnw7aPx5950/sXPXblavXsu4caM5dmgfOflFTL3vXj6Z/QEbtm2gS9vWnC824td6CNPHD6RlmB6NUziXmqTJRlwXWXN+pfzsAQi/0onzdNtDAQ8FflMU0Kxas9XZsmVLTp8+TXZ2NgMH9iMwLJCSygqsNgcGvRf+Xnr8vAzoNCJFshNrYQZzP/qAcmco54orefzJxwkJCZa28qKsXL798ivCmsYycvxYvH180GqgsCCfDRvWk5CQQNeuXaVfwcWXA4sli2Wbk9l6HB6YeCP2wvN89vlspt8/lR07j7IleSsvvfgIVVWn+XruShKaJNK9RxJ/eeEFpkyZQlLPJGbOVABCUGAQP/zwA32TehITHM0HczfQ8/ohXD+6K0W5edjPX8CeU8SOHTto2i8Rb7ODpV/P4/l/vYzBt4D/LtpGaq6Zcf3j+HLZcQZ2T6JTbBirN24lpTKXB+66neUffUqLZnHEN/Vl1qJkOvWawEPjBxFsOs/eA9m8PXMNbwuAEKDnxInjvP/+B/Tq1ZO2bduh1eoJ8A8gJjaWBQs2cOzoCe6/fyIbN60g70Ih0+6bwqzZ/+SduQd59N6bCfczcLw4gntuHEiLsHJS01JI3pLKsKEjiY6OcPl2/Pr50wMQfv1z6BmBhwIeCvz6KaB5/Y0PnP7+AdIZr0WLFrRp05yAID+sIvjRCTqNRv5zOh3ohHOhToPGlse+dcuZ+ckyho+dxG233ozdZmPt+o18+fEnpBw/jt7Xh6EjhvPoY48QGhLCmVMpPPf88wwcMIB7p92LyeRVD/WcWK2lbEjez6ETZdwybiCVJTnMmTOHu+6+E2/fQP793nvs27sXo9GbIYMH0r9/b75fsIDioiKef+EFqcX4YNb7MopCOAUKbUJxQQH+Rm90AdE8/Zc/43SU8dbrb1JVUILJqaFTp7bcfPcdxEVE88XHs1mzeTN2rZGmHTvxh2l3YCvL4V8zPyUn6xy+OhM6bRh/mfksUUE+fP3fj1ixfCkt2zTBHNKC7gOv5+6h3Qg0Wjh4OIVZs+by9//7CwH+isPh5i1b+Prrr8nNzcVo1DN69EiiIuNZsXIj48eNZ8DAJBYu/o6C/ELuuusOZn/1EXuP5/Dis9M4dmg7KRk6JtwwiuiwCo6nHOH225/jvvtmcP/90zwA4de/Hj0j8FDAQwEPBa4ZCmjSMwulglp40et0Wvz9vfH2M7lqMyiO+EIDoHE4pUpbo9OidZahwYJDE4ATRRMgTn2ipoNqE1dCINW/Gg7Zq48SUmXuFO8TGgtxh6K5ED4R8hI3ODTS219+LlTtop9qzgWnE4f6EpHfQaNxqeM18lmN7JZG5n6Qv4lqFOIz8bzLAUh8JOpTOIXWBAUoycfEf67vxONap5IrQhCpTANWIFDc7xqYoKvqeCTbFQ+p7cmQUdmwa1yq8V2+FDlAeYn+lQIWIAgcFpzOQgqKirn9jqcYO24CM2bcd80w1dV2xKNBuFoKep73UMBDAQ8Frp4CmoysEpcUFwLJia+fF75+JinxVWdZuWE7hIAWIYT1JD6qN3GSS8pLQS0QhttzqtG8nv7Lp6TgrgEXNbfV91ltR736nNskWBEgwuXWJ7Qhog0Ro6Her77Z1eurp+zP8AYBwHDaMVkvkHM2nS+/X0lxaRUPPvKoYmL4Gdr8X73S46T4v6K8p10PBTwU8FBAocBFAMHPzyRBgrsbudysXQBBfGF3KKLIdZiuRUtlY1dAwSU3+fqkmQuUNFbQNfT+iz8XznxORLLoSqeOE2eLqHQ4hCum1HqIn+JsbtfU/N0YBmlsPyWhG/PCS94jAA4YnQ7CSs4TaK8kKiqa4OAwTD5etbQ3V93UNfCCSwXGXgPd83TBQwEPBTwU+M1ToB6AUKNBUIWaPM+7AILVJkIRbTjQYHMFMNY+wwv1uKJJrxaKTjel8WVi8+QpuZHSVAmfrH0JNX5daGLX2DFrLVi1DtItAUz9xw6Ky8xSqAozhlUDFgEOGtluPYjo8oxyJWjiorcJmgoYAyZ7Ofp939E31M4n771FYGAwVqcGu1T5KCCivutKh6Zqj9R31f3b/fPLD77mDneNTUO/ixkU/KWk5G44qVY1Fm2oA/U1cCWdbey9l5rbKyV8Y9u8mvvqKuKUzGW131gfA1yqzZ96nO40ravmU/eISzH7law3uSe5HpD+Vlfy8NVMhOdZDwWubQq4AIK6OJz4+XkhtAgX7RcCIDidMnlSpVkABC1WaTZwE/7SdO6QWQiF3V9mUZSLWyw64efgVPwZLhGPp/oFNIZs9e1JCkCofVk1Nsr0lVi1To5ZA7j5rTQoFToDcV3lZtDYjfFHN6OaaqzSd0FjK0G353OGRDj45N+v4+MfjM0pBOqlh9LYbtYV/JeTsTW6JHXXvvTMueNDxavD3VNFmY3qf4JfBMNUv7qOpJCNX2Jkbo25s1zjpqIhSOROaFfblwQI9Um6xnD3pSa0NspuCHPXnTvZExfNlGXpApTVZkAVXCs+PbVIexlaq75Cymjr71F9cl6lxEV9rW5PXdAKAHZjhgaJ2BCeqE3RmnepHKjQpzZH1/Sv5q01M6p8poy2cVzlzrE1JK55gzs319DSbaiXImJj2cpzn4cCjaSA5mTKeafNbsGgN2Dw8iIwwBt/P5MU5O7CQgh3Yce32qDSbHdpEHQuW75izRcA4vz582xJTiYuNk5mUxS1GAQgqKgoZ8nS5USEhzN48AAMBtWNr3ZPHQ6wKYflH3fVAxBsGjvluipsGjhm82GSChDkupSitRrI1GxC7hukA61RbFA2nDY7Oh9fbJU2N5WDG7FqLWD3PxTNSvWuq3hKupwW69tchAemy1lRaA9kP53obHl47fqYQREaZr33Nj4BYdJEIva1hg4+1b1zncjr2fkv2njdt2Lxu9CuKL4cyq3q98qQRMSLS2/jAoT1Tp5rbnROK9bKMkoqrfgFBKPXaCktKsbL3w8vvZ3KykoKS82knz5Dl25dMBhFCmwzRRVWaVIxaDQU5eXhMOoJCAqW6bLdLxVgqD2VoFGr9E9SUZ6Y1ScuhkBSc6HOjWuwqgeLQgB19Fo0ctzqZ+KpuoBFAdaKT49Ex7X7KttyCVTVaVbKwtqEVh9T05S7CyTZA1efpbLOHbZXs5lyj6KVUeml+BWp4S9KP0QfXfep4M2lYaihoDpOd75V3qU49WprDuTuFJEOurXpp/JSNaQQIFie4pVR1JDLJUSlVHUJ5lp4oR7BXksxojxTU+VEFc81c5eff4H09HQSmjQhOChYIYWrL8p+6AJOLgKLXU9cMn27pJXLy6lG8rvm2vWB64f0fFLQiGuuXFBZtqGsJfVSdaTVQ5WHLtd682g76t1mPB/+dBTQLFqy1mkyiIJKGoLCw2nVPI7gQJ9a+5hUxbsAgs2uodLslKmYHRoNDo1Omh9EjgShOcg+l82GDZtISGhKj6QeeMlESVBaVsaihYuJiIxg6NDBrhTMFw9ELldXUMFPMkwpl53YxaLCySGHjhveFhoEswv6u2Iv5JrUKhJEeivoXMoR8YIqOjTxoUNcMDqnBpvOwLe7sqFK3fBdC1oN+VAXuPgpNzOXt4N8t6uIghT+deWJm1AQm7hSQBPsNnAaZZSF1n4Wn53v0z9Ux3v/fp+AoHAl2uIyAEFuXy6AIIW56xkRBSL+iflVYi8UrY8iOJAxKnatQhEhIPQCwYl5d58cuXe7VLPVNSLqCEIXuBCbqVdlDns2LGbRthQmTbmXQIeOOR9/Rr8JNzKoUxjr1q8mtdCHwpQ0WnRoS5/+7Uk7touvVu7m0adeINLbl3f/8iJ+rZtx+/T78DbWDplVtnyxaSuARgKb6s3eid3ttFeT075mMmpUzC5B5Nr8lSELAWbH6RRv1SnvrwMa6gIwoVUTgkbhtLoAQYkSqr4k+RVhowLKanBS7d2j3i0icZxyHWqFtkUJ7nEJHWXu5NSIV7nmW0T3KDn/lfsU0CB6plWifVydUSODFG2fS/jKH5KqtbQEgn8UisuVBhrRsssBWH6lSGqlL66IJLlGaoBdDUCwyz4oAMFVQdbFX+p6UXm3xsVYjE+s75rLHWC4A+fagEO9X3n25IkTbNu2jd59etOqZSt0Op2cL7E0xByLA5IKMRTti4joEnDItcJdEU+qxlS83R3YqVVsVaDtPgdyOuQHyspSoYPMQesCjGLdCo2ai7PlfNWep59kx/S8xEOBmu1o4+Y9zqjwcM7n5nGhuJSe3TsSGxVSywwgHfkcoHOA8EEorbThkIJFLAwdVpsVq60SvdYgixCJYkteJh+8vbzlGhdOjaLIUkV5hUy97Ofvd0kzw086P/Lw5kr17IR9Tg2j3k1DX2nHoM3FZi7FYY/ArhWRG8IRoRIDBXIDtGsDcOADzkqiTUX4h4XgMPjgV36Bg4XeaHV6IgKUjbW0sgqnw0aV2YHF7oeWMpxOHWj90BotOB0anFVVaJ02HAZ/JWRTRoRopMokwGQhLkCLTqshr6yEfJsvVqsBrZcJdAYcpZVSkBut6fjvfJfeYRr+9fb7+AREoDeYFCmjypRaJyslFFNDKZUVeWRmlmGxaAgLCyc01I/SsjQcdh+yskrlhhgWHk5kZDgWeym5589SWQIJTVpQWl6OSMldWVZO1vkc/AIDZUZIkfDKx8eE3eagqLic0NDAS6Z01DqdmIrz+OGr2SzesZsZ0+/GVlbFF9+uoM/oYdwyritnTp9i/bYczh49wYTbbqVdkyhWz/mCb7fsYuKYofTu2IHZc1ZQZTLy+NNP4SMKhbkLB+F0arVy+uxZYqJi8PPyVvJOmIwEhwZjsdk4c+Y0VouVoOAQoqNjMJsrJEgyGIw4nZUYjSVkZZURHNwEH28fWQgsLy+PKnMlERFh+PsHkpmZTZP4eLy9DVRWllNaUkZgYJArx4cq8sRpT9n0i0tKycw6h82lIgsOCUbUQRGRQfkX8qXmRNTnCI8Iw8/PVQzMLvqaSpMmTaisKMfX14/KStFXBwGiGJorqkgUNsvNzSH3wgUZ4mvU6YmPjiYkOFgKkfyCAjIzs2TRsqjoWEJDgyktK6a0pBRvb18uXDDTJD4Sg0nRXImy7efO5RAcHERYaKgsgJaTm0debpbC10JPoFX4SKRnF1rIwsJiuY+EhoZKmgoKVJaXc+7cOVl7RLxLJC/z9jFRVlpGRkYmNpsDf79wYmOiMFsqsdkgMNBHLo209Az0ei3hEREUFpbgbTTKInJVFisVlVWEB/q7hKkCqARYEqwvaFNVVYWXl7dcM3l5BaJ+GpGRYS6TlQoG1Tmyk5Z2lr///R9kZWcRFxfHnXf+gaQePeTOIeY1ODiQspISSktLCI+MRKvTcj4nj+L8Qpx2J9FNW+AfaJN8pNOEYjAYah0Azp7NlWNt2SISS2UV5go7wcHeaLQ28vPzyDmfg8PhT3RME8JCobCogLIKM2ER0VgsNrKyc4iPj8VkMpCTe57wsEgZli4KywmeFXlsPJeHAj81BTRbtx9wxsVEk5aRRdq5XAb07kZ8TFg9AMEpTymnz5zi+0VLadexEz17deX0mRxe/ev/Mf2B+zBodXz6wUy5mU6Z+iBDR4zCaDSxd99e/vnP12Uyo/umT2fs2LHo682k+FMPr0YlroKEvQ4NE7/O54GOQfj42tH5O0jLsrN0ex4XSvIICDXx0Pi2GPROMgrsfLsqR54S7+kXzqGUcxzOKOLViR1ZlO1gz8ki7hgYTmyABh8T5Jc72ZpqZ+2+Aqb1DOPA0SyO5Yp74sh0GNi++zyju0Ww7JSV7IwCYnq1ok+EjQXfn2RoZ3/uHZ1Agd1JMQ52psOSRae5ITGSikA9mzadZVifSDr4VrH6n88Qqy9g6n2P8Nd/fcCrr/2Drl27KGr+mqNYDQrUlGM257Fh/Vq+/Gol5WU2xo27iTFjRvD1128xf/4a/PzE5mlh4ICRPP7A/eTlneb9j2Zx6EAGFgv4+vsy6/0POHHiGB/85yNKigvxNWq46ZbbuX7ccLZu3czRo+d46KEH3dqtfVoWO6beCcbCMlZ++x2r9m9n4piBFOfncjg1m1Zd+zBsZBJLv1/IzuSTlNrttOvcialjJ5C8YDEl/iZspRk0iwzE7hNG8sEUHnrsCXzrAAStA7JPn+WuGdN5+o9P0qlNO9784D1at2/HpMmTZEnyt96aSVFRMR07JnLPPdM5eXKvFJhBQcEc2L+DSTdfx7vvfsldd80gNjaMWbNms2nTWixWCxMn3sqI4QP5859f5tWX/kHnzu05dOgg27dvZ9So0cTHJ0g1u5qjw+G0UV6Ry6ezv2DhwjV4eftQVFxE3959eOGFF2RxMZEqfPuOHQQFBjJp8kSGDxsqz5Fvvz2TDRs2SmEQFxfLiy++JNsSlT9HjBgpwYtWqwDwr7/+kkWLF2O12hBA7I7bbmPyxMmUl5fx5VdfsnLVMowmJ8NHTmHKlEmsWbuYWbPmSABht5sY0P86nv3TdJxOK+vXbeSzLz6jsqKQG2+cwPjxt7Jq9UrmzPmAwkIzVVVa4uPiGD92HJPG3MCO3duZ/fWXlOZl0aHbIB575nmCAgzs3bubWbNmkZmRIYu5vfDcn+mZ1J2VK5fz+eefU15eiEYTyz13P4R/gIXX3/iIV195gS6dm/PwI48SFhbGQw8/zIKFC2jVrCkDe3Xh+Zdeo0NiP+675y5JI1VrohoZKiormTd3Hj179qJJk1DeeWcmZrMXM2bMkOBXuVxaEE2FBD3/euMD2rdrL4GR3W6nMP8CU6dMYt/x0xRZHNw9djhzl6xmz54jPP/Yw/j6aXj1vY/YlbwZSgoJb96b19+cwe7dOyjID+Cm8TfKarfi9G+z27hn6pOYKy18+P7rHNy3lTnfrGXq1Jvp3CmBhQuWsGTpXMrLjFx//QT+8IfrWbp8EfsOHGHafQ+SnpnNq3/9BzPf+j9MJicffvgpf/rT0xw5cozFi1dy6y230rNnkpvp6KffRz1v/H1SQPPue586Y6MiKSuvxKLRMWRQL5rGRdYDEEQmRQul5Rl8M28RRaU2xo8fwKq1Bzl6NIdnn3kGX18d9pwjzP36G3wSujNkzHi8TF4yA6PIIiiyIEZHRTF58mQFYf+Sl0sNesCuYercXJ7vF8LaI3ksP3SEwYmBpJZEUV54kvFDevDhRgv64lJ6JUURrytn1f5inusZR9aZU/iFhTGhSwSvnKzim1XpGLRV9GvrQ6f4CBbvSCetQIvRy4s3Bjcj62QKZUEabunbkq9Sylm+5xw39Yxi2Uk7GZn59O6RwLAQKy8uOMLwzpF0ax/H7E25nM81g9MXHLnc3U9LeWQ8OacLmTEgntyzKXz65tNEaUp45blX2XbgLIMGDycyMqoONVV7qR2t7jS79x5k4cJDTJs2nYSEOKnCtVmtzPpwljzx3333OFLPbmfBvC1Mn3ATWWmp7EzJZczYSRSWFPPuB+/xj7//jfDgICmMjPZSti6by/aU89x2/03s3b+FPbtKeOyxJ6VqWPi0CG1Rtb1YnMXEyVaYLQrL2bD0B3Zmp+ETFkSI4wK+tiKqAtozbMytFKdn4Oews3T3Vjr3601TnwCSl6zAq0UTDqWewtecxy39WvD+kp1MfeI5QoODanlo+lidHPxhLc+//SbXDx9GfFgon/ywhB4D+nHddYOlwHr88ceJCI9iwcJN5OVVcP/0UXy/4GuysrLJzS3CYtMx5c476NuvJZlZu1m18jC9+7QnOXkzDnswt9zan08/Xoqvd1Nuu2USGzZslvS//vrRmIxedTRkNkpKD/Ht/MX4+rVh4qRbWLxkCfv27eOJJx7n0UcfY+DAgdw3ber/Z+88wKsusv7/uS29ASmkQhJaQm+hF+m9FxsqYNdVV9/33V1d/4q6xVWxrKuuDRUQRHpHeu+9pwEJJYRU0m6//2fmd3+5NyFAUHBdvfd50OTmV2bOzJzznTPnfA/p6RmsXLmKTikdadk8mW9mzmTgwAESIMyY8ZUE2IcOHqSwsIj+/fvLiqXePj6ypLmocGo1W3BYrWzcsEFWOL3n3nv44osvsNtsvPb6C1wtFXTfe2iWHInFcpFTJ72ZMGEYWm0Jb775V1588c+EhtbhzNlsIurXIzVtG999t4bJD71Aq1aN0erTWLJ4D6mni3n22efw1es4umET8xcvYvyj99MmxsBfP/yBwPgO3H9PL/bu2y0p3Dt36sTCBfPp3iWFpCbxvPbaK9x33yTq19ewfPlhIsLboNcXsmXLBoqKShkwYAh79uyisPgqTz75JD+sWUNkeB20Vw6xdvMuOo98gkcefli624XnQDmYUVzuFeUVfPPNTLp07UZ6xlr+9dG79Og6id8//wcJwJSzDufxkfYCGzYuY+0PGUwYfx979+6hdevW7Nu5hQGtwtlzuZxsghkWZeXZd2fTOrk/bz3yAA79ed5YvImJQ/oSkJvK27MO8OJr97NjxxZyLvozbuxIWR3Xy8fI1atp3HPvm/To2oeQIAfGsnyuFvnRp08nWrZIJi/PSnyCgcLCC3zwz39x9933ceDAAQ4eOkL7lM5czi1g69adPPnUaOLiAvnggwVMnTqBhQuXkJ1dwdNPP0eXzinSq1H7T3XwXvs7PVf+diSgOXbirEO4J4W7LO9qCV07tSE2siYPgg2dzGKws3PPIdatWsTgrk1ZvTOVzv1Gy4BEncaMPfcky+nliwAAIABJREFUc2d9S0BcO/oNH6sEKQIWs1XWIahfvz5jx47FYFAYGMXuShgqjUYvvQq1Knd6y+Mj3I9KSuMRm4ZJ83J5JMWbJRsPkZqdS9/WdalbpzX6K+cZOSCJNHOFrEPhi5b9GeVsPWnm1U6R+DjKOGfTYTHZOeTlxZKV59BrTXRq4kuLuPqs3JtFdpEOg5c37/aLxJ8yLgb74rDkc7ikDrv3XeKxXpEEh3pRYrISG+LD+WwTL847Tr9WEbSTAOEyObllYNehtefxaLdA2rdoRvoVK1ovC4HFWSx690/U01n44L2P8Q0Kw1vvo7ia3Q9hnc5XcSas0Z1h3oJFXMrzl7TM4lpxqdVawocf/pmlSzcTFZWIl5eDTh16MnnCOMxlxXw6czaHj52gorwc4aOdMWOGPBr5/MsvOHn0AHUC/enRfzD9Brdmy9Y1/OWNBTSIS5RKumnTZkyZMlnuMtWPmAdiDplKyli/5gdyS6+i0WtpHeuH9Uomx/IMjL53KvUCg3CYLRSaKvAOCsBcVs782XNo3qY1BSVFXM06yuBOsbw7axNTf/8KEeERVWaE1m5j16YNfLfgI+IbNib71DmSGtTFERhJcvtuvD39bQlehGvWZPKnXfvu/O8L97J58zo+/OhjUlMz6NWrF3/921v4BwrK7LXM/34T908ayZbNm7FZI7jn7nsoKChh/ryZjB3bky2bT9Gt20CaNmmMzilfV6OsFJUcdgKEJMZJgLCcQ4cO8eyzzzBy5CimT59Ou3ZtpFdj6ZIlxMaE0bpVCz788COmTJ4iXeMCIDz6yCPs2LGNb+fMld45i81Octs2/OnFF9GUmvji7ffYm3YSr3oh9Ovfnz533cXzz/9egomJ44eA+Swrll3k8uXThNS5ytdfbSEgIARfXy0dOrRj0qT7ZbPnfPc9u/dsprA4DZs1mDde+5A2bZPQ6lJZtHA3p08X8uwzT+DjU8rXn81k1qwl1AkLI8hHR1GpjbET7mXcuOGs37CRy7m59OvXl++/n0fXLh1p3yGB1WuWM2PGAtAUYDKGM2H8C1itWfgFFLJzRyZZp4t4+3+H8f7MRUyc8gxbt2zhwqUsmjXUcjotm+T2o5g8dTKCjFTEAYiPjO9wOCivKOPrr7+SAa0rV35IXMMIgvzb8txz/4eXAK2VQaXCy3OJtWsXs2PHBYYPG8O+ffto1aoVh/Zu567mddh7xcjaCw6KzpwgJiGAWEMILwy9n7KKM0xbtJGHJ44k5Eo6b8/ex5+mTWLdujV8/c1e6gSHYjSa6duvKUOHteb533/FC79/kI8/+QvJyd1olNCbkBAdjRuHMnPWXDIzj8tAbr3Oi+ef/wNHj1/g8uVULl44QVRUS/Lzi2nZKoy2bRN48+/f0TGlgywd77DrGD9uPJ06d1Lq5EhdqpWVY6//8YCDWzYhv9EbNEeOZTjEriMr+zxeAUF0bJtEvRD/ah4EBzZBxSx2nTYt+UVX+O7bz7iak0eRxZunXvgTQYHelBZnUph2mMVL1uIT2YYBw0YSGePP1ZKr5OVamDVzDmFhoYwePYrw8HAMXnry89PZvmMzoXUb0659JyVu4Q58FIAAR6wOHpqXy7OdDWzds5MzeYUkJzTgZE59fBwwtFs0O7btpri4FKvDj0sV/miDwnmjXxQB9Qx8tOkMsSEG8kJDWbM6G42thLZxGto3jmPN4ctkFWgxeBt4p08odev688WxbMKDi6jwb8SBPZe4u2Mk6w6f58iZy4zo0ppWsd68sfAYfVpF0CY5lpmbL3H5SiE4vMFewMPdAunZNpm5O/MxGiroFlLGqvf+TD29kRdfepVjxzPp2aOPzA6pEhyn6gAZIFfI+g2bWL/pEOPGT5BVL4ODg/APcPDZZy9hLA9k7LgnyLl0iXU//MCwXh3x0trZtPcIw0eNkefHH7z3Pn97/Q2CdN7kFOZj1MLxUydl8azHnhjOydMH2bzhPA8/8jh5eQWsW7+OFs1bMHz4MOlFUOIglCMf4cZdvnw5Xr7ejB01imBbHge3LGffBRtj75uKQadkuMjzZKCsvJw5386hbdvWtGnbhjqaq1xO28Jbn65k8rMvExcbW2XGiLm6fsNaUk/tplfP3uRlZRGuKWXv6QpaduvN+g1L6N+/LyIGQKf1JTgomPyCXObMnY3V4iPPu222NNq1703fvoNZv2Exu3cf5LHHx7FmzWo0xPDw1CcJCnIwd+4X2O1aysoMTJnypDz3roKI5C8WikuP8P385fgHNGPsuAmy/4cOHebZZ3/HS39+WdYO6dmrh4xFOH70EC2SI6RLevGi9bz44suYTRZmfDWDRx59iIMHN5GddYXu3QdSePUq0978Gz8sWIj1aim5BQWU6hxs2rWTHTt28PTjj7N9xRrKrRZG3zsKe9kV1v+QRXLzMMrKT3Dk8BUGDx6Nj48XH330EffcM5Hg4GDmL1zM8JH9KSo6xcqVe3jwwd9LD4JGl8rihbtJSy3mud//Dm9DORtXLGTvgWN0GzCG0LBotFp/IusEYSlMZ87y3fiEhDBoYE++nTObHp1TaN4ijr/+7Q1at+pC376tWbp0PwH+zdDp8ggLB2/vCM4eO8PEXmG8+t5Mho29j20bVnP2ShFPPTKcpcvWEhKdwkNTpjj9Bu7D76C8PI9PPplOauoVpkwdwJkzpzlzRsuzz7wgPS6umSV23KWcTj3KjBmLaNe2I+eyzhERHk7+5Wzu75/MmhMXeeuHk4wfM4LEhkZydm7ikZ53c+RYJgtOX+Dph4aizzrK23MO8MdXH5RHbelpNgYPEu/NYfGSf/PoY0NZsjidJ5+4nyOHtxEaGk3eFSMGg51z506QnZ3F3XdPpKDAxrKlqxk9ZgipqUWEhfmg1xcREd6QDRu3UKeuhbZtEpk27Rs6pfSgfYd2bN++nf79+5GSkoI4nNy7dzMmYwDduvaWAPjaXcM1u4g7oG09j/y1SECWexb7Sb2XN+FRcUSGBxESKHgQXChT7LxdAEFDhbmYnfu2s3XrSXr0uIv27TtgtZaRkbqVtP17OHO2EItfNG3btSOlazxpGRkcPXyZzMyz+Pr40K59O6kQg4MDyMrey8xZM2gQm8LIkRMIDAysddliN26Tm4+HM4DviE0AhCu81NWHtKwTpJZYKTH7c+ycgSKLP62SQmjgp8VsMmMy+5J5wUhRRRkjkwPJMcKWtEu0iPKmLLgepw7lobGV0SDMQYPIUI6dLSK/TItOr2NCSx/KTRpWZRSRlCAYjsI5l15Em8Z1OJxtpTCvjNhGobSoY2P1riyaNAghNiaUPScKuHq1CBwiOLKMzs10hNaLZcuhfMLrG2gWUETqt28Q51MmXYtLl2xgytTHiE9IqNQFVbwwTsMsjLJwXV8tLpYGoFmzZjRpGsv6DXM4eeIS0dHN5e6jbmAAA7u24sSxw1y1+9G5Ww8KCotYvmIl944bR8X5i+w8eIASvRaLzUZE/fp07dGUtPTjrFl9lJiYBthsVule7dSpEw0bNnSrRaHE8JeWlrJj105CgoLo3KEj/vZizpw6wOl86NKjj0xbrIzwBnmksW3bduLjG9AgviEBGiNXLxxl/srd3DV0HJFRUVXGX2TT7Ni1m4qSEgkEvKggL+M4+04ZSWrXmrSM/Zw7ewatXiuzbJo2aUppaRlXruRRr04iFy9cpl07WLJoJcEhCRw9kkFYWB3iEwLJyEjn0kUzzzzzHEnJ/vywdiVz5h3k+Rf+l6TkJFf2WuXyEX22UV6Rxa7dB/D2jqJT5y4cOLCfs2fPMWzYEBmsJ8ZGBPeJY4IEUR002sDO7bsJDExg4IDBXC0pZfPmzfTt24209J3s33cKf/8oGRBsdVh5/qGppJ0+xYbjh7HYbRKERUZG0r/XXfgUlTJ3ySIM9ULQOzQEBcbRq3cLTp8Wa/g4wcFhMj5A/Bs+cgRlpaWsXLUGrd6Kt28ZV69qGDRwHLFx4Wi1F9izO4OLl4wMHTJUVIXHUXyGTVs3kVlkR6v1Q6uvT4/2LTDl7GZ/ppnWnbsSExPMps2baNG4EfXqBDFn7hwmjJ+In7+FPXvS8fGORqcrJyjYH1Fd1l9rRlNyliVrdtOiRTJnTuzH5B1Gv+6tWbduE/q6idzVp5+SZVAJjZUsA7M5jyVLZ+Lr25AB/VPYv38Ply45GDhwsAysrf4xGivYvn0He/ftJSfnsgzK7NmlI306xrP+YCqrT+bx4EN3U1xwjIKTu2kXnsShI0XYY+Lp1SkeY9ZxFm3PZvT4nhw/foTde85TJyRMBhcGBZtp374h27aeY8K40fj7ikDuMk6fOiHHWgRT7t+/X5amt1lCsNn0dO/RguysYiKjIkhuHi0zQ7Zv3wUUERsbxpIlu+WmQFTQFWXiW7VqSeNGiVjt5/n4k9fZuT2Xjz/6mpCQEFcQVpVOe0DCzQ2G5wohAU1q+kWHrNhoMGDXeRESYKgBINix2cURgxarTUe5yUa52USZ0SIRueLOcmCqKMFUXi5zgu0aPd5eXvj5e2M0m6iosGC3KSlWXgaDLAMtIpRtNiNlZSKC3g8/P3+FXOlG5Dc/etwUhHDYDnfPv8wjnQJYvSOdIxeFr11EEokjDx3odWBQOQh0YHGAzYJer5HlrMU/9MKv6QUWkY/pTO8QLn6byDNTUrq0Bit2Ga1uAL1I/XJeL45WrM7r9M5URpMFRNCmVqeki9hFySdnjqPOqqSNWY2iYhTe1kJ89n5Ah7pW/vHme/h4BRMQGHzDmA41vayiwiiD20QamQBqwjhWGEswirFxiAwKLX4+ory3FyajUaawCje2AIcVRqMMBrSZjJSUl0taao1Oj7+/PwYvLWaLidISS2VevTgT9xelvoVcZOqeorylZ8DuwGgyyrH28/ZG77BjsZow2rR4+/g6s+Jc+XoCCJpMJnkEpdXr0IkZZjVSWm7Bxy8AjRizaucr4vnY7fj6+sh32y1mjGYRH+Ilj7VEZLpMP9Rq8PHxkbeLuanXeWO1WPH1sVFemsma1WvR6+Po1as3doeZwoJC5i9YSv9+/Yiob2HJ8kUUlYbx++efxyDbce1HSZu0Yjaa0Yp14e0lAagIhpM7Wg0yql9kXggjLSLStRoR2FiOl7e/vF5MM6PJhLe3HoulgvJyM3ZndJ6oWhrg6yuNTXFFuTzikbL188dXyld4YcooNVag0+pl1oKPj05mDZQJRlF5Pc7vfeR4l5WVYbaaMBg06HRe+Pj4yzgIMGEy2bDZNFK24qNzWGXwZolok1gDGj2BAX44LGWY7SLLxR+NVoy5CS+DXqZEl5SVEuAvsplEgKXwcon1JwrG6dDrdWjFz3YzpRUW9F4G7FYLGtEOgwZjuRGHzkt6G12zSpG7MsOslJeL6H5fDAatnDs2m1Zer6RxVuVaFfeIa44cOSoDTTulpNCmdSv8vLWUmy2U2bRSj9ltJjQ2EwaHDjG9NGINeWnRWk2UGsHPz4DFKrK1rFKmYsz8/A0I9WiqECR0CjgRuRYi80usA3F0VF4usjes6PU+GPTeGLx0MitIyFtwgAi5mISOEDljOi0mow1fP385ziazkKmXlFle3im++vo9Ll3U8eqrfycwINDJ5eABBD/abPzGb9RkXygUGewSiVs1eoID9IRIJkV3D0JVgFBmFEtQhgc5xeeMnhf2Us2hd8YBSdeyrIqo5Da7bayq4QA18/dWRqR2Z2mVRZqAwzYYM/sKd0UFcOBkLjlF5VULSUl+Avcsf3fA4uyvuEYCASXfW81ddrXc2VFXar3LfqnkR1IoEqO5ASIlH13hI1CIoBWNIiysYCKwojPn43vwEzqF2pn+9j+pWy/cmXN+fVmob1CoF9yVhZryoPxf5QRwJ0OSFTUlYY1KMaNUw1QVsySSURWzW39VLgHXPKqqytU8f5mT71TYynvVrH8XQHApflfmmMz/lpeofajaL5EjL+enk+Cpcu7VqCsV7gf1JFthERT/KefSxYvodYGER0RIhSyOW86eOydT2w4d2U5pyVV69xlFQkKCMs9rRggK90ANJF7Xm+3Ks1RyC2fwmVxDAnRWHWuFgElJZ5Wyco6D+1XyiE2Ub7/eDHCKUW2/MlouvnTXs9zIgpxERgo/gGtOyCRIoVWcfVBnjkrr4Sqa5s7HoLTdnafAJrkHnGOscdISuS0t8Xylz5XnaZXidGmmShoGNwBx7RZEGPSLFy9x6tRpmjVrKr0vksXTmTop4hwUvgd1vrv6LDk2nGQT7nrTnU9D3uXUgeoykf93a7pz+st3Vsq7co67VoEKb9znmnj99m0bOXL0IN269Sc5OVmCBpc8PSDhViyL51rneqwECILPX6sjOMBA8DUAQRwxOGQMgjBgVsF2WLkCVcPuzMNX6VuddC8i3UouKieTXNWlXKmGKoFGbQemqrm50V1uqk3j4LIDVqeZCUZPmcmCyS4Mrwps1HNyJwlUtb2GeoauKg2n6VTKRTu1m+ruFO1TWA6Eg1lZ3Cq1sMQXTuWp7DndlY4wJFolMlujMEZJnkonwYzeZsY/7zRRvnY6pXSQQVeCu+hGy1+VQK3glBrw5UQJKtGQqp4ko6LzZeJn13iq5T9v1JKqf1P3cirgEPNLGrLrGFrVbss9lXutjyqqXxlM+Swn75WLPa+meeJuSm42+9RZ58BoNJGfny89ACF1BE+AEvhZM5ulc6bcAkBQ4u3c5eXssGr93fvsdh6jykY1QrIcudvAK3P15jNB5RSoem0Vk+QCt+rL1DnvNNqSrEoaO2cMSuW8V+VcBcJU0QHiEeq96lvVqqwqJJAkX846L8rI3GwV3NhICg6XCqMJHxHAKlIUKxkSJSWWTB1VQIKky3KNgDuQqZxC1S2/imVVQFt9GNwQWpXhqc38VBZMQUG+9ErUC63n3ODV3N8fVXPmZkvD8/dfpQSkB0Fh5BILUkNQgBdB1wAEhexILBA1Qlvd60ojJhem073qUHi+FOY0xSiqm2bhx1SVvNMuOosQCS2msvi5ONdlXYaqG8kqg6C+uTYjo645cY9F1JVQOHcrudwq2ywpa+3y1EEhkHbte1xUw3ZsGqW9QuEKl7di5BVmOycPnpOGV+s0eE55OBW8fL1GVLQQPwhAoJpgmUEv/yZcihqHDps4kxfK17neNXYb4nRC7BAUZeXit3Mn0a1UpGp5aydPgqJUlR24k2y38vmiz2pAp7hK7DgVTahI0N0wK94FlSq4+i5OVYQuRepu4CuPHSp1mEo4LKyooPKWBwlKu5w1NxXmOmGIFcDpNMmVAEuCMPk8V7qXNHRynJWrq9pGRcYur41rJrl6o5gd1cshJ45zJ+nyOaieDZdmdzMDlT6O6q9Xuq7Kt1rTKkGS8szqwLq6k1zdc954FNzeV+WpziF2a49r1BQY5/pUBxjuh0fqmLhaXGnebmrnVGnUAF4q6ZnlynA2RZWL6z51fCtbJL1MSvtd8rrWaCo01aqr0wkzKsGqmH0aqd2Umaf23z2lsFIbOtvmhpgqBVfTdzVoLvfmVTJ0ii/Vujc313buc8/l13GNsbt/9OZP81zxW5aAJut8oUOeLQqAgINACRDc87gVgy/OJcUC0Wl1Cle44n2r+pEzU1AuK/c4tFplYcnzOCfBrZPyVoUP4hZJ4yyWsWiHOIN3Lgy7eJfTRNegNqrS/d5gFOWzq+gV4TUQC070252wXWzFFbBjl9StimGWy9/JZSxcvBZRx1JrQK/ROw2oSmGoNsJdeagGSAU7VRWhsvNxmjTZFkUWUg0Jgy5dtao73al4ndS9TjOPzWlCxe+SXlcqN+U9Cu4Q55ci1ElRc5XuUkHTK3dJWhlfUlm0xo1KubpacveQKO12c4dWFp1W71KVoqJWzYKy1gZeOhfQUL0qoplS4o4KabRNdi/Sz+dytbCQtkkJ+HgJGYiUWTEn9MqYON/t4sFX6IbFuAmA58qFEN9XckA7B6kmNemWKiq9NyKWRrRLSEjIRzkmUARb0/1OY1oVU0mjouw4FbipfpQnKCMgeqOTriDJ6+ukDpYn8ZUwVb1aHDWJ9ig9VGaQCnUV7FJlVlVbGWq75bmfsy/qU5S2CBkr7XTOzCq2zUlD7gYaVJEol4m6ogqsc/9e+a36KlYIvOU/p3WXR5HV1YrDgkbG5YhYJzFGGqlbxNiU5ueQceoUSS3boQkKki51sffXOuuX2LRaLOgQhO816RDZSycAUSic1fUp/iLAsmuGqvdXh0y33YBUxUC34fFV56oHINwGkf5GHqE5cCjNIYLVvLy8ZOS5UqypOkAQRwzCDAmAoHcCBDdlqQpL1GI4mca8OXNp2KYFA4cOUYKwrHauXrzMOx+9T6PmzZg4YaKSj+zQUHYhl7ff/DtxbVrw0OTJimvMuUuTdR5uABBUFXazsbqeYqhyn5srVqxPlxoVfzBRWnqe5St+4NvZy3BotPzxTy/SvUs3pwfATRVWlrZ2fucqeuBUfM7CPXLX4lLD7lH74jhBeBAUgKAofOFuVdS+a0ep7otqBxCKyMvLY+eOSyTGx5PcIt5ZBMC940qdBfEK1YV67f5RPVhxRQtUlX/N0hbyNIkzcAEQhOtfLUnhtiNUAYIAYWfO5/HJ13NIbtyYu0cPwcdbzAXFo6MCBKG6nWz90szWtE9Ux9Ed6Lh2x5UQytkFtT6GeLKIsnGCSBUkql6cyiANl4F1HfKoT1cZ81UTeK1clHmm1AgRvdKKyE/xkwQIioNb9EqvFj9yenxUr5wT/SlnKc54ARUaXN+IuaxPFZMt15w67i4gU5kpVAmKqoIg1ba72zS1p+6G/vqzotrzxMqTANUFFLQOC1ZJw6xBp/GWwZ0Gfx8ZcJifc56vPp1Ni5bd6DmsqwxK9JKeJKXA2U8FCDWlVN1xgHAzhXbLf78WElQHYbf8SM8NvwkJaL78ap5DRNAGBgaRkNCQxo3iCAl2r5Ug1JQIUlR2UTqN6qpVjZfLSyqioK6cy2KtYD1rkkjXbt0VNj27ndL8QmbN+5bY+IYMHDAAveQq11JxpYCZM2YQ0TSRYSNGyCMMtXKhXb5LUVa1MvI3HTJ3lVh9R+MywO5/0SDAwQWWLV9A7hUjAwfcTb16UZLjQMYwVe601N26crxyTWnaytgM9c/KybjqRlfOnJVnqK7zStpkGWCmHAZUJZJSdkUKdFPuVQLE3DwI0mKYsdoKOXn6JBs3nKNJk+Z0794af39D5eZNHotIz4RydKIqkOrcbC6HeyUqrL7fc5sQLgMs/CjCgyABQnUPgtMjJfvnqMBkNrNq3Vb2HT3N4w9PIbpekBJy6AxodDj0ysGAGrjmZNCTgNG541MPhtxbqSr2688ldfcorlCMs/vMq24YFOOp1CSppLmuPAt3SlAOjIghqXkSKyBAeAREYRMFkCgAQYW/zuORSkeX80FOb5MyUM6YFacDXPnm5mvG3airhYQqB9PZN5chUYP0VCylgiPnkaLbLFDlpJglZ43IGnfFqj/KPehE8aKJ+1SQIADCoX272b/rMGEhDSguL2HUvcNlVoDGbubowZMsX7GTUZPGkBhfHy/phVMyjMTxnBUdSjm6mj838iD8WgHCTVWl5wKPBMSaWbdhl0Pkqp87l8WlSxfo0a0jMTGigIxrOSk8CDbpmhapjCJfPKhOKCFBwVQYKzhx/AQNGjaQ7rm01DS5M01MSJDkPaLIS17+FY4eP4ZGq6VJo0ZEOmmB8/MLOJ2aitFsJrlZM8Lr11cqyjlLG99+gKCMuUgHy80tIDS0nizsIorYhIaKVEEdJ0+eoqSkFK1WT93wKJokxZCRto2vZi6nTmAsYXXjKCjScu/4LtSPrCvZ3cpKzRQUXMXfP5jkpMb4B/hiNlklZ35x8VVCQ+vTuHEiGq1dFq4R7w0IMHAuJ5dis46EyDpcyi3ExzeAyLqB5OblYi8zUq9OBEcys+jcpqkEWWajleK8YvyCfGTaVXrqac7lXMInIISk5GSCgwJrBAgOu4m9e3eyfM06zpwrITCwPt17dabXXe1xmMspKCqiWZNErpbkkZlVTKP4BAJ89JzPyiI7K0vyIwQFBdG6VWuZLicqc0ZHRVXW0xA7/szMdC5fLqZLl3YUFxeTlpZJRERdzGYHYaHhBAQHYRaZ3LmFmCpKiY2LVsCgagfV/AWHkezsi7z53meMv/9uOrdrg5fDSv6VHE5npCspbhhkEZtWLZPkTlHQDqelpVNaWkKd+jE0TW6C3m7i3IUCQoICCPI1kJZ+kcBAP+JiQmVK3r69pzGaRCqcgYYN4olrECXnxYkTJ8gvvIpXYD26d2opSpFRXl5Ketol8q7kYdfpiG4YT2JMHc7l5EuK4+i6vpw9ky9TFxs1big9NQF+fgQH+5J94TwXC620aJIoc+CrGymHw8rZM6lknMmWxy/CXxASGUWTxAb4ems5kZFG9oUL6LX+MjK9flgwWquNM+cucS4rC43VhL5uJB3bNZFFf/JKHCTFR1dWchRPPHfuHJmZmThsNny0OiIaJJCQEIPDbibrQi6Z585htGho0qQZcdH1sF7Nl2u6sEzIWqzlJBrExaAzaCgsyOPAgYPodN7ExcXL55zLOkvm2bNYLcquXav1kvUoEhJjKSkpI+10muSZiI2NJz4+RhIElVeUc3D/acorStH7+JLYqBExEaGYTUYOHtpPWWk5oRFRNBfcEpYKzp/LIC01i/JSAxovL5I6NKNJgwg0DhPFhbnMnvUdVv96PDjpAYK8DR4PQhXz5jlU8Fj7HycBza49xxzCZSfIWoqLC+jWtSPNmopSp669owsg2MjPTWX58tXExrWiZ8/eHD16mA8++Cd//OMfZb7yymXLSU9NY9DgQQwYNFAeJWSeyWTBooWcPn2KwYMGM2L4CLQ6HWfPnGHtD+skb/zE++5l1MiRSiqYGiksd4O304OgCOnixVyWL9tJj54dOHfuDN9/v4ylGkUNAAAgAElEQVS77x5Cs2bx/PDDalkVz2yBfIs39zw4nqKcA7z56Qr6pHRnwoCefPXNV9gceqZOGcu3M/9F6VUdQUGhXC02MHbMaNp3bCIV8saN68nLK8Jk9KZ//+4kJEawdOlC7rqrD8lJEcxYupYjF/U8N7ED363cRlRsK0b2as2SH5ZgzjjPXV2H8/DbM9j49TSwmSi8UMbe1QdISK6PkQK2795BoR1KzUiAMGrEUPwEtbWbB0HsMIsLcnj/3beIjk/iamkAGu0ljp3PoufAe/EuyeHw3u28+OIzzF0wh8Xbc/h///M/JEUFMn/uXNLT07HZ7Fy8eIG33nqb9MwMThw7zr333ivz2MXHbCnh73//C/v25vDGX57mXNZ5vv7qe3r1aklhoWCVG0rbDm1kXMCWdVtJPXWKqY88gK+oVKkCBNV9bjexa+shPv12A+/+60V89EiAkJF2inUbN1FcVCxz2rMuFvGn/32KmJhIDh44yPZt2ygrv8qRy0YmPzaFlAZ2Ppi5k4T4WPyshRzac5F+fbvStWssOZcv8z8vzKVVq7pkZV2kfdtePDh5iJyfgn3wcnEZa0/l8udHxzOwcyPOnjvGJ1/sxlhWSnZRHsmde/LMxNZ8MX8TfiExdGjow9L5u2iR1JyhQ3tKlsQmTRqQ2CiUv773IbvPB/PlX/9Is+jga1ap3W7lX/98jy3bdtCpXRsJFM3BcTx9/wgKck6xYOcWrA4bdmMgoSERPDx1NKFWCx9/tZz0s2cJtpWwt6Iecz/5PzZuWsraI1b+8fsHCHBLB9y9Zzc7tm/HbjShNVrId/jx7DN3U5SbzsKNh8ktLcdu9cJhM/DEE/fjc/EQ/5o+He+4lrK0e906iTz4wBgio+uybNkSThw/SVmZHbPZi4cfHktR0RW2bt3Gzp178PXypUWLtnTs2InWbePZsmWHTB20273R6YIZc3d/GjXwJj0jnVf/soz4OH/S84roP2gYY3q1ZN2atVIvCAdJwVUzw4cMoFliDBvXrJDex4iIQJ58+T06D5nM/3toCFrKwV7M2vWr2XrgIlOnPEZcWKjiA3OYZWbWj4lBUKalOAerCunU326PR/PHKe1bv0s9eLr1Oz13/LYloJm/cLVD7KIELWdpSTFJSYkkNWtSM0DAhs18iRUrVnM528T44WNZsXY15/Nyef6F5yXhTGFOHt99M5OIhjEMGTXCGWsAJrNRFo2pV6cuY8eNRS9pQEFjgfdee536LZsxcfx46WdXIopdrnPhzKju6r71YXOdzmZn5zF3zmYSEsPYunUlqanpPPvsE/Tt24vU1FSys89J5rqTGVkMHNSLoqtZfL/tEg9PHEfHhsHs2r2K599axOuvvMya2R+Q1KQJo0b1Y9HCPVisYUyc2JuzZ09xPjtL1q7YtnUvCYkNGTiwA9/M/IS42FbExcWyeNshSvyjmTa1M+/PXEWFLZz+baJZv2ctTTAwov/99HlhOrNevAefEA0+/tGcW5tGQuMAvtsyD2tIAL1SenPi1BkOHD7M9Lf/TnjdulUAgnDGHD+4i7lzP2XSlEfYvaeI6AZWVu3fR0B4V6Ip5tDu+YwdO4x/f7Gc4qBkXnzmMVpG+rF4wXxatmhBUFAw77zzNtOmvcbxE8dZsWIlvXv2kiRJDRo0lMV9/vzyS0RHNePCxTTq1KlH8dVyQkK8KSgok1XymiY3JS4xgdNHUjlx7Bi/e+5J/HydvPjSo6zwFmjtRrZvPMj3q4/yxpuPYdCKAk9WcFg5lZbOhfMXMJscrN2wi4cemEDz5k05fPAgWVlp6L1Lee3LtQwZez/PDIvi9bcXkJFjJSgkmElDhtKrUwt8ffI4cfIkH/7zGNOnP8CcuQspLanLo48O5eChA+TlXcHq7c0fZ8yid6PGfPTq05zM2M8XS9IZ3jeF7bt3UqQN5X/GN+bzGYvYd6ocr8BAhnRKYfSAnggerK9nziAuwY/MjEyWrD9BJo1Y8u5LtIwTRaXcPw7sdhtvvfV3aRD/+Icn2Lp3J0u353Bv19Z89cVHxN01gAnjeqPNL+bdv37MoAcn0zkqkPe/XEyrlBQa+dv53czdzP3wcVasms0HSy7xxwn9CbQZiG/YiIaNQtHr7WzevIUKs4m8slIOHT3Jc5OHs2n1Mo7mBPDAY1OI8jcy/aVXadhtEv3jyvji47do3v9+KswaMjPPM2nSBBo1imfu3O+oW7cely7lsGDBMh568D7GjRmB1WzivXc/IiSkCVMfHopWa+TEqV1Mnz6D9h26ER0Vx8Jlq+l7/0hG9kiQ7Iafrchj2lNDmbVkDXXCEukcZ+Uff/2A4cPGExUVycr12zGVlfDKH55l5fLZGPyg4EIe32/PImXUw7z98GB0AiBQyLadG9mwI5t7Jj5Io9hIZzCpWWYbKQChavROlVFwBlpUORlUL5DHWp6PRwK/TQloVqza4hDGSriRL144T3JSIxo0iLnOEYNg/qogIz2T5YvW0T6pFYvXrOT+qZNp06aVPOW7ejGP77+eSWhCDINGj1BiEEQ1R7NJAoS6devKYk1KDAJozPDJtNep1zqJcRPGORej4hIT54cyqFueN//UAXIBhKysHD799Du0GrMs2yo8BoMHD6J3796kpp4mK+sM5RWX2Xk4nc7dehFeT8PXa9OZPHoknRuFsnnzUt7+ZiOvvPQyq+fOoGe3tnTr1oj583dSkO/PyFFt+P771YSGRhAcrJcu2ZiYWHr1EgDhU2JjkolrEM7izQepCIznlamdeW/WKoy2KPq1jWHDnjU0Rs+o/pPo/fw7zPzfezienUaBLZhkSzANGxr4eO0iotq1p0t8NEaTXQKRwQP7EiCYA909CHY4eWQf8+Z9zr0PTGbP7kIiG1hZc/AAoXHdqWfMYOa82bTv0J7G0fHsuqBn8viRNPA1881XMyRjoKCeffudd5g2bRrHT5xg5YoV9OrZC7PFRkb6eUaOHMmsWV8wdlx/Pvt8PmFh9YiJCeXsuUKKCktJbh5HvfAAjp48S9d23Tl+9ChPP/ckvr4ittwZJOkspqV1GNm8di9fztvGx5+/KKMrBEAQqZ0nU09zPvs8FouW5as2MWxoHxonNGDBggWEhfkTGQ3vfb+fbgMm8PTQcF6ZvoyzFx34evvy5GP30rV5PN6OS7ImwPZt3kyffrcsSlRWEsn4Ce1ZtmwT3t5B+Ef48sbcr0mJSuSj115i37H9fLR0H0/c14cf1qyiWBvD8+Ob8OlXyzma7uBybh6PPzyJcQM7YSsv5IuZ/2Z/+hm8bUYSElvz1fY8vn/zD7SMrVMDQLBLgCCOuv70x4fZuncry7YVMqFtM95775/0e+r/6N83kdDiK3zw5gwSBtxD1zgv/j17CV379KGBwcjvvtnB7H8+zqrVc/hgSS5/mDgI4+UrpGadZ8iovrRLasTWjRuxWcopK7nA2j2ZPPXQaDavXsYlS2MeePIBEvzLmfePd0j1TmR4jwS+/PhduvYdhsFby549GfS5qzuRUQHM/XYLPXp2pqDgPKtXr2T0yDGMGzsGq8nE++9+QnBwW6Y+2hOtrpg9e1bzxhtzmTjxIcLCArhSmE9il/Y0i7Lzz08+Ys+VRN763UDmLFpDnfBmNPDNYtbCnQzqM5zYOr6UGG14aTV0bpfMvPmzOXgmnfaJDTmR4yCwcTf+8kBfdI4ySWi1ftMGNu3OZOrkqTSoX88JEKxYNToZgyCgqKJCaggWrQQISjVI98+dKR73U3WZ536PBH4eCWi+nrnQkZSURHFxEVarmQ7tWlKvXohbMJwSRlUZpKhF1pufM2cex44eIyw8nGeeeVpmQJSVlHH5dAaL5s0nMC6SQSNHEB0dKcuvXrp0kblz51InpA6jR4+W91nMFsy5hfxr+rvUbZbA6DFj5Pm8l7eejPQMvvh6ltyh3j1hnDxf/+kfJfjp7Nlspk17k4SEOIYM7svqNatl3QBR8CQ3NxejqZzi0jN8Om8trdv3ZnCv5rzz+XJaNkikb4emfDPzS9qmdKNTSlu+/Pxjkpo1o0WLaObP30ybVnfRMSWcl178iGHDxhIebmDRosUkJibKsr0LFsynb98+tGwRyeffryY1x4f/ndqdL+eto35MS8b0a8u8ZfOwZV1g0F2jGfm/b7L4rT+wbtce0i6Y6BweSYvkUNaLUtJefozonoxW74NfQAAxUeF46UQao3uao4bysiLe+fs0fPzrodNGU265wJmiIkZOmMTVM1t5/pUP+X+vT6Nrch3+uSSNiYOHYM4+yo6tm7n//kmyZPfbb7/NK9NelWf0oqLh8OGCs9/IwoVrmDRpEqtWL5A7R5stTJBuc+zYPo4cySEr6zI9eiZRr54PM2YtZdKEhzh29AhPP+sGEJyKWwYp2ivIPpfPG+98y8NP3k3L5Di8HTaMpSVcyM3BZDRhNmv4y5sfMGRgL5KaNeLzz7+gV6/OBAQYefHjFdwz+Rl+NyyBNz7fQtOE5liLL3HyQg5Txg4hIrBM9qVN68lMnNCaOXMXUVpah0GDEvjyy8W0bdOViIQgfve3V+mZ3IyXf/csn8+cz9FLZTz72HC+m/8dZYb6/HlKH76Ysx3fgETaNQzi68XrmDRhBJ2bh/PRF++zdMd53vrzIxTkpPH6V2nMmf5nmkRdO4eFB+Ef0oOg4U9/eJxt0oNwifsHdWHjymVkmw2Mvbsbmswcvpu9igf/9CqFJ/ey69hJRk0YjT3vIi99tZ2v/vV7Vq6aw5wfcnjp8Xspz7/CvOXLGTRiEO0bJ3I1Lw8fRwXmy6m8+ukannvucQovn2bt3rP0GT6YGJ0vn7/5PuP/9BQaLxOzv/yKiaPG4u1lYdbsrUwcPxK0V3j3nZW8/MoLnD69n+/mfsek++5j/NixWKQH4WPqBCcx9dGBaLVlnD1zjC+/3Ehycmtat2oiqZLDY0IpLz3FK3//G817PcGYnonMWfADdcMb0aWlP6+8P5eJI8bTPDoEu8ZAWL0gDDYT09//F2dKLfzp6ZEsXrcfY1Ab3njgLnSOckqKrjLn26WU60TBrHsJ9FKIxbZuWMdnsxfyyJPP0L19q+vWeHFn/fQAhJ+uZT1P+PVIQLNm7Q6HYOAShT0SExOICAshMNDXDSAoiVg2uxJpLdIchZE9f/4yG9atk5zlrdq2wma1cfK4iCZeQXpGhgxg69q1C6PHjJYu3SWLF1FRUSERepcuXWQ53YsXLrFj+w5S09PwCfAnqn597r37bsLD6pGdnc38RcuIio5h6OD+BPj73wapK/nmBfnlbNp8glat4qhXzyCLpcTGxso+r1y1mvIKCyXGImLj4hk9ehxBgX6knspkx6atVJQX07RFU+66qy9X8k7x1lsvYzWH0rRpsixa1a5dCnqDhvVrN8izccHOlpjQiOTmTWTg1q6d+2jTpjVxDWPYvPU4l684GNAvke07UwkPC6V9m2j27tlJYV4eyckt+fs77+GlcxARFUXv3n2pKC4mvmE0vsEBfL9wEWmn0vALqkerNm0ZMXwIAd7eSupfZSqeGC0L586k8tGnn5FxpoC6dZpw3/2jSOnYlGOHD7H/yGHG392f0ooLLDqoJTawLhf2rSEuOpJ+/frL4kriXF14fs6cPSvdzMaKChkd0rlzV7p06caWresZOWIwwSHhEkweOXqY06dTJeA6d+6sJOHq3rM3CTHx0gvQf3A/vL30bnH3ghhJHDGUUVZRwTdzlpNbXMaTj0wmNNCbE0cOMH/xEvLzCmVdi+atO3PvxOGgtbNkyTK2bdpCnXrB+DfrRoNmrRjXMoIVa06S2DiW+hEaVqxcJWUjMjWyzmUzZcpUWRhs1640TBVaGZuweOlS9u7dTWBIAE1aJKOxn8duqmDlqiMY/OoS6O/LhbJ8sq4W8uEfXiH/ko46IeF06hDBpi3byco6y9DBA9i3fx91QqNI6RjOyRMn+GGTlhd+N1DW86j+sTlsLFy6EC+tFyOHDuXEmXNsS8+nT7so6mkLmfPdPFLTTmOgESNHjKFBYgArl20nvlEEvXo15+LFYlatLeDRh3uzZ98OvvpmAXqtFps9mC5dezF8aAoLF33LsUMHcdjsGLwCSOnUiVGjh2My57Lmh1ly7pmNDenXezTDhjflXM4ePv9iBkV53oKchJ497mLw4IH4+uj425tvk5eXS2xsDI0SmxIbHUNKx7byCEgcPfn5BdPnrt7SGFssZg4fPsKqlSvJy7MRGJDI/ZP6cOToDjIyM5j66KP4GnzZviOdoKBAOnaM5vjJNL6f/70MJLVovOnXuxs92rdiw5rVBIaF0qt3E1btySKHJB7sFoW3zUzqkbN8/e16+ozuSdcuSXgLAjIxzmmnGDbxef7vpde5b2xnJ0DweBBugyL1POI3IgHJpCjSHEWGgV6nlURJgQHuAEFJYxI7HeEOFkRJMq1KECuJlGUnV4vCCCjKQdtk0RkBBAS3gmD7E9/ZRLEVydiofC+JkkS8gVYU+rFKqlqRvaAXh7iSWMmOSRRD0mpldoGo+35bP66Ud+WxzjoFaj0C4SUR5xoimFLCCtEUZyqi4CQQ/c3KTpdHBt26DaB3r36VOxQl6VDISOHu1+kM6HRKf202h4zvEFkiFouS2qjTgwgAF8806B3YbYIURnRdK6lf5TWicIuQjUg3deawiewPm7hP74NWr5fvUImSqrBYOaw4HPlkXzjH5k25NGrUjI4dG8u6VHIQ5fMs2Bxmyh2BaAVTo9WETquRsSLi/VaLWcapiEqJok9qep2IXxGZKlZZ2EcUnxJkNhpZfEa4zSv/if4Y9OhtOpm9oDWoaXNqhLVzItkrZP7/qfSL/Ouzr+nauRPjRgzCoLFSIYQkL9dh8PZDp1O4AqxWO3aLTaYGmvXesqhVsPhZDKFOCXq1WiwKcBIkOw7w8RHtFP1SxkDUyhLHbKKIjrhQaxAZB5l8/90c/HyTGTB4hJyzl/Jy+Oizf3PPiHG0adlWylxUp7ZabZLwS8xV8bNYJ1qdKBJkw2T1x8/l464yjQX8NlnNiBJUXloDVlHICg1eOiteGot03VttFjSOICl/jd6K1axBq7ej01tx2LVYrILHRIPFZpbxGZKsDL1cS94GhyykJYodKQRDXniLuaIXqZEWbNarmMxCJsH4eOkQJ39mkWpqEsWEvGSKpuiTKEQllqDJYlZkqdXLIm1i0yDmkUg5FfITwjPI4m3KR+gNi1kUlhJg0ICXD1IXCKAmihIJBlVR+EnIXK+1YReZUmYzGjGnHHq0Whu+egcOi0nOLa3WIoFDicNAsA5KLufw5WefExnXjKETR+HjpccgSKzsFo7s28NT/zONf7z7IV3aN7tJmqNSrMvjQbitWtbzsP9yCUgmRVlIxpl0H+hvqOZBUGyBXVgiCRCEmhX5WCKozMmqKCiY1WhfN0NehaTQKShX7riTQcB55OdetEQJTlAUuTN+7bYGCslCP4J+tzKwoQb0YVeYFCU/QSUJojMH3fl7Xm4ua9etJql5K9q0buMiQrKLKoFC+bkfedaYCK4oUXcZSJ4Yd9J+97Y54yicaaAKX4HImVcIkSWHgjN/XZWh0igxdiUUFuRy8GABsXFxNG4crdwg/+4kSJKtUQkZXDEbrjmu3lAtlrvyGQowqjzndeu/nEOyWJDz45bnr1IJKShNAUdmu44jJ05z+dIl7ureBT8/EWamMFuqPA0KW4HyUXkP1FIFalCrey9qizFlW8VcdxRK2Tk0oZWE0pXNdx/bKuPsphGc38v/XecatX6ABKZuJIeuCa8WbJIUpMrD1WdVshgp46Iwayg9VwupOVdZZR0QVYautaWSbSv3qSPsLEpa2Qz1le4yr5w+kvxRmcQKEaQbr0HlRTUc/8tdhjPASAbOiHnonD9ussOhbE7kbkTKSKMQbTkg9+J59u7eSc/effCrI2oQKPTgO7Zu4dNP/sXkx5+ia/ee6G8UbCg5RjwA4b/clnmafwckoMm+cLUyKkcYpsAAQ1UmRedfxU5Q7Et0OkFAYnYS7Pi6ajC46321oddTnLfSkdvxDCcH4bW5ENc32rVqopPnRQIId+Ve081qRaLqSt6pVN1vqZZZVc3iOA2Ga9QUMKXKv5K3vtKUVSUuqhLtKbS3ylxZQ6OvkX1NJlb9TjXFqpm5jjmupcgVI63CDWefpfGo+nF/XBV7WU1qaqtqM641gYprRFGbeXm9vlaOXbVFU9P3sjEK/XKNna/8uurLXLRf1S20C5irYKqS/MoJfFXAKmXm9lr1R/esevWtKieo+F3COOcfqrS6ehfkIDv7pgLGKpWl3HvsjhjckIz79KscZBVUKV8oBFvV+LuqCFNtrMeDUJv14bnmtyOBKgBBqOSgQHHE4Ea1XEuA4K4v3VXSrSjmOyd2VeVfywvoVgnh1l/v3HkI7aMAhGtKDF77THeFpm4I3cGF2ChdN6fT2Q91+1eJAdx2ltcw2bs1wa34VeW3cnzd61G4W1bnqFYq9hvtwd2tmxN43LpEr1Hbtd31y1649Lx8jjona4lJbundNXnHajTglWPkLtdqV1Y3cu731BogVH+7C7C5WBJd46J40RQEUCmfHw0QXJyTtw4Q1EIkNUyWWxr8mvrvtiargy8PQPiJq9Nz+29BAm4AQdmzBQV61wogGI0VZJzJITw8ktBQ4YJVPqoKqmkX9p8T6J0ECEohJRGjIHsvAxVu0NPaAITr2tfrAITaCrYmgHCje9Ut5k0BQk1b31vR7rXtwI2vcwcI7vPxxwCEm7XolgGCujhU5OL+guqI+o4BBPFg517/OgBBNs9tOKt7EFywQ2mkgi8Vumm1G4oHQYFnN/cg3CaAUJNcbzaIlX/3eBBqLSrPhb8pCWgOHcl0XL58mbCwUPlPVnN0z2Ko7kGQltDM+exspr//KUOHDJdpe9WPT28HQPjpit3dcCl7m6o2zwUcarLpNzVxzvoIHoDgAQg1ao2axOIBCC5RKXuS67Og3XQBVpP6Db0EN0TCzt2N54jhN2X9PJ29qQQkD4Lgzm/atAnNmycRGCA8CG5ZDNcBCOXl5Zw4dY6o6Fgi69ev4kFQ36rsIa5fJKXm1ikvrCwi7B6v52RYlIVxKndkbtUIq+zSXEVfXDt6ZzV351anMhXQudNx1y/XHJc6O+PuABCpVKKIsjjj1No1SmEYjeaGhWFq6nM1bpbr5mtXuiaq33DTYXZe4BJa7e6Q22R3oV5PY1/PEtbuNbfrqtsVg1Cb9tTKg+AOBtxFdyvAQX1GTaK/IYJ2vaRqISblQeoRg4zcV6eHelJVbSGor1Y9BO5/lhsD5wmV/Lt6WuWcOjfzILjHJdZG7nfkGreJ48liuCMS9jz0v1QCms1b9zsE335kZCStWrW8Ns2xGkAQtdHOZpxk5969mO3e9OnTn5joKJmadPDQYbwMBlq2bMn58+c5dfo03bp2ISggUAEK1ZVkDUpPpPjlXMoh42wWOZevUHAFOqd0pkXLCJnydC4rm3Xr9+KlC6Nth8YkJUWQfSaHy7kaOnaMkqle+/btpWFsNJEx0WSmZ3Jg7wlKKgJo174RrdsmUFRcwalTeTROisLgbeJMRgZhdUPR6rRs2ryZgvwC9Do98QmN6NGjG2aTnROphcTHh1A3xIv169dTL7Q+rZPiyc48iX9wGHXrhrNmfwb+EdF0T6yL7y3kZdYeICizrLoSq+3cu1VWOMWwuAOE2r7pP3OdO+HNnW7BNdUP7+ALrwtGbrRjdltbNbXVBRBc41sZP3sdgKB28XoAQZmbrmKm6ubg+kG3zizbW99F3FZpe4iSbqs4PQ/7FUlAk3n2smPLlq3yeKF1awEQfG7sQdDYKCm+QnpGJv+Y/gmPP/YUPXt2k9Ued+3cy8IFCxgxYgT79+0jOiaGESOH4evjK3OSlCJM7tqg+hZI8AZcYdn6dbw74wcG9ehCw7phnDh6kqeenoy3Qc87099h0PAh5Bfms+tENiOH9CIr/QTrD1zlrZem4Cgr4S9vvCFLSsc2iGPR4kWyUmFIaDBfr9jL5AcnEuqTxwezD/Hw/ROIDLCzeP58WrZqRbs2bbl46SLGCiO6fCMrVm+nS/++NIuPYM68TfQd3AnjlctMef5V7n1gKI9OHs2qZQuJiW+EudzEyx/OZfB9k/n9+L4EeyuEUrX5/LIBQu36UJt+3ulrflMAoTbu9EqPQPUy4aoHQf1eubAmgFCTca9+cOcOYH4MQJDxC//BaeYBCHd6ZXqe/98qAc2ZrFzHxg0bqV8/3OlBEADBz8WkWNMRg91EaVkZv3/+ZR54YDLdu3WVkfeCOnnpkmX8858f0rZNG57+3dMkNIqv5FhQQv2rAwT33wUJTxbLt21n2yl4ZMxQwg02XnltGvdMeYCczGw2rF3L/Q9NwGgp4bvVx+ndrRXGigssP2Dk45ceQ1d2ldemvUr/gT3RG/zYvWsf3bt3ICBYy/tzDtCndwrtGpXw0qeHGN1/KJE+FWzcvIG+PXrRv2cvci9fpqCgAEO+kY1bTtKpTz8a1nHw7XfLadQ0idUrV5Lv0NC8dSSPTBnN0kXfYRZlrk+ksjX9KqOmPMmTw7sS7K0QBtXm4wEItZHSza/xAIRqMvIAhJtPGjePnIcoqVbi8lz0G5KA5mxWrmPTpk2Eh4fTqmVzSZJ0PYAgIoq0IkjRYaKktIxnn3uRhx6cKt3wYgdQYTRKiuFVK1eREB/PiFEjSEhMkEyBZnMFV67k4+fnJ2mdNZKC0eXeVH62YzKfZeW2rew45cWjY4YSZDPx0t/fYMBD48g7nsYPC5fSo0cPDAZfvHxi6N07iV1H17H8gJmPX34CTVkx/++1lxkwoCNlxXa+/2457dq3JSQkFKMjnCGDO2BzHODpf2wmsX4sfoYSzuRe5JExExjaqw/bt2/l+NEj2M0OCvN13NWzPy1j/fj4s8/ILHKQ0rk7Z89slxGo5gsAACAASURBVHS8jz18H7Nm/Ju0c9m0TGrOriwjTVJ68+TwLh4Pwn9gEXkAggcg/Jhp5/Eg/Bipee75LUhAs3f/Scfhw4epU6cOTZs2IioyjJDggGs9CJLNTJwZWsi5mEVGZiYffPgZ/foOoHuPHjSIi5Mc9Fs2b6NTSgppaWmSYnnixAlERvpz9tx+/vGPL+nUqRf33HMP3t6CZKn6DtuO2XSeZZs3s3DrFYaktEFTbCLtTBYPPjoaS0U5c2fNpnOnTuj9/HAEhNC4YR02bFzB7PUXeGpMXwzGIj6fPZOOfYfTqUUyezdtIL5BA+pHRVHhE0jTJrGU5e5i+rw0Hp44kWg/O4uWL6VVUjLJTZpyJjNT0gaXl5r4YdU+unXpSc/WCbw1/d94R4Qw9ZH7mD17BgZvHQ9NGs+/P/yIcqsfD0wazNerdxDasAMPD+lEkOeI4WdfPx6A4AEIP2bSeQDCj5Ga557fggQ0y1ducQhedOFeCw4OoGmTBELrBTvPBJ1cx9INp1AtWywm9u/dw549eykuMco6A40ai2C+HuzcuUtyInTp3IVLly6xa9duWUY4MSGCvPyzrFy1lcSEpnTu3AW93ssNIKhAQQCEbBavW8e/F5wgObIebRMSGDBgIFHRITLa+vSpU6xYsULy8odENmRgvy6UXs1l6fqDUFqM3n6F85czMevjeOHpZ7GUFLJ923YKi4vQB0cxZvQgQnxK2XE0l5RWrQj2guPHjxMeEYHZZGLZsqUYjSb0Oh2NG7Vi8KDB2CtK2bnrEE1bNSIqOoxt27aj1eto16YlB/btJzA4gqSkGLbuP4Z/nWjaNY3DR+9GOXyTmeQ5Yrg9S80DEDwA4cfMJPcgTk8Ww4+RoOeeX6sENNkXip1RBiKx0E5gJVGS6LLKEyCLMVRSvirUrMIAimOCGkKQnVzsCje8uETcqwAMSZ4iI5LUIwZ3Q2rHZLrMik3b2JVh5dFxQ0kI85dJiBonveA1EfzyXSpZrKBzL+b8+ROcOJVLSkpPWV66ysd5vXK6oaRL3nQHIZlbnQFd8nWKyNS0L+VnkS7myoWsXfSB0rKfAhBuNTPhVibyzxmpfyvtut61PzdAUKbQrYz0j+tljVkMniDFHydMz10eCXgkUGsJaM5fVGsxOAFCgDcBAd4uD4KaJS2q/qmc8FInCsNeEze+UkDI9RG/ieMJFSCoplUFBlWfY7MaOZuTy/lSGy0axlDHRynQo3GV+blJ52xYrUZZKdHb20dWRHQdZdRGq9Zadrdw4Y2NiAcg3IIob3Dpzw0Qfg5woALIa3BIbaayJ0jx9kwsz1M8EviNSqAK1bJGYycowIsAWYtBqiZXhZMqAEH1GtQGINilZ+L6AMHNmyCVnkPWb7EKH4OozKZmPjiUyoq1+1yP8si9zEztnnR7rrpxorcHINweKXsAQjU5egDC7ZlYnqd4JPAblcA1AEFQLStMiipAcEpGVHMUbnaxI1fODWpM41MghbslF+BAFiV2K86r3lsD0Khi29UYiFoUQbpmAN04FlT6hV/oIHsAwu0ZGA9A8ACE2zOTPE/xSMAjAWnlXTEI4jzVLo8XXADBiQXkGbxyxKDRqV6Dmrfzbj4Hp4RVyFAdOrg/x+1ZbgBBVn6tzvZ7S+NWjYZZxTU1PaO6y/ZG3opbubYW7fUAhFoIqRaXeADCjwQIsl65G1GSm6OtpsqiNyJKUsNwVJZuuQW4wVoSjsn/NFFSLaaW5xKPBH6TEtCs37jPIc7p/f39iYgIJzjYx+2IweUnsNuFJ8AZlHWDFX8tQFA9Ee5/kWGHTj9DNe1RE0Co9dHCDcawNme2d2oK3KT9tw4QXA29kzFyta43cKfkdovPvV4thlt8TK0u/zll86ODFNWe1ORBU5ej+9xUf77eCV0N81g+pkq9FMWx6P6dByDUakp5LvJI4BcnAc36jXsdgYFBZGdnEx0dSePG8QQHq0cMbuF9IjBAhCWKcsY3scM12+KqWue6p/LVAUKt+Qh/cbKtdYM8AKHWorrx3HPOnTsJmiptrlqU6PY0/ab9+lFBij8DQJDwv9qCd08UEn/3AISfYZJ4XuGRwB2QgCbrfJHDYrEiCjYZjeWkpLQlLEwwHbrtUoUScLodZVKAu+KRGqDqV7XZrHsAgpvMalCwNwRhbtffSWP4c+6Sb8fc9ngQriPFO+hB8ACE2zFzPc/wSOCXKQEZg1BSUsqJEydkwaYWLZoQHCxqMXgAws81ZB4Pwu2RtAcgeADC7ZlJnqd4JOCRgNz7Z5y54jh79izl5eU0btyI+vXrufEgKEKSsYI/+YihqsA9HgSPB+F2L0EPQPAAhNrMqf82ArDa9MlzjUcCd0ICmiXL1jsES2F8fALBwYEEB3oTEChiEFwuBPGT/RYAQm0bejtiD2v7rl/Tde4eB88Rw7VA607KRH3bfxyM1OYcr7KxNQTy3KYgxf+2I4brUSl7QMOvSUN6+nK7JKCZ9vp0hyjUJKoshoeHktKxNeFhda+hkBVZDEIp6irTHG9XEzzPuVUJeABCzRL7jxvtWx3IWl7/S85i+G8ECGLzs2vXLj777DN8fHxISUlh1apV9O3bl8mTJ6PX62s5Mp7LPBL4dUtAc+JUlvQgiF2XQa+jXt1AgoJEDELV/b3dZpe1BnQ6tYbCr1swv+TeeQCCByCoDOi1mqeeIMVrxFRRUUFRUZHM3lq6dClPPP4E/gH+BAeLQnUe32at5pXnol+9BDTZFwornZViXbiYFD0A4Zc6+h6A4AEIHoDw01anetQgsrdmzpzJtGnTKh/oAQg/Tbaeu389EtBkXyhyAQQcSi2GajEIorseD8IvZ9A9AMEDEH4xAMFVEd7NwFblRvgl8iCoACEtLU0ChNdee80DEH45Ks7Tkl+IBKoABK3GIT0IAf5VgxRlASW7OGD4uY4Y3Ooo1Ciom/39FyLdO9QMD0DwAIRfFECodoQhs57cSatu4LEX/CoSQPzMXn0VIKSmpjJr1ixef/11V0n3O7RuPY/1SOC/TQLVAIKdQFnu2feafqhZDHc+SNE9vPp6WuN6XLD/beL/ce31AAQPQPglAQS1/oIcFRUs1IThqy9ncY0gYLseQLiDoEEABPFP9SC88cYbP24xeu7ySOBXLAFNWkaOXMqCIdFg0BMU4ItOp6G8okxyH9gddoICg/D28ZEVGe88QHDXMrdf8r+GdCYPQPAABA9A+Gm6wQMQfpr8PHf/NiSgWbN2h0NUahSBORERYYSG1pOUy3qDDh8fb4xGExaLhbDwMHx9fCR4kMDeAbIsg3PHcKdpecXzxaK+phaEPAO9cVK4e9BR9TxodZirBybVBCTcqwXWtnLgNc+p5o79MYDFAxA8AMEDEH6agvYAhJ8mP8/dvw0JaI4cy3TYbDbOX7iAzWamYcOG6L10xMRE4u/rg8VqJyPjDL5+vsRER0kDLYGB3QkQ1OPD2+YOtCiSdxhAYwWHFofDWQBCY5VARv6uMQu/BziUnGUFPIhrrwULyj2uaKpKMODeZifCuZHh/zGgQAUANwICtwoSPADBAxA8AOGnKWgPQPhp8vPc/duQgOZU6nlHcXExZ8+ekdUcAwL9ycm5RFZ2FhazSRrWxEaNadCgAQnxDcnNzWXed/MIDw9nxLChbN2ylW3bt/HnP79EQID//2fvPMCrLLL//7klPTe9kIQAgRB67713RZqKFVfsrq667n/ddYur7u5v+7rFtRcQFQFRmvTeO4QOCaT33m6//2fmvTe5aZBQhOD78vAkufd95535zplzvnPmzJlrRM2BzVrCyZMnOXm2gIFD+3L+7CVWrtzGiy88jYe1mFXffcuDjzxE0umDrFy7nenTZ1FWWMDhU0nMf2w+VSYTn370EaMH9aZb195s3LyDlevXUlFSzJBBA3nkkUfYs2cPH3/8MZVVldisNgKDApk5YyaTJk8m+eJF/v2ff1FRWUTPHgOZP/8ZQkJ8ZZ0WfraQjPQMYmPb8Oqrv+LU6VO8+87/yCsootKuwd/Xh9l3jGf4sH4sXb2dynITSaeOEhwUxIMPPoTRaKe8opJRowZjMPhTVlbG3//+Dx57bD7R0dFN3n+tEgSVIKgE4dpUjUoQrg0/9ekfBgKab1dtdJiMRpk9rFVkOAEGf7mM0KpVJF5enhKFpKRkPDw9iI+Pl+HJp06dYenSZcTExLBr1y6eeOJxhg4d1GQD1zi0dmzmLPbv28t3+/OxeweRnZnDzOnTGNQnjsoTubz72R+Y9dgQ1n26jINJJp5/8Rm0JVks2ZvFz375MlVmO//759+Z3SMMb00k63afZ8x902gdFsBbf/kLo0ePZvKUKZSUlrJh7Vqyc3J44MEHCQoOlqTo448/4YknH8PLu5glS/fi6dmWB+4fxclTJ4mMjJCelF+88itGjBzJA/ffT2lJCd9t3s6B9HLm3jWB3tEOysvPc9+rX9EjYRAv3T2aPbt2UFpeQVBQJyrKbcyYOYDgIH+Kiot5/vnnee2139K+ffsm46cShFuDIIhafB85dW7pTIp1Uza3kCBFEZy4ceNGKioqKCoqkhOeHj16SP0gPJHqpSKgIgCatIwCh9VmIykpiYKCPAb064PZZMJqNRMZGUlOTo7MgSA8CMK7oNVoMFus7Ny5iw/e/4AJEydy77334OvjJaORXcxc/CHjBZq1I9GO3ZTF7p07+PW/VpFTAb94+RkmjhuMl15LxbFD/O1/r9KqSysyDl5AF9Wfu2ZNgYJLPPPXr/EJaY1oi2dFDn99Zho5lX4kppt45IkHiA30ZdkXX5KaksILL76I3eFgzerVZGVm8sijj+JnMLB9yxZef/NNvH19cWiMVFT6M2bcFH7+0xmsXr2OZV9/R3FxKTm5+cx/dD5PPvEYVrORlRu3sS+tjIfmTKVbmIWCwkQeeX01Tzz8FNN6xrBj23YOHjpKYFAUK1esxWYvoVvXTjz9zNO89tprvPbab1SCcB1Go5pquREQb2QmxRZGEMRyqrgKCwsRWxw9PDwICwtDHFgnJjxiEqRmi70Og1Et4rZAQHPuQrqMQcjMzJTBiYIgeHrqycvLw2q1YLdD69YxzuUDB+Lec+cu8PWyZfj4+sptQg899BD9+/fDy0tPYVEmyUlJhIa2pU1sG/R6t9TMV4xTEAQhmwN797Bhfw56nZb8ojImzZhOj+4dcJzZzE9/81OC47twz4gR7DlXzJCRA9AVpfHZjgyefeknGE0OPn73Pe7oHyu9HbuOX2LqrHuINviw7IvP5aFUM2fOwGS2sHrVKrKysmT+dX+Dgf3797Nk6RIeePhh/P0NaDV6goI8uXhpN18tWcfoUdNp3bo9n332Le3aRfLk4/OwWMys2LiNvSmlPDhnCt3DbRQVHOfh11cyd+YDTOocyYG9iRQU5ePlrSUtLYURI0awdu06EhI6snbtd/zud6/RoUOHJguU6kG4NTwI34f3QImvacBTcasc1tTCCILYmSX+ueKQxBkzdT0GaibFJqsi9cbbHAHNug07paoRWxyFC711dGStPAguJejaRSDyl3+3Zi02m5XxE8axb99+EhOPM2/ePGJjozh5ajtffrmYPr0nMG3qnfIQKHldkRxIVYjdnM9pEYOQVMKQPnEcOnqaxEwL02dMI9Z0lr/97wNGz55H9yhvNu9OpHuvrmjKctl0qoh7HrwPoxW+WrqKvp3j6BsJ6zZuJtMciMFDi91cxaxZs2jVqhUmk4ndu3ZRUFjI1KlT8fHxkUder1y1itKyMnR6T1n3vr3j8fap4uvlG9Fo/AgMiObChTL6D4hjxvTx0mOx7WAiJ7MrmDp6AB0CjRQUHGfuq0voGj+AIdF+6LXBdOnahoLCVHbv3kVQUBBlZRWMGTOWtWvX8Nj8x+TspWkYNT1L3bXK7o3emXKt9av7vOpBUD0ITZUp92DmeoSgIY9LUwtW71MRuI0Q0CSevCQJgpeXB74+3hgMPs5MirVnLTKTosOB1WqVa3bCoAYYDBhNRhm4GBoaip+fL0ZjmfK9dwCBgUFom3P6o5yNWBAxEVUm8PfzwGqxkV1YRkBIEIF6G/mFhQSHt0JrM1FWacJLLG3YLZRWIQ2vKKKoqBw/Hw8CfDSUlJaRV1SJxm4lJDgIcXKlUAhi5lBeXi49IgEBAXIWITZwVlRVkJmVjc1ulXEZocFB+Pl7U1BQLI26h4cPfn7B6PVWggINONBSWmmiyuogyN8bH20FeQWneOS3S5g+eQ6Tu8cQGBBMQKCvzC1RUJCP2VyFj48fERGtKCwskNgJV6fcQNoEIqV6EFQPghqkeO1auLm7h679jWoJKgItCwHnYU1KQgONSLXs5y0JgrbOoY0uglA3UVLtbYWKdbsurtc6LlSZcM2ZgMH5FvkuxWGo5GMQhl/j3M3oXofGJgQN5SiQpYlCXOlixZ9i+6TTCSLb60oEoaSYqhVmodVYKCrJ418fbuGOKRPo1zmivkRo7OAQaadcuDeBFbiVohIElSCoBKFlKVq1tioCLRGBeoc1iVTLwotQ18g3hSBc17W7Zrr53I19U2cGDd/XvDTO0unh5AwuzKxWGxmZxYSGBOLvL5hW8wjAlQTp+yMINWu1V6rTrfC9usSgLjHcCnKo1kFF4HZBQJOWUSotomLc7ATIsxi8m0wQauVer2UHm2nhrxVR99c19dVNve9KdWu0nOaRjSu9xvW9ShBUD4LqQWjqaFHvUxFQEbhaBDRpGSVy/isIgsNhI8DgjaE5BKGhN1dHtzVrj+PVtuHWfe7G8IPqk/JqiF3TIBAeE6PRKLd0BQYGymBNrUZkpWzM4KoehMaQ/T4DONVdDE2Tb/WuFoDAVZqEpmaxvdkIiHQB3t4+xMRE3+yqXJf3VxMEZbsPBBi8rpogOBwWki8e5uuvl9O50xAmTJiEt7e3UlERG+A0RNfX4d48HJpqs5stx40GOlzLCkPDtbhaD4LZbObw4cPs33+ASZMmkdCxo/Oo3YZ7pKlLNc3qgSt5bRr6vs5njfXNdV9icL63XpWaLRy1EboSBHXxvCqC4DonxTn26pFAuTZWRzZdYnC5QdLQiYwNee8awqix0xyr8xLVqdDNVBQupSV/Nq0itWGrAUBZhlTIdtNKamRENYBpc2XpSmP1csT3imLvfoM7GA29tBlAiLOADh46xPvvvy/zV9x/331Mm3aHDIpvlMBfL8yvBFid71esWMGmTZt4+eWXiY2NbebTt97tmuRL+Y69e/dQWVlFnz69iO/QpkGCYLOJMEFklkWpiBsQdkEQkpIOsWTpUrp0HsqkSWL7oHd1siRBEMSjV85TdmWxr6WTnIOvKYpVtMJVB3cdKkIGaxSBA7s4u9IBOrdcT+7lK/Itgg1FWKPYAQF2DdgdGtk+8XdNHMeV26MwKFcVXL+4tLgSMVqt0+Xgc97TtI0POBxmsjNTWL5iHdExbZk8cRLeMlOmDTR1IlKdg0sJXJUtubzkXlFz1Hm8zv21/mzo+N8G7nchVPc4DXd1LuSt5vvL90GjRlj0qduJxLKU6o6oD01dvehuc12/X+6E4waBbqjqzhe5SHdjHSRlvEZUahKXOQ85qzZZDRlv8WxdUl8LcKcYNmRDG5KJhsTIBYZE2YZdoxMp1hSMnfe7Yyo/aspwcgfEdc5KXTGUekP6T5Wx5dIjTqYpgrad2d+cg7mhBtQ0VPxmx47WWa7SACWIuTl9XlsvuVW6jtxdRgwvO16r8XQL6Ha9s/44UO6u/l7Za1V91ULEveDqpxqpituDjasPGzjKOH0mic8+X87EiZOIa9OBoOBA/Ay+6OoEyrmXI4PXZfcp+rjWVVefiP6qu4OsKTqtATksLc5m0aLPMYS0Z87s6Xh5KrahpV6anbuPOc6cOS2zh3Xv3pVOHeNkHoRa2DvAJjImSdBt5OcX4OnlQ2BAACbnNsfWrVtLkpGVlYk4HTIyopV0Y9ckIXFgdxZ6OYIgDFlpRTlZOaXYxFkQ2PHy8SY2OhovTw3FJaVkZxeg1egICwsnKCgAo7GK0tIqIsKDqTKayMzMITRUbGkMpKK8XG7DNFksBIZFEhoWjKnKSE56OlazBY1WR2BIMKEh/pSUG9HpPAg1+GJBQ5XYvlheLgVS7+FRMyichsdqqSQnK52yMpP8TuvjR2irKIK8vaTw1g3aFOc+FBUV4+fvK7c1ZmRkC8pFTEwkpaVl8ihtf4M/mblKkqiI0GCKCvLx0HsTEGSgtLKSSrODEIM/DquF3LxcSsvK8fbwklkvfQ3+8iCthgTSai5g1441bN93ngcffpLYmBh0GjEwzFRUWklPy8Rus+Fn8JdpZ3VaDUVFhYi8Fw67nvCISIKD/WXfim2sIpGWVudBcFgEwYE+VFSUUVRhp02rUGwmEyVlJTKRlsiwWVFRSW5uIcYqozwRNCayFWZxSqjGQXBosFT4xUVF2OwOQkNCFJwFMXMZJ6d2rTIZZWbP8ooK9B6eREe1wuDvX93eag+Cw4bVWkVGQRmBwaH4e2gpLSnCQ++Fr5+/XGbJyMiQOSx8/QMIjQxHh4XiskoMvgb8vb1k220WK2ER4VRZLBTl51NSXIyXn0Fi4avXcy4pmZDQICKD/SkvNlFhFjIWSEl5KV5e3gR66yjIy6PK5kNYZAjeOtA6wO7cFeMikvWVh9A8ZnILS8nLL0NjM6LBk7DwMEJDDFRWllBRbqS8QmwHNhMV1ZqgYF+5ZbesrJysrGz0ek/CwoIJDPQjOysXo9FKXLu2WK2VZGYUOrcle1NaWkpBfgE2B4SHhRMcbMBstlBeVi7HlsVhJb+kkiB/A36eekxmMxcvXgSdnoDAYCJDDHK7cElJJRGREXh7e3DxYpo8fyQ4JOCK6cOVXUGisy3YLFXkFJkICQ5G67CTlp6Oh5cnMdHRGCuryM3Px1JRibePD+ExUXh7euGwWqVMFJeV4tDpiAgLJTggULZLbMUWydtE5lOrwC/Ej8oKI97evnj7eFJeVkZlZYWUdzFLLSwsltuOvby8iIgIJ8DfT1KHwoJC8vILxHYmggKDCAwwkF9QSFlZaTVb0Wi9iIoJw2g1kZdXhMYqNIhIXx9FkBg3GiuFhSXk5hZInSiyNwr9lJdXgMVqoVWrMCxmK1nZuURGtsLPmT+mRleKyYiNyooqLmUL2TShxYaHlzdRkZHgMGOsqqKqykplRQW+vgaioyPRamyUlVeRn1+IxWInKCSUwIhgvLBRVVlJak4RGI3oPL2IbBWBv7cPDquZtNRUTDY7XoEBRIYFoxWyVV6OX0AgPl5asgtK0Oq9CfHzoLCkAl8fP/y8PSkqLMLDQ4tW40FZuYmoqFAp3lWVVZSXl6HV6iTmYru5r58fBYVFGM3iviipc2rrLiPYL/LOR19z4kwpvXv0wpNwevZOoFOXaKoqytEJ/R3oK/u/uMJGVFgI4vi+vPw8CkqKMDnsBPsH0DY6Rtqw4uIS8nLy5DECoo99fL3JSEunsspYPQy9PMV3EXh6eVNYUiR1k86hITymNQZ/TyrKSqV9spvN0qYFh4cRFhqIh9g+b81h987drNiYwROP3UOHdpFOEtoyKYLm7Xc/dbRt01Yq/c6dOtKxYxwGSRBqUzwXQTBWlbNGJEpyaBgxfIR0WZ8+fZqnn36K9PR0Vq1UshNOmTyFUaNH4ukpZqkKh7ahk4pf12j+ZTsWSx5bDhxg4bfHCPfQUmUvpspm4rfPPYePZwUrVq4jK7MSu11PmzbdmTBxBIVF+axde5B58+5g69Zd7Nt7gnvnTqBbtwSOHjnC/v17yS8optQvmqeeeBCDqYxvl3xNaXERVVUaIiJbM+XO7mw5egl/QwwPThyMxeHgxMmz7N62k9lzphMhBqHzUmYdDnKy0nj3nX+Tl1tKWGg4OaVa7rp7LmMGd8JTr62nHIuKSvj22xX07t1bKvMvvlhBty79mDV7NOs37JPnYHTuHcfr//mU9jEhPP/wLL5a9CmRkW2YNHUU2w4e4nSmnanD+nLx9HH2HzyMxWjEZrbRrUdPpt05DT8frwYJQkVRAUsWfUqFhw8/mv8EXnodWuwYK0v45ts1HDl6ikCDP+07dmTcuFEUFeSyY8cucnKEcfEhJjqOhx6egtlUxc6dO0k8kUhBWRXBHQfw0MzBnD25l+V7Svnbyw9SkJHCd+vW0rtXD3p0j2XlyrWcPpWFw6GhdWQrZoyfxNkDh8nVWJg59x7pxNi4eBlFDjOz7r1XEiWFIDhnL3aRwdPKyu82sXfvLjm4/QODmX7HFBLiO9SZ0whRq6Sw+Dy/eXsts+bcT+9oA2tXrSSqVWv69u3Hlq1bOX78uJTCCq9gBowbTbdoC0s3HGXEwJEM6xTHkiVfUZiby9NPP835SxfZtXMnGakp5Bq1DJ90F4PjIrl7/jPMmD6Jn8wYxOavT3OmuJRJP7qDnXu30DGuHQPaBPPBv98lTdeb//ezB4nw0+HlcGDT6uXmXKH8FQNQl9JZwJHL+0vXs253Gl2DoKrKn+iYNvxo3miOHt3Ijm1HAAM5+YV07jKGxx+/g+SLZ9i0aSs5OflYLL607xDN+PEdeeufH1Nc5MNvf/1LcnJ38eEH25gz+166do2UfXzx0iWsFl9CQqJ48MFJFBTksGP7TmbcNZkySyGffneciSNG0tYP1m/YxsVLyVTgiUdQGHPGx3P22Fn27U1jzpz7aB0bxM9+9gZTJk/joYem4uF5eX+haxYsCFFRdhbvf76N6XdOJDXpJEvWrWTQkKHMHDOOg9t2cPDcaTyMVorKShgxezqjho3ElpXHZx99xIWyQgptZsYPHcrUEaPZuGEDPXp2Iyralz+9/RFWQxcemzmQo/tO07VLX5m4bPeeXezbt5cfP/sMJ04cZdeu/RQXlcjtx0MHD2HUiAFYzXbeffcTyssEsTfQp09vevboyo6du2WCuCOHj9Clax8Cg6K5Y9ZAzu1YQwAAIABJREFU9p8/xbfrTtIt3EBuehm9evXgRw9PJKvwLN+t2UFxoRmz2UjbdnFMmDCBZcu+piA/l2eeuYfTZ1P4bME3PPXUswwc0F9OEmpMpiAIhRw9eohff7iDDmG+6KuKMFttPHj//ZhNWWxavwlPj1DMJjMmkx+Pzr8PH58itm8/RkpKFhazHs+ASEY9MJW+oXZOHTvB28sPEFpVRobRwUMPzWVMQgeyThxnw7ZtpButZPkEct8do4j0cbBt23ZGjx1PfHs//vnZWrxCErhrUCiL1x2hd/fBDEmIYenir4hqFYGvbyu2bDnMr349Xwr58WPH2bl9J+07tCcx8RidEjoyYNBgPl+8jIjIcO65ZzaeMheM+6UQhJlPvk6ZLZZn7h5HXmoGRaXlTJ8xnRPHD+Hv682oUT1ZsGwJiZle/OLJefg7LHy5+EsupF4io6qCMEMAf3rlV6Smp7Ft6zZys3Px0HnQo3tPBg3uI7PZJiWnknj8FG3atCahUzxjRo+hosrMpn07KRdZcCttBHcdzqwpPTmduJ8Fy48R7etJYaWZ8I4JPDR3MnHBfuixkJmVy/sLv2Ho0IGMGjYAD53wirXMS7Nk2RpHmzaxXLhwgYSEeBI6tr8sQdBq7Fy8lMK69VuoqqqUZxk88MD99OzZU56MmJOWKc88aB0fx7QZ0/HyFgZL+LLsWNHJXAu1CYI7dHbM5lRW7dzJ1kQ7j9wxkaqyLD5f8jEvPTmXwwfT2LHjED//2bMYq0r4+utDxMcnEBbuzUcffUW/foPkqZTTpo1n8JCusn4nEhMxGgW7zOPXH23itV/+hhn92pJ+8RLZOdlkZJRzITmd8ZOi2Lw3nfJyX+6f1g/vAH/S07JZv3otTz01n9axrWtojZMgpKcm8Y9//JlWkXH06tmbJSv3MWTURO6bMRBfL309vZ+Xl88777xHYKCBlJRUevUcyJ13TsfhMPHVkq3yaGuNfyXvfLOCIT0788eXHuWtv/0arTaSSVOnsenQCbLMvjw4qTv/e+8TBg+bxuxxgzl34jSLlyzl2ed/THxc2waFsaygkK8WLsQ7KpK7750rqJpMMHVw707e/3Ahz//kp8S1a4NGr0WnKWfJ4s84fTqDESPGUlWpZeHCz3n7f39Cr/fg8KED+PpqOHj6JGtPV/DGS/eQfGY3f1icwX9fmE1W5gXW7dzB3RPHExcVzEcfLmDq1Hvo3acvHnod+korGxd8zsGcNGY+MJeYkEi2LV5GjsbCQ08+LtcWhZwo9MCBxlFJVno6v3r9E6ZOGcG4CSNxaDX4ennjqReDr87wc5SQm3eUh3+1jKeefIER7QJYtHABbdu2p1v3Hrzx5pvccccdBIeG8tWWQ9h8vPjx/b35y4It9Ow0gBEJUXyyfDF+Vjt/+d2bnEk6z4VzpwkJ0vL+1xsJbj+Su/q25/Gnn2bC5PGM6hHN2U0XsIW0Y9i8Gezd/TWD2gRQVVbK/z5bj1friXz0zksYsCHOO7VpXARBIQn1F91M4Ejhjfe/4UxOCPNGduJSngeHjyby2x9PY9euNezff1weFmYyV/H6GytYuOi3fPvth6xZvZ9nn3mOpOQstm9fzazZ/fnf20sZ0G8awSFBFBadwFjVjp49OxAQWMK2rYcZNnQkXl7BfPDhp7z55s+w2wpY9NnnTJk4nTJLFQu2XODxB2egzT/M62+8w2u//h2FFSZWblxLr44aTBUa8nJ8iI3thNVaREpKDoEBQfzi1Z/g56t43lzeHXlUfJ1LWby0kJOazG/+/B4d4/tw4eQZRkwZwLjxY7h0/ATLv1jM+LvuZMjAgSxdsoSTqZf45auvUpmRzecLFjBy+hSOnT2Dt0bH5DFjWbJ4If2GxHPhfDLvLt5GdN+J/PrRoWz8dgMhwXF06RLPnr17OHv2JG+88Rr/+MdbVFWZmTbtTo4eOUdhfgXPPD2ZE8eTWfrVDn7166cIDQ/BQ6eX6ePNFgsF+YX8+NlXeO21N+nQIQK7LpsPVqxiy5FK5gtCv+s0hQXJ/N8r9/HWfz7H18ef556ZR3raKVav3kr79t3Ys3svNpuJXr3jOXXqHGVlNiZPmiL1goenpyLZrnUVRxa7dm/lryszeOO5eRjz0vhmxSomjh1DZVk2H330Cc88/TxdOsfw/vubiGsfS3BwKfv2ZXPvvfcSEeHLuwsWYGnbm5en9eTAzu1svGBjdt843lu1g4njx3NntwTObtyIw8+XdKuZtzZuYurg3ozoGcOXi79gYP/xtI8L48+fbyS2x1CemBDOHz/eTLvYXozuGME3SxfTr69CmD76cDG/+tUz8gyf1NQ0tmzezJw5s2UivA3r18kD8jJzC3n22afk4YDinJ/6BCGZu378DwaOnMcLs/tx6ugOPl+9gxHjZpN6ai9BvuUEB/nx/hfr0MYM4+8/fwrPqhKWLVtKvwH9SC0qYOv6jfz19TdZtPhLEhMTmTNzNmlpeZw5ncXDD8+gTdswKios/OKVP/PAAzMYNKgbZrODBQu+QauzMGvmCKgo4fU/reHh+4dQaslk2dZC7hren5S8cs6k5fD8I5Pp2CYcnQMKS8r49MvFtG4dzfQpU/D00LdcgrD06zVSD6eLY4xbR9Gvby9iY6Nr5yd3W2LQaR3YHfDFl8tYt24tUa1a8corPyc4OEgutBVn5rNkwULC41ozaeZ0vAVBkHma7Vi1YtYqlKL7Ak9tgmAyp7J65052ntHx5Oxp2IuyWfjZ2zzx5N2sXHGesjIzL75wN1qKWPT5fjQE0C4ujPfeW0hQYCvCwkL5fz9/Al8/jTyYaevWrdjtZVh1+by3NoWXnvslcwZ24OzJk5w+e5rSchslxSWMGBvDpt1ZXEw2MmlIa9Jzs4kIi+LEsRM89dSjkiC4X4L0pKde5C9/+SN+PkH07N6TAydy6dJ7CPfe1Z8AP+UkTNclXKnCnfjf//5XumQvXcrm92++SafObaTba9Gi1Rw/forINgbSyguIDgnh508/wt/+9AsKCzUMGTGSfWcvYTa05qHJHfj9vxfw4GO/YXa/9uRlZPGnP/+FeT+aR7/evRpMVFVWUMCijz7GMyKMh+Y9IvvAbjWx8KP3OZuUxh//708ykkL4eYxVqbz973+Tma5lwMB+ctkiKekiTz71GAUFhWzbtpmgILiUl8amix787vm5JJ3ZySsfnOE3940jL+cCh8+e4dGZM8FiZfehkzw6/xHaRIRLF7ulsJTvPviUjSePMmTYMLysDjLT09GEBzH3kXmEhgRJUqkkkrKhcRSTeOww/333IG+8/mOCwwzYJdFUTGvDBOEwD/9qOU8/+SIj2hkkQWjTNo7WsW158/e/5847RRpwPy4VVGAINTB6UCSvf7CeiJB4+rbx4+tNa4gLjeCPr/6a9Rs3kJqSRGSUg+/2nSUkbjJTerbhvbf+zKQZc/hm3SZmdo2jnFDih4/i3OFl2ArzsGoc5Fm8OV8Uzgf/fRF/hxXhtLY6CYIgyo0SBHsKr7+/nINJXszqG0OR1ZfkjEx+NHs0KadOUlZcxMyZY6iqKOTOmX9j5cr/48OP/khGWiDDh/eXxCEv7wIDB3Xgg/e38MwzL/L3v/+BhE4dGDxoGlnZx7A78ji4P5fBgwbh5a0nKTmZhx96gLKSFElk+/cZSoW1itXHi3np6XtJO/4VyzflMHvyFDzsJgoL04iOcXD+bAnR0X1JSjpDSUkhd999N2vWrOEXv3gFXz8fJYmZy/vWQCI1hSBYyUlN4he//xcBhljyMnJ4/W+v0DY0hE3frGLD5o08/tMXSGgfz5HDh3nvk4/4yxu/Jy03m08+W8hjP3qExCNHZabXcWOH8MVXH1Oi13Lx9DkCwrtQ7BPLm09M4Nzhg1y6JJYRvEk8nkhpWRG/+c2vefbZ5+nYMUF698rLHei1vtx5RxyLFm3AbkvghRemiRUGJebIYZdjrKiojPnzX+FPf/gjHRMCqTBd4N1lq1m1q5i7R/SX7vuC/Au8+Mg0fv6z93n8sYeYOrUHRUXn+Wb5NhyOAE6dPEPPnt359ttvGDCguyQhWvyYe9+DGAwGxQtZne8+k527t/DWmhz++v+epCInlSVLlzFu5CjKS0vl6ZS/+90raHU5fPrJAcwmK6HhVWSkGXjssYcICbPw6VcLWX/Rxr+evJf1K1dy1ujPA8Pa8O8lmxkzZiIj2wayavkWIvwNVGqMfH7yEKP79GZYjzg+/fRD4tr2IDomgPfXHqXHiCk8PTGc195bj59XLINjA9ixZS1jxowhNCSWt956j3nzZlJSWiSXGEQW2fvmzqVr1y788Q9vcuFCEoOGjebhhx+QdqL+8qjwICQx79UP6db/Hl6Y2ZfEI9v4cu0eRoy/k+TEzZw6fxKbWGaL7kyKOYrfPnUvpalprPh2NXfdNZ7c/Bzp1f6dOBTv929itVgYPmQYVosHlZVeTJw4hLZtQ8UqCy+++E9+9Mh0Bg1pT35eKe+8s4huXdpzxx290dkKef6FJYwaFotfuIOF32UxoXd3rBYrydk53Hf3WHp264hOayG/oIgPF66hU+f2TJ0wUvEgXJfsgd+/F0Kzc/cRR1lZGSkpl6R7pVfPbrSKDFNOYqy2bhpnDIIdh81K4omTbNu5R64N7t2zm169ejFr1kx0Gh15F1JYtngxQW2imTprBiFhoei1GrIy0vl00VcyzmHyhLFyDd4ZyufWajtGcw5rdu5m32kzj8+ZirUomwULP+LxJ37EqdMXWfHtKl5++SkqynPZtPkcvXsPwtvHg88WruGRR+5k6bJVJHTsxpw5Yzhx8hibNm2gX9/OVBrTefWDzbz2q/9jZt94MtLTqKisIC83n107tzJ4VAK7zlRgNPpz9/BOLP56KW1iO5CXmcOTjRKEFP71r7/Trk0Hhg4awqrNRwmIaM28e8YSaHDu3nDLwCg8CB988CE9e/YgNaWM1NQUnv2xcAP68sEHC9i37wCPzn+Q9KxMue7146ef5K9//ROhIaHMmj2R9XsOci7Pg3smdOTfC5YQ13kU88b258zxE2zcuJnnXnie2Ogot1lHDbSmyjLWr17JmbRMHn38SYIMBrBbOXxgF3//x9v89OWf0zqmNR7eeny8Kli+ZBUXk22MHTuIgAB/GYMRFxfDzh072LZ9C1OmjOBA4mFWH63g9688yoWzu3l7RQYfvvYkeSkXWLFqFRPGjCYmNpa/fvAVI8eOZ2z3OHw89PjaNaz97EuOZ6cxYchwdu3aSa7FSExcOx5+5BFCggKVWacUQTsaRxmFBbn8+ndfMXJEP0aM7CvXm4MD/PDxErOsOm5su4g7OcEjv/iEuff9iAGxBpYs/YrW7bswaMBA/vnXPzNnzhxaRUZi0XkQEGLAZkrnb1/sZNjAEYzr3oaPP/2IspISXnn5Z/zj738nKCSAgUMT+M+i1YS1n8DsgR3Z8O1invvZzzl44hxdA23s2HOS9t37cfHgapbvSuLVnz5E1rljLNpv573/vYyPw0LKmfNs3LqbwUMH0qt7V6k86o8DscSQwx/fW0J6aRAPju2NyWhn2bq13D1vJjmnEsnPyGLSpGGcOnWcr5en8d///pRlyxewYX0Wzz33ABqtHW8vK57eJt5/dy8vvfgjTp8+LGNVCgqKOH9+H+HhYezfX8CIEQNk/I6IKenQvjVJF86ybNly7rlnOhWmXN759qQ8qdRUcJCf/XML//zNywTrbXjqHPj6lfPFF7vo02cYrVr5o9Vp5Br90qVLeOLJp+RJsBs2biEvN4+7pk8jRshnHWVZ40G4xG/+spC5d8/iyMEdpJcX8Mr8JylJzWLh54voOnII4wcPY8GizyixmfnNY8/y9fZNHDl/hp889gS7tm3FbrUyZmxf/vXeP9merOfnjwsylMmeszr+8JP7MGgslJVXSm+nWGrat3cPr/3uNd76578wmU3cc/c9aLV6AgP9iY62sWXzWb766gg/ffluQkMD8fEWcSy+MmarqKiUxx57mf/7w59JSAihwpjMR1+vZu/JKp6aOZWS/CJWrPyWl154gpXL15Gdm85LLz1KSnqidPt37TKAvXv2MXPmTAoKC+jYMYiDB3eTnQ1z595PeFiocxuyM4jYkcfOXdv559p0/vKzx6nKSWXZkqWMGTWKivISefjcSy/9GIstg7f/s5GJEyfj5V3Als3npMcsIjKYjz9bQPSAnoyM68DnHy8jpudARrTT8c+vNzFm7AQGhFj51X9X8szD87BZi/nbN18yaegwRvToyfLly5gwYSydOgXx2nurCGnTn/kTY3jrs2306DqEMV2jWPDJR3Tp3JnAgLZ88slyXn75QXbv2U5ycrJMzT916hTSM9I5deoEvXr3ZvO2Pdw5/Q6GDxsilw5rj2QT2DN5e+kO9iUW8vL9kzl/6igZuQVMmjKG1d8t4r3lR/nlC48T4G1ixe5iXnh4Fok7D5B0PpUHHpxGUvJpVqxcxRuvv86XS5eQfO48c++5Fy8Pb/z9g2gVFSGPGaiqtPPTl/7GI4/MZMDgeBmfsXDhInLLSph11xgoz+X1d7bx/GPTKSm6xJod2dw9bjQ6UyVLv1vN7Pn3Mrhnd/SOAs6cOsOnS88wZ84kendr20Bsxfdv6K/2jZqUtAJHeXkF6elpREdFEhvbioAGMimKU1IFc87PzWLz5i0EhUYwZPAgzpw5y9atW6SQC5a4deMm0tPS8PDxZsjwYYwbO06mbs7MSOejz76ke7duTJ08Qa43NRROZ7EaOX4qhZT0SkYM6YK5qpAt27YyftxYaUhXrlzNpUsZaLUBdO+eIA1Gfp4YOPuYe+9MLqaksWrldwwa1Ifo6FasX7+e3JwcAkMNXLLDnVPuIk7nweIvvpBr3GJ7Z7u4towaNYyjp86za+deooINcomhc+eeZKVlMmHCGELDnMFzbjOhgrwsFn/xGWkZuQT6G/AICGLs5Gl06xiH3u1MeYVqOSgrLWXLli1069aNkJAIqYQ9POxMnjyNPXvOILYhTpkymKNHj8rgwAkTxrNq1SqpyIcPH8LxE5dIzzExqH9bMnPS2LBxG8ayYnz0XowcNYY+/XtLF77yvtrOOrutiDOn9vHNd/sZPe4O+vfujV7rwGoqZf3G7ezdewiDnz9x8fGMHTMcs9HMtq37SE1Nxm4LJCIyhrlzx5CZlcbyr7/G7rBgCAjHqm/H7BlDyMhIZd+REp6eP4L8nGx27NpJl86dSOjUiX2HjrFx8xY8ZDBWBFMmTJSzvY3bthIWHCLxEMFE/v5+jB8/Xp6BISPLqwmCDZHJ81xSJosWfYaXlw7fgCCmT51EfPu4+nJkt1JalMdf33qPKpsNf084dymVct82/OLFJ7AXCPf7DhmYZvaNpMfQEfRtZ2D1vmT6du/A4HZhbFi7RpK0mbNms3HDerbv2EFUTBRl+hBadRrI4Fg/zhzey5y592K12xAxHsePJxIZ1Zq05LNYdQbGjOzA8cMHOHAiiCefHIfOYeHc2Qv8+R9vM3bcKGbPnI5PdYyOaKyrz4THzcSK7zaya+9RWX8NEXTp3pPRE+LZtG4h69fsIKZ1F6JaRTF8+GS6dG1PQUEu336zUS6dORwGeZpqr95tSTxexKyZA/Dx1cljzpOSkklLS6ZHj17s23ecM6cTZQxCYHAU980dTXl5MYcOHWbs2NHSlb5pezID+iXQKlzH0lWbSUu+gMbuTXBQG/r2a8eF5EK6do2jR4+2crZbXFwo5XzCxMnodR58+ulKVq9aw+9ee56BA3rX8/jIGFQRnJyfwZertzJl8lT8dDo++WIR0WERTJk4UcY57dy3F6vJjFanY/Y9d1NeUMSGbVsYPnIkfXr24siRwzjsdrr36MyKlSsIjIxnzIi2JCae5WJKEDPv6CsD7Fw4HzlyjOPHj3H//fdJF/i6devkuBNBhILEjxgxELvdg+XLv+PixTNy6UvEIAwdOkR6n8Thbv/73wfcf9/9REWFYzGXsW3XHtZv2kWgjx9Wsz9DhwlC25uKsnIZ11JUko/eU0vvXv1o3z6ePXv2MHrMGOmJ1WgKOHRkNwX5XgwePFwSLWWi5pQLm4XTZy+xNDGHR+8chL04n3379tG9a0dSUg7xn3+/Q//+4/H21tK//0j69x+Iw1HE9h0iBigNqzWchHadGTsxij/+622S06sYHtIGHw8bKy+dJyI8nNcfmseetTs4o6miKtSPUK0Xfbt0pV3r1jLebNCgAcS2jmDpin34+McwuG8om3ecp1N8Bzq1N7Bh3TrpxfX2NvDpp58TEREol7bax7WXgb/h4eGcPHWKwUMG0a17d7Zs20NGRiZ33DGFqKgI6TmsHXdhIjOvmBWrN5CTdpFWEREMGz6cDvFxbNq8lpxCC7NnjSIzLZn9R2106RjNkQM76NAhniFD+5N84TwHDx1m7n33yfG8fsMGMjMypLe0W9dujBo9SnpqRIDogoWLGTlyKPEd20lPUWpqKus2bSIvpww9/vTo34WRw3tx9swJvl25EQ9Rit1A1x7dGTNxIEEGH+yWTCnrx5P8eWz+LCJCvcTC+pV3gl2tBb/Bz8lUy8Lwi1UAmQfB3xODQWRSrG1glGPUxbYgESdgRSvX4vRyQArDJoIRhRtd/C4+E5f4Xsw8RXSq3WalwmJDpxUz1LrBKDWtFE9arXbEsaw6vTI3FFG+Og+xPKGXCku4icQ34gRKvV45eEkEsXmKqGaHHZPJLAPdBMsXRsBqs+PQaDHptHiJGaxNIw+ZkjtbNBqlnnq9dE+KssWsVcxQxYxKa3fI99Q9ElaiYTdhMlVisynr4DYR+OfphZdcSql9KXEYymFX4p2uuontowI7m1WJ5hbrm6ItAmtRJ1F/8W6dTo/NapeGUuch3iZwF22zSc+NKEMjAw8b2Z9jr6KsPIsl3y4j+VIR8x9+irZtWqN1VGGx6TCZRAdr0Oh0eHtJ0XdiZ8Vh18iZjLevp+xbcRKm6GsRkQx6PDx0cnuX1erA21uP3W7DYrWiE/WW7bFhMop1dbFNVifJoai3aJv4zMPTo1reZFCrc1+eQhAciKMrBDZWmeipSmLg0Gnx9fSURKye+058b7VjtJixOWxoNDYOHzvOqm2HeXDuLDq2iZFtEEtfJo0Wm4cHBp0Wo80uZdVfi9wlItooZEoSCbNZRrHbdHrsWj1+IkZCyJyXh6yuaLOol+gr0V6lz6pkv1ptfnh66tA4LBw6fJS33/uUO6ZPY9rkCVIea/bt1Yw5IcdCViwWq5RpHDq5Ju3AyPp1X5ObV8Kd0+4hIDBA1lFiINpjtkj5kX2mFc/ocNgceHjpqz3Von5izCjyZZXHuosAUo3oY28huWI8ie8VEm8xi7Gok8ZKHG8u8FBkQofeU5AOsVNWtFchpnaHTc7QxU4TY5WFBQvWSmL0k+fmyHXxuktCUmIdZhAyatXg5eGLF1qMAnOHOEjOC5vdpugWh0PKkPhMwcciZV98Jv4Wl2tsifrp9EbZLza7L54eQlZqyLPAQTwjnhd4yPFvFXgrusvTKZdinIl2u+sKRR8IeTTj5ekh+9t1mJ3SZ8p7xKxY76GVe6CNpipsNouUI1G2eEa8T+AkxooghTabGbvDuxp7V3XlZg87UgcUa+z4eejRSRmx4aGDrVtWsWrVd7z66u8lkREyoYxPM1ZrKVarqJ8PHnpPdJqz/OKNfzDxjvkM69xT9vfKHZvZvmUzP3/qObnzokrnwKjVYtDq0AtdqNFIuRb6SciJxWzD4RA6WCP1tU6j9L/FZqnO9yD0sLjEgX1ClsQuKaFzBdZCp+qkzrXJQEsX1qK94l3uFkGxK6IPhC4UmHrLtlmtQg9p0XsIeRd954tGq8Fqszh1ulZ6sIQsengJ26DYJ4G56D3Zxx6CfYv3OaTdcNf11fdblO3enl46aW9EnUVdhFxpUHSvXsQZOKzkZuTxj3++w6yHH6ZnjzhE12ubsLH/Btv5qy5eEoSaQWOT2ziUTIoNEwQhBEKZyAU5t4w9Da2xCIDl3mLJCu1YNB4yr8Bltzm6NUUJU3OFqomyXHtK7c79rYpSVHSj4g2oYdxKp7v28StKqCbexy7Wf53re7WzdImACxs2nU4KgF4uPDqfqxdgJQycFRx6WbZZCxaNFsEZGyMITj2unN+gEbkWqjcPy4GnXEq9XYZGua/msCr3jeByK648+ElxyTdKEERf2E2k555l7YZd9Ow2kIH9+qJxiK2kwhAIQ6Xs15aD2rlWXHdftDtW8p119lLL551rtPLX6j3lwiwo/2of8KW8rxYWLmyceCsEQckzIT4SBkm0VdqjhnJgCIJqsYIgG3InhDAEZoxGG94+vpIEubYwuySsGnkpr+IxxcjXaq/AWRpSETip1EEi7+rUOvIhx4lYInGOpdMnjvHe/96n+4DhzJx9F4EGP2fArqs2tRVjzdKDMo7EJYzP7t27EV6/cePGKXlG3C9nf9T6yC6UdLVoOSWs7qFqrgwhSp2V17mRL2dSCSVXgCKjLiPomuA695w4c4M45Kzsu7Ub2L//DA/cdw+du8Qo7tYG1mPF9maNw4hJI7YIe6IXnEiMAzdPnHubxFiXiYecY8j9p7vcuWTL9VlDRzu7wmFrgKkNqXsZDZUjjJAwTArxccmDglHN367vlL6sTpzkzDPi0geXqwMK/5GCL8aCU/wl0RWeiF27dvPccz/G29uzWpdIclktg0LKxQQum/IKHd7ekc7t24JYGjGaTPKIe7F10JUfQgh5LWzlPEf0i0YMc+ckyy0fRnUDXBi6y3QdZeGMM6rWza4JQS3vpxLzoUxgxXhUcFVyV9SZDMmcNcpYkmg7lZewGq5xbnfY5eTHlbTK1Q+1x7mif2vrZsWDrlyKR6BmHChtFJPndd9sR+cRxLDJPWTOIL2kB/UMR30Bu0U/qX1Yk8beKEGwiyUGBHt3meyarRvgf5/2AAAgAElEQVTuGffcf6+RFTHaRZCiEs1ZPy1PDTrVpzM2AKrSYaLz3Iy2NEY16r7WQKsFuoumKO1wbSCq13XOgEqb8HrYwUPjZnIbIghy1IpZr4jDFgRB7FivzxmVt9eQAcXQ1GRhki1wK782aXEpGycLcCkH51mWWodSx8sSBJnTyYFVLCuI2aNGK2NDNBhxyPor/elSPO7J7VzoihtqEwSBZN00QsrMyp3YuVRn3ViBurJS62/3zJtuBMGFhPjIFaRYb2wJBiESewlhFVGRso9EgWKbrWS4TiqkVZYxpNAoLa4hDCJVlusTV8coBMH1tOivGoe1S3k0NtIVj4P0jum80OoVGXH2XANxCK5yqtGvLlgYR1GJyx+lLpSqc6y4ta+6kFrFCu9R3awM9d+rKMj6Br6mt0Xp4h6XIhdcW8ymHXIWKoy9olprX4rOtzgJgqfcQ+/hcMrRZYK7Lic/9fTQ5RRw/aZeVl03rOOupOEVXBRL4uqb2nKlGBkXhg0gJbpJeKucBMH1tMRPKGi7TXoaJbET/SCZtZjIiW3DLqlVZAcRKCu5jBIMrGimGv3kao07qXeRq+rUFdXy4HxODiZl0qa08zKG0bmF2TXKXO+rP3lUsFKKc5XnPo2pIQmuqWhNOxp/f933NC4vNW2rq6Nr97iokwW7RWCtx6rMtxQdJXX9leTj1vy+DkFwuBGEOs13MnqxRV2BzH2P7hUaJ12kYHMqiMt7EFzR6/XLrPnGydikONZWT413dI2JdumDBuvhJAh2SRA01dm6Gu5gMWKF8VE8CFaN+MvFGmvXvy5BqBWY1iQF1YDCdiMIcni7ZrTKcKonv6JpNifBU0LjlERJDuk9EC7wmll6Y/JciwxWH7btrqpqE4QaRSPeVxvxyxIEN3Xl1CXViZNqzHsj3ihBEMR/MfuUBMGpWQVBkHVwzjOcnaqQ0ur5n1O6GzL4igKU73dOFGvUuPv9dWZNLhDkONBgc07nFZPskt+GTKdLaTfQGzV6sZHB536Dm3Fq8O6GBLDhzxoi4LVHYM0Lanu93Mds7UooBMEql2DMGrEUosejdhrMZmvPZhGE5pbe2Hitb1/dSnZ7qDoVpztWznmmhKmRF7iJscub5m4ea0aXZL1u5bgbVtcTTkUgyIobQagracqoaEgbKOW7PGqyJZLUXab+tXBW3LlNIQj1u6eWn7P6nUpZTbPETScIzWiP9CaLEa3H6jziRpkEtNxLnsXgchsKNln7NMcaiZezFtFYGTTjmoM3selOBiiyTl2pCxtTNg1BXKOuLzsynY/WvrvRmkuC4JD77EXaZLEk0viluO8Uli4yRcpNeQ06lS5LEK5SflwuNrHEIK9q5VL9R03JzjFldxI8casye7VVp+ypcZs3vUI1Hp+6A6l2nyjoN1Fe6qoZN1vnLh+NypJcg3ASBImJy30uGq8EP7pUsLsqdbW6Ybmq/bb69rm2+9FN9ddQHTkONNjdPGBXJgiN9MUVCYL7c01ioHVe1PRnmjNmG5BMZ1+I3So2rDLtt4g2aoFXU9RQrXHq3olNMGxOMRZ2uG6K7fpjoTEBcTeuypitoRLK8lrt6/IEoZZBvlLe7wa61DUWXbDUf39DRL0h3JT0+FdLEK5d2oTOUeK4hPzanA1RJgFN6Ntrr8ANKUGzcfM+hzD+IpgmMjKc6Kgw/P3cYxCUDlIIggjCcnWCAkRzrmbpNLeCG1NADYtD8+5urP6yFGFjLtu3td8l/lKcsPVxabroNgfRZtzrBL/+gVnuSwTNKO+ydqs2bagZ/M2Tl8v1jbsxb/C+Jto3l0y66/Yb01c1b3Cp4ZarNq4sJ1dHGpQFK5dKvTH9cOW6X/UdTSUIDb2gKcJQV0ivuqINPXgd9GZT29+Utl62bU2va2MLf9dHE7lX0qX9xWdi6qWAceUp8XXtxOtemGbxklUOkXdaRG+GhYUQ1Sq8TibF60cQrrb2TRcH8Ybm3X25OtUN0Gv43vokwZX+xv3+FqfsrraznHOSWoFf1Svs139YXkM15aMNScsPqa+uFb/LPX+lqIwrvbvF9UNTDeTVEoQrAXZN318HvdnU9t+WBEGA3/iy5DV1zU18WLNh0z5HQkKCrII42CPA4IuhVh6EHy5BaFq/qAShLk6K/6C2triaJYam4X9td6kE4drwUwmCGwJNNZAqQbhGoWs6mfn+PAi3KUH4138+dgQGBREUGECHDnHEthYn5Lmf5qh0Ru0YBAFG85cYrlYqmi4O19eD0PT6uruPlU04da8WNxtqeuPr3akShGsA7zZ6VPUgNKMzr3lW3Yx3NXhr87Rso0U0pRrX3Nam11UlCE3pkMbv0Zw8fdEhkqKkpKRQWVnOqJHDCA8PqbUtQ/Rn7RgEV4Hfj8u46eJwswhCDcDNq+u1dd6t+rRKEG7Vnvl+66UShGbgfc1Gsxnv+gERhMb08Y2xXLfhEoNIlCSywCUlJckjn4cM6U9ERH2CoGRHdAUpfr8EwWX2G5qVNzws6vr6vt/R15Cn8futwbUqi2t/vv4Sw62LwM2VlmvH+lYt4Vo87qJNt67ENBHxawWgia+5Lre59hLXK+wae+GGYNBYoQ3UtSbVTK2WXWOrGoH89tP8msSTFx2VlVXy4CARrNi9e2cCA8VxuzUYiF9F6uP6BOHGwHxdBF4tREVARUBF4GYjcEMM5A1o1I1U5TcTgxvZrhvQDbdakZqvlq5xiNzlkZGtiI2NkaeY+fuL3O4NEQRXHoRbrRlqfVQEVARUBG5BBG6mcWwOHDfSkN5MDG5ku5qDbwu9V3MptUB2n8hzLXIc+PuLYzBVgtBC+1OttoqAisCthMDNNI7NweFGGtKbicGNbFdz8G2h99ZJtYxKEFpoR6rVVhFQEbgFEbiZxrE5cNxIQ3ozMbiR7WoOvi30XplqWam7ONjF4SQIIpOiq0XKpj0lBkHxNKiXioCKgIqAikATELiZxrEJ1au+5UYa0puJwY1sV3PwbaH3atIySt0Igl0uL4hlhvoEQWmhShBaaE+r1VYRUBH4/hG4mcaxOa29kYb0ZmJwI9vVHHxb6L1OD4L0EcjzrP39PesQBGW7kesobJUgtNCeVqutIqAi8P0jcDONY3NaeyMN6c3E4Ea2qzn4ttB7NRdTChwZGZkYjVUEBPgTFxdNcLChgV0MqgehhfaxWm0VARWBm4XAzTSOzWnzjTSkNxODG9mu5uDbQu/VLF6yxhEaFoafrw9+ft7ExETIrY71tzmqBKGF9rFabRUBFYGbhcDNNI7NafONNKQ3E4Mb2a7m4NtC79V8u3KTIyGhEyIXgqenjqAgX/xrncWgLjG00L5Vq60ioCJwMxG4mYbxatp9I4zpzcbgRrTparBtoc9oFi5a7mjVqhUi3XJQUADx8W1VD0IL7Uy12ioCKgK3EAI32zjeQlCoVWmZCGi+WrraER8fT3FxMUZjOb16dScyMkxdYmiZ/anWWkVAReBWQUAlCLdKT6j1uEoENGvWbnN0696NwoICsrIy6N6jM9FRkSpBuEpA1cdUBFQEVAQkAipBUAWhhSOg+eCjLxwhIcHYbDZCQgLp0aMLISFBKkFo4R2rVl9FQEXgJiOgEoSb3AHq668VAc2BQ6ccIsmByG8QEGggPCwYf4MPGrdtDLXzIKhRH9cKuvq8ioCKwA8AAZUg/AA6+fZuoiY9XRzWpEiyIAX+/mIXgzcat4zK4qhwZ6Zl1EzLt7dAqK1TEVARuE4IqAThOgGpFnOzENBkZBRKMRYOA51Oi5+fD74+nrUIguAPKkG4WV2kvldFQEWgRSKgEoQW2W1qpWsQ0JhNtmoxFh4EceSz9BK4rySoBEGVGRUBFQEVgeYhoBKE5uGl3n3LIaBxOByKGLsLc90wA5Ug3HIdp1ZIRUBF4BZHQCUIt3gHqdW7EgIao9HoXGIQngOtzKjoHqDoIg/qEsOVoFS/VxFQEVARcENAJQiqOLRwBDSHDh2STgSz2UxgYCAdOnTAy8urdrNUD0IL72a1+ioCKgLfOwIqQfjeIVdfeH0R0KSkpDpMJiNnz56TxGDo0KH4+fmqBOH64qyWpiKgIvBDQ0AlCD+0Hr/t2qux2RyOgvx8Dhw4QNu2benUuRN6vU4lCLddV6sNUhFQEfheEVAJwvcKt/qy64+AxmK2Og4dPkxubi7Dhw8jODio/lvUJYbrj7xaooqAisDtjYBKEG7v/v0BtE5jNJoca9euo23bdnTt2gVPT71KEH4AHa82UUVAReAGI6AShBsMsFr8jUZAc+TocUdOdo70Hvj4eqN1S7Fc/XKnB0EEM+p0aqrlG90pavkqAioCtwECKkG4DTrxh90EzXdrNzjiO3akXbs2SpKkRvCwO/c5invUS0VARUBFQEXgCgioBEEVkRaOgCY9M8sREhKCp6enTLfcKEGw2WUuJZGOWb1UBFQEVARUBFSCoMrA7Y2Axmq3O9wTI12eIIglhjo7HG5vfNTWqQioCKgIXB0Cqgfh6nBTn7plENBUVJlribGHXotH3W2OgF16EFSCcMv03C1XEZcY3dglKBEHoxEHhdzY19xy6KoVaoEIqAShBXaaWmV3BDRZOWXVxz2LAxn8/Tzx8/WWyw3ul0IQ1CWGW098mqqFmmtRRbkNPVOXCLi/X/x+Y5egXEeH1Hi9BG1V6tncFt56fanW6LZCoKlD87ZqtNqY2wkBTVpGsVOMhZq1YzD4YPD3UQiCm42wOQ99lLsYXJ83ZkNuJ4Ru6baIDnBgNJpkf3l5eV7GTIoObaoJVcpV7m/g5C53wcDuREgQg7rPuAtK00y49BA0sJNGfF5VVYX46efnV90rDuzOGmjRurwLTXvVLd2zauVuAwRUgnAbdOIPuwma1PQiZwyCUMwOSQ5EHGJJSTFms1Uq64iIMBnEKC5BEMT5j9JsCK7gPAyyIaX+w4b2+2l9ZWUlp06dkjksfHyUFNkN7VQVndWY8W24ppfzIDT0nYtUNHBWePULLk9QXPVzyZTSFuUZ8VlxcTGHDh1i8ODB+Pv7K5/Lf4owaqoJgktAVabw/Uih+pYGEVAJgioYLRwBzYcfL3ZYrVapcBMSOhLbOprS0mK8vb0ICgygtLSC0rJS2raJxcvLA61Og9jymJSUTGhICNnZmfKQp9atW98YKG6El0IuqjQ8U70xjbgxpVZWVrFy5So6dUqgd69e1Sd2N5jKQrTZYZcndjb/cl9WqOtdcH0nPAmuJQb3dzQvNkEQgQsXLnDixAlZ144dO8r/Hh4e2Gw2du3aJc8MGdB/AFrXjpo6jgpJGTTOWIUme02aj4r6hIrAZRFQCYIqIC0cAc2qNVsd8fEdycjIoLCwgDZt2+Dt40VEeCgenno5G01Lz8bb05N2cSJXgoOSolKOHT1GXLs2ZGZmyPTMCQkJUok3dAkCYjKZqr8SOyGER8Jut0ulL/4LwyCed30unrFYLPJz8ZnLgyE+EydPistVjmuWKT4X37s+F8/K97rZKG9vb2l4xDvFvaIOer1evtt1qqWItxB2RdwnjJEoX9wnynd9Jz7X6/SSaLjKEfe7MBD3it/Fs672iXqJdomfOq0Oo8ko3ynqJMoX5Yh7xSWx8PCs5+F3za7Fz8OHD3PxYgqzZs2UdRWfiTJEsiu9h16+S/z38fHBbDLLurrjLuov36dR3ifqYLVa0It6yj7RyMyadjuYzRa8vET9HZIgCrJos1mwWk3OZwXh0stzPJR+FX0kXEx67KIcD53802g0ynbpGgiEdeF//vx5YmNjKSgo4OLFi3Tv3p3IyEjZvry8PFasWMGsWbMICQ5R8HE4sFosWB3gKWTQuTIighmbuqjSwsexWv1bEQGVINyKvaLWqRkIaD7+dImjffsOVFSUSwMYEhYiDZfZZJJGQihfg8FAQKCBHt27YrdbSU66xPmzZ/Hx9iQvL5fQkGB69e5NVFRUg+vHYkaYlJSEr6+vNEjipyAUwmUszoBwkYHg4GC6dOki65GWlkp+fgEmoxGRp6Frt27SuAmDcfbs2WrS0K1bN+nByM/PJzMzk/LyclnfuLg4uWYt7i8tLZVGWRhiUb4oT3x27tw5ysrKpPekU6dOOOwOjicelz9dRrNz584EBQXJss+cOSPLEW3o2rUrERERsg2ijIqKCmnAYmJipEEWrnDxroCAAFJTU+V3Ah9h/MQ9oo779++XxnT48OHS8In7BKER/6Ojo+ncpQu6Rmb8ArMtmzcT17498fEd5LJPVVUlZ86clUa6ffv2EvOsrGwmTpjA+QvnsdnsxMfHk5qWRllpqcQoLS0NrVZH125dKS0pISnpPHHtosnPL6GyCuLjI8nJKePixTQGD+5EZmYl2dnF9OjegaLidNLScujSJZ6S0mLMJl86d4qjsqqY5OQT+BsC5WdlZVYSEtpisxvZs3uXxK5du3b1ZMV9aUH8npWVJfESfdCqVSuJocB+w4YNsn1ChiQHsRi5eOEcORUaenTrjL93DbFSCUIztIF66/VFQCUI1xdPtbTvHQHNJwuWOsQMWlzRMdGEhARLV3FgoD9e3p7YrDZycvLxN/hJj4HdbiMrM5v0tDT8fb25eDGZhE4JdIyPx8vbu8EGHD50iMKiYvr160d+QQGZGZnyGWEAhFHs0aOHNN7CAHfv1lUa25RLl6QhFb+fPHmSyVOmEBoaytEjRyUpaduuHUkXkiQxEcRBzKaFwRCzSjE7dc3KxYxVlCtIhJiFCuMt2isIhShbrOGLOggjJL47ePCgLEcQgdSUVCIiI6RBE2UIg9urZy/OnT8njb0w4uK9wngJgy8IR1hYmDwVc+3atfTp00fWWXwu6ihc5eLUTGHcBHkRbnRh9GbMmCHbKD5r06YN5y9cwMfbl4GDBsi61lyueH0oLiyU75g4eTKCWAlPhSArR44coUwsCbVtS2pqGrm5OcyePYfkixepqKiUpCAxMVEW2a9vX1kHjVZL/wEDKCzI5+TJE/Tp053c7HxKyyzExoaQmHiesrJKpk0byfnz2SQnZ9K2bSQmczFpqTn06tVFxqacPp3JuLEjqaws5PiJA3Tu1JWcnCry88tp1641BcVZ5OfkEB4WzuDBg9C7e5ycSyCiLuISJEkQwZKSEikfgqRJAuGAffv3SVxE/dFqcFhNpF1KIrdSS+eEDpIgqMTge9cl6gvrIqASBFUmWjgCmiXLvnN07tyFlJRL0ovQu3dPqewtFjN+/r6Ul5U7AxUjJEkQM/rkpGTSU1Mx+PuSkZEuZ6V9+/VFV8uYOZFxII1ocWkZo0aPIicnRxrMDh3i5ay5vKKcvn36SlJyYP8B2rRuTXlZqZz5C2Mp1s2FJ0EEphkCAti5Ywf+/n7EtG5NYuJJEjp1kjN4YeTHjh2Ll6dXPbe8mIWKmbyY8buWHYSxF54K8V8QFeHGFp4EscYtjKsgCNnZ2XTo0EG279ixYxQVFdG/f3858xdEQBCYzZs3S3e4iKwXBjoyIpKo6ChWrlwp4zLEe0X54n5BQsSzYnlCEBdBSAQegiAIL4uYzYeGhZGRmUVQUDCDBg3Ew6M2QdA610vEbH/9uvWMGz+BoGBB6pBlnT9/jqoqozSw4p3p6Wn06dNX8cpkpBMZ2YrsrCyJkfhckAWzxUxCxwRJLNLT0+nfrx+lJaVkZ+cg7LXwMBQXlzBo0ADOnj0nd02I8gMDAygrLZPtbde2Lbt275HYiXTcFRVlso9PnzqDp5c3xSXF2LUa2sTEkJOZxbChQ9C7L6FIZaoEE1htVomHWGIQ5QkyJvrDlQPh8JHD8v1DBg92LjHYJXG1oizdiGzgKkFo4Zrpdqi+ShBuh178QbdBs2LVZodwhQvjkp+fR58+PTEYfCkvL5OKXqxpi9mbsrVMg8Nu4/+39yXgUZVn2/fsk2Qm+76vZF8hAZIIsgkooCiCaFuLVFurrba2X63/97f9v2oX0W621c+dgoDsggoICIQtLIGwZCP7vu/JJLOe/3reMyeZJAMEQRA856oNmbznXZ73nHnu91nup6KiElWVlfDx9EBxSRFT3qFhoewkOuZivvKz6O7pxTR7AKGvD0lJScz3ffH8BcRET0BnRzuqq6sRGREJtQPFDMjg5e2Fvt5eHDx4EMnJKczvXVhcjOjoGHY6LyoqYid0Os3Txfz8VtZHAghkQfDy8mJKpqOjg1kKCIDQyVswY5MVIDc3F+S2oHvJakCggk6wdPKnPggsHDlyhPVFZnICFNSGrAl0ESCgiwAC3UcWBAIjBArIjUH9EzDKzMxkIIEyEBYtWoSiomL09HQjPCICl0rLoFAqMTkjg7kLbC0IAkAgn/vBAwcRFBLKLB60LnKDkNwIGNC+0dgESMgCYjAamWWCrBd0L1lyklOScf78eUglUqSmpTKFXFxUzE7m5IKg9RP4IQVNFg5aD53qae2Cy6aqqoo9HwR+CODQekhONCcCQASsqA+90QhnN1f09/SgvqYWWZlZbI1DmpzFPnJsHcUlJSguKUZycjKz+rB4Dyv4pL/n5OSwOU2IimKgwmI2or6+Af2DRoSEhUJFsR82GRDf6jdcXPytk4AIEG6d7MWRb4gEJOs//pQjJUy+bi8vD0RGhjH3Ap3cBcI6pvitD7tMKkFLSysa6urh6eGO+vpapE2cyAcRjjm2sTxIZjHo69chOTUFHR2dTJGQQiWF1tTcBD9fP+YWcNZoEODnjwEd72Kg7Akal8AJKXNSdhQ7QEqDfNHdvb3wDwhkvn6yIlCgJSklAg+ktMn0Thd9Tn0IZmpSzKQYyb1Argj6ncCF4GKgz4TARDoFk7JtbGxgCp76yM/PZ0qQzPV04qZ1CMGOBBoIaBw7dowpOJpDRUUFU3xkUSAgQ+NQXzQvUrDp6ensxEyxEWSVKL5UCqPJhPi4uFG1LzgIAIHkQgq8rKwcs2bPZusg4EExHYJFg8YkmZHsKJ6kvaMDUVGR6OzoRGtbKzvhE3ihgEYCafQ59RkTHQ1dfz8DDLRGUs4EDGhtwt7RXGkObD2ODuxvZKUg5U3AhPojudG6aE2ubq6wSGVoaqhHS0MjUlNSeReD8MxYAYJO148jR4+iu6eHARHaSwI1AvCj/Sc3CllyNAy0cgy0EoA5e6EQ8++9F+6urgRl7cbD3JC3RuxElMB4JCAChPFISWzzDZaA5FJZI2e2mFnku1qtgLOzBhqNAzMt215CNUcCCKScTUYT5DI+G4An6BnFqWOTOUAR8GYLB6VKNRStL5FKUFRYxBQ7KRM6JSoom0BG0fh8RD/LVuA4ZkEYHBzA8ePHkZY2EVpnLZ9qWVGB7u4epKSksJM7KXo2DYmEKRbBgkABfRTlT7+TIqeLTNQs4l8qZe35YlUS9rnQRshioPvpM5ojfUbzop+kOIUMDSHAjhQ1jUPxBNSeTN5kwqd4empP/6a/0/yoH7qf2tFP+rtURtkNBgYo+AwK212wAgRrWh+Z+nNyDjNgQVYPWgP1Q30L6Yw0D+qXbjFbLENtaN+oHcmAlLSa9sZsYZYGygSg8TmLZUR2h7BeW9mSvARZkPzJokIWCzrhC1kVwrpI8kaDAZzZDLWKB2EjAAJZAywW6AYGhvaA2rBnwybNkQAIrZfdz1lgNhlZbEpJeRXmzZ8HNxeXy3BBfIPfRHFqd54ERIBw5+3pt2xFkroGnkmR+XclHAMHGo16yHogyIMUPOkqAggjDQXCW2DvbeAtCPy3tQSWoX+DAYvi4iKmSBlAUKr4fpmZWWDno3ulTLmazSbmYtA4O/OKnwNTJKTgNE4aEOCgS0j3E4ACv67hGQt+bIuVE0BQ7ILFQLhPWLfwd6Hf0X2Nfl5siX3o33Q/KT0BiIyO1Bfup7ZD7enfVrw1Uqo8QCDFLZHwtgSKDSCLBpn0hSySy82RZzAYTSzB/y6Y5EfIyyo7WxkNPyv82uhigaBFxejo7GBWEjrxj055pZZsVzkOMrtEDVZJ2AkeYGCF45j7hFxhFPxJoIEuij0oKriIS5dKEB2fjMiICBYLQ4Sf4iVK4JZKQAQIt1T84uDXL4GRVMs2AGH0dzgBBFIvcjpx2+W+udLbYGXDGzVfi5X/QAhuFFoJSpw1H5qI3UGHexyt9y4jm9GAYXQzWwUuKOzRoMFu11cY3y5IYaffsUzGVkv7ZaLsBAuCALpI3/IWHQIgzGpwpXlYFfTQ/K182gIzprDey1EdjwFaVgAkpB/ST2YtsBOLItAoMRBnj/TZ9vG5DEggoCWMMbwHFhZTwUCYQsXiYOj5JBcD2zfBT3b974rYgyiBa5OACBCuTV5i62+cBOwABDWzItgCBHb6IzcEVXOUyr724jhXU+LXI8Wv0vdXuedKc7xSfzwMu9xlE4Mw1OSrMCOO7H+0hcDe6NcrAwEgCLp/9M8Ri76m0z/fMy83ekKJcpllP4qXKIFbKwERINxa+YujX7cEbAACma3JxeDIXAwjLAiUfm4xQyIh1j0pBgcoZkEOlVp2+/l6x2lpuG7JXhEh2K+bRDEJRPRkMJng5KSBkxNfW2H4+noAwpWsDkNjX6fc7AGfEaWgrmJBuLw47QCEr72m5Nf6dIid3ykSEAHCnbKT39p1SPLOlnAmk5lR6lJeu7u7yxiAQCcyzmICJzHDoO/FibwKOGl8kRQXCJXy+k+w31rpWxdOp3MCBpQi2NDQCJPFgvj4BERPiByVOvo1AYSbsAFfK0CwxkJYWFyGxL4L4yasURxClMAoPC8KRJTAbS0ByfYd+ziiPiaaXq2zBkkJcXB1046wDEg53sXAgU641fhgaw60Xgl4eFY6nB3s11+4PqmMPK5eNvqA/cEGpl/RrHyZP47onOog0AfEPTA2bsK2h+EZDndw5SgJngVwrMmFg9EwgNOnTiP/3EWERUTCydUD4aFB8PX2sgmwFHzqwk9BwrcHQPv6AAKjYGTCIIBA1wjLxPU9iOLdogS+ugREC8JXl5145zdCApWjV8cAACAASURBVJIDOae4AH9/ls/f1dmOqVPS4e3jOUKPkQWBBYhBD11vOd7Zegh6hyjcFeULNYyMQ8CFCIJugN+XMhiI0ZEqFbo4uzCugwZiNIwkCl0HxvBHtME0lJ+PL7x8PJi/2WgworKyCr39fazWQ0hwMBw1jizCnkh0urp6WaZEeEQ44yHo7e1jVMRUy8nL0xd+/i4wmRpRVV2K/j5HSCCDRuuM0LBwRvJEWRLuri4si4P6rK6tR1hIEIx6Herq69HfPwhXdw/4Ui0GJU/UM3wxEwz7leOkaGpuQVNjAyywICjIFw7oxiebtuFiTQe8AiLRr/bAfTOmIiUiEBTIWVNbg472Vmg1WgQEBkPloEZ7Wwurl9He3gVwEsZXoFIq0dvXy1I+HRz4AlBVldXw9vaCk0Zzy91Bo78vh2Q0ni/Syz5bVuBFsrX6xW7AY/iNeDnFSdzmEhjPc32bL1Gc/p0tAcnJ0wUcEQ9VVVWioaEOd2VNhb+/z5gYBAEgDPZW4B9rduFo6SCyI30w0N7AUuwefngJlMrrtSZwMJt6cfrCeZwtbkZ6TAz25nyBPv0gfvr9H8BF7YBjR3JQ31CNtq42GNSeeOD+eQjyccHqTQfQUH4JoQFe8PDwRGbmVFZL4tP9OSgsq4a/iwO83V0x4+4psHB6fLL9FAYG9TCbTBgYMGHevLvg6NSPN/7+OuImTIFCrkdpYy9m37sM3a114NQKzJ0xDc5KDtVVRfj1nz/Ab158CRXnjuFicQHcXJ3Q2WvBXXffh0kp0VDKR53sCSCYOVQUFWP3gQNQqpWMJXHy5BR4Ovbggzc/hN45DLPvW4i88hKUVZbhF0//BBePncChnEPw93dFv8GEkOjJyEqfgPVbdqK4tAmTwgPR3dWBiIgoxMSkIv9sAbKyUxEZGQS93oDf/vZ3WLZsGVJSkm85QLD7Ko33S1TU+nf2N9GduLrxPtt34trFNd0REpD8+60POapBQDwDFKQ4a8Z0BAT4jmShs7EgEED414Z9aLH44QcLpsHY3Y5XX30Vr7/+Ory9PUeemq/ZpEApa0348tQJrN9fA0VvH/wDnLFw4XwkBYRCajKhqaIUkA2gpL4EHx+vxcL5d8NZqcO/t13CC8vnIzaAzPJSKFQKFBQWYOveo0ienIlpiRFwkkuhVvch7/QhrFl7Cc8/92O4uFqwdcs2yBWOiI2NwJtv/A0vPPNzyBTt+NfmHATFzYA72tAm0WPxzJmI0HCobT6HZb9ajZd/8yec2bEO8anxiIr0wqZtx+Htm4THH50DjROfpz90UUnirl7sXL8B2mA/TLLWIlApOHTUn8bnm/dgQvb9mDQlGUWXDuEXf/obnnn2d3j/j//Ayie+g6ysCJwuuIRD57pxb7YfNu45BUfXBLzw0DTUV5fj4483Y/bsB3Hq1CVkZcYjPj4YSpUSP/3pc3jyySdZ7YNr3o6b8YiP90tUBAg3YzfEMW6kBMb7bN/IMcW+RAncQAlIyiubOCqOU11ViY7OdkzLmgpfX1vfNz8aseyBXAw9FXh7ywFIPZLw3blToO/qYApo1apViI2NGTqlCsRL1+YRJoBQj/3H9+P/vvsFmvqc8eLypXh8XiaclAq01dVh1R9fRp+uGZ36NtSpIvGzn6yE1NiKDUf68LefPQoftYIFqlHMxJlTuTh6LBfzFixC9IQoa7hCJ44c3omNG6vwP//z33B168bOnVvQ0uKK2DhPvPK7n8BfG8/cFAbfaGTOX4y2kiPYfOBTeCtUiHeVY8kjmfjBa+vwwrP/jX+8+CICQoPhrNVCZ3DF/AVLsXTxVDiOic3g0Fxfjw3rPsKMWbOQkJIKqYQKEA2ip+EMDuz4El7x2Zh6VyZKSgrw0m9/j6effgkv//afWL3mTwgJMqGktBrbPitB+kQH7M6rQlTcPDxxTwqqy8sZQJsxYya++GI/2tvbGCPm/fffj82bN+PZZ59FVtbUG/jY3MCuxvslKgKEGyh0saubIoHxPts3ZTLiIKIErl0Ckktl9RyVAWalij1ckZIcDzc35zE89gJAGOglgHAQg+pwPJidjOL8PHzyySf461//woo8lZWfwd59XyA+diqmTs2CSmW/BLT9qRJAaMDBU8ex50IXIv39UHH4LGZOm4WUmak49dlu7Fi/Ab955Te4WFGKDw8UYNnDCxDtq8KqNzbg0QVzkRofCZlCAbWTCk0NF7Bty1aEhqZhypRsOKgdoNVaUFh4GG++tR8rVjwJZ2dHbN/+GcLDoxAZKcUbf30Fv/nlW1BoXfHR7uOoaulGrI8MAw4WzEyfgq3//DPuXZCEn719EL//P39G7taPkDolgxUfIh+42skJGrWKUVePvCww9DZhwwdvwaL0xD0LFjPZODo5wDzYiZ2bt6NjkMPc+xZiz+5jaOtowhMrH8Yrv38J0dGJeOihhTh5oRQFVX1YNNMf//nsOLyDpuJ70xNwLq8CR44cxNy5mTh5Mhfp6ZNRWVGJgcEBHDp4EM89/zwyM6dc+9NxM+4Y75eoCBBuxm6IY9xICYz32b6RY4p9iRK4gRKQbNj4Gefo5MjK9dKpk3zpWkaUNPIbmQcIRpj0bfj04Gl8frgIDoZuhAX4YMGCBYiMDAfHUdGcw9iyZTMmTpyDOXPmsYDA8V8czOYOnLtUivOV/ZiZFoa2sjZ8fjAfmUumI8rJCR/87Z/MOqD28IbEJwLTp2cgNcIPF8+ew+oPP2CFg/wDA/HA4oXw91Ph3Ll8fP55Lrq7+uHr44fljy6Cu5sce/flITf3LPR6JaInpGDBwkyYzLV4581/wqJzgUSuhNwnFAsWL0FL6TnsyNkLudGCSeH+mD4zEX/9OA/PP/1TdFcXYte+feju6obKUY177r0Hk9MmQSkfGY/BwQKJuRvdTdV4Z/V2tHX0smqG8xcuwuT0DFRWVGDnpztRU9sMb59oLFl6L0JD1KioyMW6tXvRrwO03kHInDMHiWEcfvuPDbhQOogpfjL4e8VhwYK5kMv7sWXLFhZwSuWiaV8OHjyABQsWIj4+dvzbcLNbjueLVAQIN3tXxPGuVwLjea6vdwzxflECX6MEJBVVrRyBAaLIpRgErUYFLSNKsqlfQBHiZj4FkFIeichnwGyBhLNAKSPCJCoqRO1JwfNFlmQyJePjt0fbe+X1mGEyW2CySKCQSSCxAIMGE2QqOZRSKfRUyIfGpnoMMgVkcilf4ImK/Oh0rGuhyBI1IRpivZ4vtkSxCWq1EvS50WgBFZEiqmKFQgmlksz9JugHB2Ex80S9Ermccf5bTCbojXzhKJVcBrlCigEDFThSABYT9FSMymyGheSoUsJBoQRVkBhzsUwGCwYHDWyNdClUKr44ksUCg54v3iSTK6GivqVUd8HIz99shkQmh0IJDA7U4Pf/3ongiCx8Z04iVNb2BNBoTcRrQTJQq1WsVoVQXOna9+JrfPLErkUJ3OkSEAHCnb7Dd/z6JHUNPUOPsQQWaDVKK1HSSIBAFR8lVGgHRLXMgZNSSr9dNXhThXa9FMBXm+xQXQh7J1im8Dk+vY4DzBKAYJQCUkbWc7XryrwJwwwPbGiW609jmaDX92L33vPw8YtARmrQUN2By40nAAMRIFxtR8S/ixK4gRIQAcINFKbY1a2QgKS2fhggSJkFQTECIAh1FRlAoGJNNgBhfGrwVizrJo05pLR5fqVrBQjXMku+2gCriQmqm6Xro/LQCqjU47e9iwDhWiQuthUlcJ0SEAHCdQpQvP1WS2AEQOBdDIoRLoYxAIEi70lZSeh/lz8nDzMN3uolfo3j30SAYKVZsjoueFAwfmjwNcpA7FqUgCgB+xIQAYL4ZNzmEpDU1nfbuBg4aLUEEIaDFAXFxHz4VM3RChA4CZXttSG1HYUIrmY+v/FyGz0izZyfn+17KijVsZ+NXMDwb/b+ZZ29DUAgtkmyINCoco4kw4Mo/hqmbR6r1HmqYJ4FkK9EaDd8wYZUmlw9rJ/h/7vx4hR7FCUgSuD6JCAChOuTn3j3LZeA5OKFCq5/YIAFyrm6UrEmLbTaYYDAP+McyxwgnceXeyaFxgMEVl6XNbGAs8YkkN+eAvbIvvDVTrm8v50NcqUe+LhIa5NhQMCraZO1pp+cNaHYAGouzEkoP0x/oxI/9J8tZwPfG62Ob8FLwaruR7z4ViAgMP5yfGAlqPIlRXRSfQCO752WM3pFFpghtehhksjBSZSQ0y2jUQxDDRwLqGQggvVmAY8m5Lf8IRInIEpAlIAdCYgAQXwsbnMJSP6zehOnddair68fPj7eSEtLhLv7aB4EjmUOEDAYBgiUxUAecd6OIAUBBBlTXnSwvhEAgT+gW83pNqdxAiDsAE1FGKwX1XAYCSb438nvTj57+o2aDzlFOAnM7OTOf8Z4C+h3Op1LJEOBhzYGAP5vAlKQWk/7ox8AK6UyBXEygMDay/j+7AIEE6QWHYwSOSxQQ0mNrLcJMQOcZHhcAgnkCqK0SUISgpvHNlhTkA+T0Rg+htv8iRWnL0rgdpGACBBul50S53kZCUhyDp3k/P39UVZejtbWFkyfPhWBgf5jFAul8ZHmIoBgtpjQ2NyIrvYuGDnA090dgX4+LO1QCKKjynrDNRGvTf4WkxmdnR1obWuF0WBiZahpjlKpDO3t7WhuaWYdurt7sEJEFs6CsrJyPkVQKoNKpYSvnx8jIuro6EB7RweMZhMcXb0Q4OsFB5kEfT19qK6tg85EZhEF43NwUspY3/5BAZBJDKhv64NEroGfuyPaW1vR2toGg9kEHWdBuJ8//H18+UO87cUZYDJ0o7CqC32DRjhK9FAonBAQ4AdnF61dCwJn6EFzhw6c3BEujg4oq22DRCVBVJAv9K3t6JNx8HbVoLWpGTqzEkE+WrR09EHh6AZfN0f09fSgu7sbfn5+LMW0ubkZPT09LHU1MDCQFW8SgcK1PYNia1EC1y0BESBctwjFDm6tBCT5Z0s43YAOtTW10On6kZWdgYiIUJZHP3zxLgY6pVOmQ01NAzZv3Ym+3k4oVQ5ITU3B7BnTIFOqrxsgcBYTWppbsHvXflRWVbCqhLExMZg1exa6Ojuxbfs2EPMjKUKtszvuW7AATk5q/PKXv4Sfny+CgwPh5uaG7OxprAjT/v1for+/GwbOjFbOA48tXYy0EDecPpWHtevWw6LxQGVLN5559H6E+bjiP2vW4oVfvQC1shNvbj4EtUsUlk9PwPq1a9DS2gbOyQF7C/Kx8p4F+PF3v29n93rQ0VGMR/7rP9BovBHvwaG5pQv3zJmFhffOZa4cW7eLhTOjr6MZm7cfgFnhDH9fT2zYfwIT0iLw1KI5uLBhIypURsyaGI0P/ncNOrVReP570/Dxp0fhG383Hp+VgjMnT+LAgQNYsWIFCgsKcTrvNANLer0eoaGhjHLZ1dVVBAm39l0TR/+2SUAECN+2Hb/j1ivZuWM/p1arIZXJ2Kk9KSkGEREhlwEIRpgMHdixIwcNzUYsW3ovvHw8melewpmtLgY+De+rWRCommMnzp7Jx+GcSsy5Zxri4iIgpQE4Djt37sT69evxyPLl6O834HhuMebMmYXk5Di89NKf8NQPl+Kuu1KZAtYNGLF92yFUVlXh8e8thKubM/74940MPDz9vXtw9NgJVJSVInvGTGzcvhOZk1Lh5+WBv/ztr7h30XyoFAZsP1aCqMRMfGdGAj545z34+PjCMyQQb322FQuS0/GzJ56yCRgQno0utLefx6JfrEfGxOmYGuyAA2fyERMWhpWPLIWTmkDU8GWBCb3t9fhg7VbkXWxEqGcQ7spKR+b0NDjKgMMfvouK3io4q9XYebAIHlPm4MkHE/D+pr3oVobg/qRAlJcUoaGhAd9//PvYvWc3K/08b948NDY24vnnn8fLL7+MuLg4ESDcca+vuKBvtAREgPCN3h5xcleXgGTb1j1cbFwcOjo60dBQj0mTEhEcPNrFIFgQ9NAPNGDDhgMwwxdLHpoJF1cNC6qTwMxC/fQDOnR0dUPtqIGrVssr93FffDXHkyfycCavDwsWzkJIqNdQDsDq1auxaeMmLLp/EeQKB3DQYHLGJDg7e+DXL72BH/3ofmRnx7HRBnR6bNm6l5nbv/e9xdBqtfjDv7cyN8nPVtyHTRv3gLMMYMasKdi0ZSvSMzLg4+mFV1e9ioypk6BW9mHfhSakTp2LHy9Kx4fvbkFtbQOCowKw+2gOFkybjmef/OHYlXHdaGu/gAeeX43w8CRMDXZERVMrIkKCsPT+hXB1dh6Kg2AhFpwJPR0NeH/1dpzIr0ZEYAjumnU3ZmTEQc3pcGD1X7DtzCVEh4VAonZFqyYQj8wJxbsb9qBu0B0zo9xQW1GOgYEBPLHiCezdtxdRUVGYPXs2Ojs7sXLlSrzyyitITEwUAcK4n0OxoSiBGyABESDcACGKXdxKCUjWrtnGefv4YHBggPmqExKj7AcpMheDEbD04tz5ahw8XABXrQSOWidERoQjNTkBEqkcxYUF2Lh5CxJTJ2L+PXPg6HAtxZooGLILly6VY8cnp6FUAH7+bsyPPnFiGoqLi0AgISEhAWoHB3h4eCE1LRVGowIvvvgannrqYdx1VwoDLCajCSdP5mHX7t3wCQiCTOuJ0yW1WHzvbJhbqvHhe5sRERWE4FBP5Bw/jolZMzB1Ygo2r/sPfvlfP4eDuhf/3HQIDm5huDfRE/95fztmz56DjMlJ+Me//gV/Hy889eRTQg6HjTdGh/a2Mjz609cRHhGHSeFeqKlpREhIMB5ashhajdNQISeKteTIgtDZiPUb94FTuiA40Bt7cs9jdvIEzMuMxfaP/oG1ufV48efPoKOxHgX1ZiyeE411W/cjMDYLj96TipO5x3Hw4EEGBo4ePYqqqioEBwez+AuKTXjiiSfg6zuqhPetfOrEsUUJfBskIAKEb8Mu39FrlBw6dIbVYiA3g5enBzw8tdBohNoKwtoFCwIFKQJ6gxmFxWVoqK2GieMQEhyMxPhoSGRKtDQ24PTZfPgFBCEhLhYq0vLXcnFmDAwM4lJJJWpqqlg6HwUcJiUlMmV87tw5FkhIdgkXV1fExcWzOIhjR08gPiEWfn4+EMIn+nr7UFhUhNrWLnTJnBDo4YLUqBD8+fcvQ61UMXAhkwP5JeWo7JHjB48ugLmrEemTJkIm5XCirBFQOCHEwYDaymo2lourM86ePQcHByUS4uPHkkVxZuh1vdh74Cj6dP1wUimgVGkRFx8L/wA/SKRW/klrWiRZEEz6DpSU10GqdkWInx9OnjkHGUyYmBKPqopLaOjoR9bUqWht6kBXlwUhoa4oLa+Dm7svIkPd0NjYgLraOiQmJTJQUFJSgv7+fuYmIjAVEBDAAhbFS5SAKIGbKAERINxEYYtDfR0SkNRUd7CkQUrzk8lk0GiJank0QOCLHglZDJRkZzabYKICRRzdJ2VFjCjNkYIMDSbiAJBBKZePqybBmIVx1L+ZBdrR5Kh/uULOAAJ9bjQSxwGlOUqhoM8lEmYxoPmz4Eo+ZIG3JJhoPhYYIYFSLoXEZMTaD9cgKSUBSckpLKOw8FINcs/U4b55E+Hr6cTmTdkYejPBEykUEgsrpiQjJUv1FkxGVodCLqN2oy4LFbbiYLQMwsAZGICQSlVQyBUsLVPgYmAplSwplNJFB6G3UNyGCg5SCYwmE0vBpHsoMJTSFknBW8xUvInkTXKggFEJZHJeJtSG1k8XFWjii1NJoFQqRdfC1/HmiH2KEriaBESAcDUJiX//hktAUm9Ti4GUl4ZqMWjtWBBG8SBQfh+pO1KgdElvSJDisMViDFES5ROyF85GJbN/CpRHV6FlYoiB+Jw4DPTroHYiMij+HovFyn9AVSEZWyRf84DnYJDCMkR+IPAyWbkZ7NE4sQhNDpyMyKKoNylkjBTBPlESAQCJZRBGqRwWiRJKtkaeaEoga5JxxMtAK6XeBAbLIdqma37EhrilxnMnEzvPDXGzr6++wps9U3E8UQJ2JCACBPGxuM0lIKkbQbXMAwStdmS5Z4FJkZ1SGdUyzzpEKoNKODE1OsSkeD1ZDFcACPYEzUgIyJogMAperjYEz0QokC4RuKGQSna6txITMQVstToQ6ZOVZmkoxoCUMw9GhmwAdjkeiQYZnJmZL0jJs4oVVrIngUlxRJ1GakvcCYxJUQE5z3/EQAk/RwvknIyNTICDIIyVu3IEy+N4nkMBGNhyTl7tviFSqisAhPF8D/Lsj8IMRuZx8HMYtXeMjZNHVdcU53q1BYl/FyVwsyQwnhfjZs1FHEeUwFeQgKS2vmvoMabvY61WOaJYE9/nMA+CzKq2OJmKKVcjx59qZcQ+aKUn5tMcJV+ZKGn862Bqk1farP40P9cxyoZ9LNQ7oJoSI8/iwl1CYSprOaoxAYh8RUXhP976MPo7gEECqx7kW5ILQTpMnzx0v3WVDDxYe7EqRGo83K9gqbGVCm81IaBwpYJZtnfYqmdhnVe0uVhvIPeFVEbzt2NBsH4k9HelfeNpqw1WamjeFcKvm3cX8ZTR1g4ZyLKwZ4iYI2UiQhj/KyG2/OZIQAQI35y9EGfylSQgqanr5MhfTb57SknUaq4GEEz8uZYBBCma29vR1tqKmMhISFnMAWflQbgZAEFQMqPfRDuWhCEDghUgsIJKAqjgVdUwQLAnS+H0K7Tkz/J2AYKN+mMAwUpHzSMoQVULjaxzHfE5b3mwp+CHFStflWG8hn/BEWMDR65cK4PjYDIaUVhQhLDwMGidnW0LX/DTuGaAwAivbdZmKwubPSO6as4CMwMIUgY+b4GH4yu9UOJNogSGJCACBPFhuM0lIDmVV8RRvryXlze8PD15gHBZF4MFMhhZYKJFpoZMIsWJvDPYsXMHfv3CC3Ai3oObChBsT/S0E5dxMVhfVFbRQMJXpRwufMSrTAZ6rApPON+O3Fu+EyH4UbAe2PsOENS79Q5rgSXBUEB+DJu7rO6HkZzNYwECq4RhrRMhzGs8AEG4ZwxA4Kyq2i7CIDRlQF9fO/7+1//FI488hoioSGsQxegYkGFgNSwbWzkNQ53xghlW+AusjBULypSTO2vcN9/mb6Q4/TtHAiJAuHP28lu6EslH63dwLS0tiI2NRUJC/DgsCDYAARIcPnECa9euxapXXoHWxeXGAgTh0C4YCoTjr6AsWP6FkXIqKEcBkPCqnVeKNjs6BBD4jiSUlcACB4dP4FcHCNazOzN/k8IyMLDBQT3CaTDkYhg6YQ8vgo+zHGlB4OdJJ2V+ksLvvNvEOiYLduQBghCiKBzhmemenbSHv41s3QHC51QsSjBgCDNgtTLGKF4eHAwMtONM3gn8/e8fYt7c+zBj5kyEhYXz1SmFWALBgmBd4jUBBNsvz6H9HAZRVKCKYjA4ixRywYIggoRv6dfUbbpsESDcphsnTnvoEHrocB5XUFCA4OBQxjXg4kwuhuFyz1YVZa3FYGYWhK7ufpzKL0RpcTEKSi+hra0Nb//zn18RIIx+i8wsZbGkqAInTuait7eH8SzMnjMbjk5OKC8rw/79+1jBqMTkSciYFIe804dRWtGNZUsewuCgHhs2f8I4ClRqFdQqJRISYiCFGUXFZWhvbcGU9GSUVTUi58gR6Af6GQ1xekY6nJgZfaRXn+IVKFWS6k/k5BxGZ0c/vL3C8OBDySgpuYi+HiqT7Y7Onh54+viipLgEk1OTcbG4FBGR4fDx8sTpM/ks0G5yRhrau9rx6a596OlsZf0mp2Xgnpl3o621BYcPH0ZNTQ08Pb0xf/58eHh4sKJLx44dRXFJIby8vZGVNQPubu74+OOdiI6OQXZWHC5cKML5c/nIyp6K1pZOREREwMvbnfX/2ae7kTYxGe4enjhx6hzOnc2D1sUNWdlZmBARAtmImhu022YY9G3IOfQFTp8uQs6hPEyZOhmDAzr86EfPsFTPyspKRlxVVVONotJKZGdnw8PNBRcLCrB7127I5TK4u7tj+vTpMOgNjLdi4sSJ0Dg4sseJ6noUXCzH2TNlmD1nMiDpx+7dezF92gy0dSggV0iRluoPE2dGUVEpert6kJKSCCcn/n7xEiVwW0hABAi3xTaJk7y8BCRlFU0cFTQKDAxAYmISXLSqK7oYjAM92LvvFNr7zIgK98b5wgs4nnscb7z++lcACKP88SzToBONDU3YtuUMFAogKZmYHd0REhoCw+AATp86DUetHDV1Rbh4qQX3z1yIg7t340xNHX64ZDpa2zrwl3V7MDX7Lni4u8NZq8GjSxdCq+zHpzvzUVdYjGUPZmDNtnMIjgyDRmPGufyzyJqWjUnpGZARX8GQZ58CDHUoLjmPT7afwYSoCfDxccMnn+xCVLQHZmVMRt7+XDS1tKBPIYfWLwKezh6YnZmMt97bjunTM+EiN+JPb65BSnosnnl6EYprK/CvTaew5O5Y7NrzKUyuyXjtFyvRUFaKstJLjPxp69atiI2Nx/Llj2Lt2jVob2/F9LtTUFJSAc4SiKioMLz2+quIjPDHz3++HO+9vQuFRfl4eOl8tDRLMGPGDMTE+kCv78dPfvInrFw5D739Jhw+Wo1590xGcVkpq7vx8AMLERQUOOLpoLTL6ooibN26GmFhITjwZT6WP7oIn3++HSFBE5GSmsKAzMIFs/Hxjo04XNKPP/7m14gP8sWuXZ/iRO4pZGRkIDf3OObOmwtdvw4XL15gNNBe7l5sLF1fPz5evwk7dnyGH/7wfvR0t2HDut1Y9tgTqNN7QO2gxDPLs2HkzNixYxdqq2vw2KPL4OXlKb7LogRuHwmIAOH22StxpnYlIKmoauX27t3LAEJSUhKcCSBoRqc5CkRJZnS1NuGjdV8gPCYNM2ckITcvlxVQeu0Pf+ABAmUwsJQ82GQxXO5NGf25BWZjA06fOotTJ/px730zEBruzUzoZAo3myzY9dlnKC3PR3N7MWrbgJUP/BDFPeC5pQAAC5JJREFUOYeg9Vfj5JnjjCAoLm0KCpr64eTmibbKEkxNDEXapGRUVKnRXHAOc2Z44qVV2xGTlgEHlQF5p0/ikUeX4/4HF/PEQiOqJXRj966tKCwAHln6IPz8HVBYdAp//ct6vPrb36Ms/yRWvf46GvRA5qx5eOaJ5fB31uIPq95E+IR4XDx5EjXdHcicloQnV8zGkYt5eH9vM179yQK8u/odlOvC8b+/egStNRX48stjaG9rw8ULFzEhyh8/fe45PP69Z1hZ69jYINTUNkOljMHkjDjs+WINnJykcHJyx+AAlZSWITIyHoWFDVAqDax9VuZs/O53b+HHz07HF/sOoLDYgIlpMWhqbUFzcyN++bNnkZaaOiJ2g3gizp45jaNHdiI7OxEb1u3Hyh88jPMXTqO60oLs7Czs3r0LIaEe2H/iSzQoEvGHXz2P1AAvfLD6feh1A6xQ1Lr165GVlYn+/mZs2LAJ8bET4aFxgUdoErKmpmPvtjU4cPgzeIdNQF9XB+SDfcjMvg+lBn8cO5GLpVmBCA4PRW1NE1qbWrBixXdZaW/xEiVw20hABAi3zVaJE7UvAUlFVQu3d+8+Vu+AXAzOGnsWBAIIpPZN6GxtwNqPPucBwt1pOHj0ELZv34bX//hHFuluMujQ298PhcoJGkdHa92B0ZaCy20HB6OhBQcPHMapE21Y/thihIb6MEc5gYRDXx7CO++8g8ceux8tHZdwPL8aS2YvR1/JOaRPCsK/d+XC21WD9BhvbDpeDZVHAJz1HciKCMCuYxcQHjsXA02lmHmXG157fzsWPvw4PN3dGByImhAFL19vK9uh4GcnH3gvdu/ZgoILRix/5GEEBDri3LmDeG3VDrz6f1/B0X3b8d6WTTA7+MDb3wfPPbkMSWHheGXVKuSVNSMjfRo8vMyQmPrw/e8uxHsb16FC54cXV8zBv95/F9W6QPxhZTq2fbwBRpM7EuKTcPjgMTg5deHppx/Hg4t/jO985ylERkYAUMDDLQi6wTYcPbYZKUkT8fLvN+L//c8S5OScgFYzEW1t9QgJBdra++Hhloo9e/bjuZ9lY9+B3XDSxGBi6iSYOCm0WifERUfAWasdCRA4C0qKLmD7tg+QPikee3bnYcUTD+OTHVvh652CmJhIvPbaKvj5u2BC6gQcqdfi5088ihgvJyxY/Bh+vOK7SE9PxUfr1iEzazJ0A5X4Ys8h3DNrGZxUGvxt83EseWABNN0X0dRZiopeT3i6KOBiKISnexKKdCGobWzAwjR3nL94AfpBM5w1Llix4jsiQBC/xW4vCYgA4fbaL3G2YyQgOXT4DEcmYE9PL8TFxSDA3xOuLlShcWREGAEECu7T97dh4+ZtqGvpRWhQEPbnHGIBcn9ftQqOGjXy8/bgnffexdSsxXj4oaVwchT8xuMDCRaLAaWXSvHxxu2M8nlC9AR4e/shMT4BublH8fbb7+Khh5agtqESFy5V4777HkJLYyOyp02Ft38AnKFDVcFR7Dhail6LCo46PdICQ3G0qBARcYnoaKvD0ofm4uOt2+Hp6QsfryA4OLggJi4YHt7OvLWCiYlC+Mjl0Y2yslNYt24vAgNi4eMdgu2fHMD06f4ICJyAA58XINDVgl7K59f4QmECHlswHa/+ez2adD347W9+hJO5R9Hb0Yro+Gi8vXoNYmNTkBAbho17ctFkdMIffzgVJw8eQP+AE4LDk7B3Xz4iwl3x3E8ewNoNb6KivB/Tps1nvv0Av0B093Sh4OJZLHlwGRRSF8jlddiwfisMhlC0t3XAx9sFPb19CAgIB1mHnv7xZOj0vdj52TnMuHsmo8H28fFGbFSkHb++CX091fhk2waUl7XizJkSZGVlo6ioGL968dfo7inBG/94EwsXLUZ4QiTe3VOJ7zwwHRUFR/HqmjP46JWX4KLSY+PmTcjISINOV4U9ew8ia/JCuGg98EleLaamp0LZfglaZxWmz5wLmbQTOfs2oq1TjSpLKCorqzEvwR2lVRUwGgBnJw0ee2wZPD09xFdYlMDtIwERINw+eyXO1L6L4Yt9R9ljTDz+Ls5ahIUGwM2NV5S2F5nuWQaAZQANjQ3ILyhFf08/QqOiGEBITUyEXC5FW3M1O/l5+4UjZkIMlBRIMHSNh1KHY7UEKirKkZ9/FjqdDv7+QcjMzIRUasH+/YfQ3d0LrYsW7t5+8PH1Q29PNwKDg+Hu4gwFZ0ZXWwNKa9owYJKgqbwKCosZUUlxcNQ6gAo4xcTEMBP7qVN56O3RQ6t1Q3pGIgICfVnuHx/vzwMECQZhMPaiuqoZ+WdLoNOZ4esTjMysKBSXVEBq0cLbTY3ugT44uHijrrIGqROCUFjVAq2HCyIifFBXW4Oezmp8eeo8KppMSAjyhkpqQZ8B2LU/BysfmYPkuDicPlMImUIDX78IOLuoEBcXgJ7eVuSdLkZdfTOTZUREJNzcXWE0GBAdNQEOCiVMpl6UXiqHwaBGa2sH6utr4erigozJk1FeVo7oWA84ODoi72wpKsorGECg6pKTUlPg7EwWhBE7DVh06Oqqx5HDh/H2W+sxffo9mD17HhKS4tHRUc0CKWNiEzFoGkRhTS8CfF1w8dwpOHhMQHZiDChOpayyHD4+PjAYunD69Fn095qhkqmg9Q9D+sQUtFaXw8VVa42BGERDXQVa2vrAOfkj78wZuCsM8AsOgrOzOziTBRERoXC4psqg4hsvSuAWS0AECLd4A8Thr1cCkrr6VlbNkb84aJzUzPxsFyAw1kSjtUQB76unEk5091Dym/WloBgEe9n8458wdTRMbSykLvKpdDzXITEaMGpjxoxIKp20u8DGZ6VOpgFpLhLqi2bLeB/tToOfOp9SyKcTCnMgoMCSAofZgoUeGGvkcHc0TyYVok4eolKyQE9ugXPFUDqHYmJkMNQyqoqpx9atWxAbHYu0tDTWCa2JH4afhWDPsGYSjiBmovkNr4SsHbbfSNY7bNMSrbYRwZZDsrNmWY6VBzeA/r4WvPH397DskccRGhbOx2ZIicSIr2vBX1J+WCu3A7FGElE1+4hlSPBjsHUwfGjlsx6Sn3XOtG9EkCRkVViISdFa58Om+Nb4nx+xpSiBWywBESDc4g0Qh79eCUhaW9ttv+3h4KCCo+PoNEdKTeMtCPT1z3/jk2oiWiT+Gp2izj4fRewzXIPARrtedgVDaszau5XQiOkXXnEw+GBVijyAsKU0tupLQR+xCQoWDNvZjk2ut0IP68wE1Xz1JHxGkSCAAmsdBkFBUnaA0USyk0FBOY9sORwMRiNkUhlzH/BIZpjMeViHDitR2+8cAZhZJWMVL8lBmLPQgwCarOMOyfxybh9eWRsNepw/fxFRUVHQal147DVUNMu2b5t+hTLWrO2wzMaARWs7CSuAYdPWRsz8/vLd2HIsXO9DL94vSuCmSEAECDdFzOIgX58EJHq9YcRjTHTL5G6w72KwAgF2Ih9rHxg9zdHMfyP/Pr6YhOF7hlkSbfsdIgKyAxBYCMEIPTV6zMutwRZIXBtA4Od7meqH4/nCGIVDmKVkCIWNpHa2tdwI49KCpUNMjTx0sKKRa3yKJKzEtaCY2X4PGZpsFmKtVMkDHms9LOHnlQCCwEppCxDGrH24rsXQMq5xFWJzUQK3TALjed9v2eTEgUUJXF0CEs6Wgu8K7XkLAn/xaYfjOVFfqUywCBDsivsbBBCsWMdqCRjtvhDqVlknbAsQBELE6wQIV398xRaiBL7BEhABwjd4c8SpjUcCIkCwW+5ItCAMR5CMdlcI33q2voRhI4VQWoK1EgHCeN5Bsc2dKgERINypO/utWde3HCAwLWaz2YJJ3jay4lpdDPy9di0s4/nCGG1B4CgiYsh0MypIcTg4lG/BK22KQeC7uT4Xw9jIEtv3QgiKFCbMBwpcK0Ag/wnvrRodH/GteQfFhd6pEhjP+36nrl1c1x0hgf8PfDNWPt/i43QAAAAASUVORK5CYII=;" parent="OkBOiD5OcaHg_WbjaFcI-1" vertex="1"><mxGeometry x="1530" y="138.36" width="520" height="276" as="geometry"/></mxCell><mxCell id="pyIBk68P-THsy5OXbhP9-2" value="&lt;p style=&quot;margin: 0px ; margin-top: 4px ; text-align: center ; text-decoration: underline&quot;&gt;&lt;b&gt;Жанр&lt;/b&gt;&lt;/p&gt;" style="verticalAlign=top;align=left;overflow=fill;fontSize=12;fontFamily=Helvetica;html=1;strokeColor=#003366;shadow=1;fillColor=#D4E1F5;fontColor=#003366" parent="OkBOiD5OcaHg_WbjaFcI-1" vertex="1"><mxGeometry x="102" y="85" width="110" height="28.36" as="geometry"/></mxCell><mxCell id="bhMQhNk1bgYH9bhr0qsX-3" value="" style="fontSize=12;html=1;endArrow=ERzeroToMany;endFill=1;exitX=0.5;exitY=1;exitDx=0;exitDy=0;" parent="OkBOiD5OcaHg_WbjaFcI-1" source="pyIBk68P-THsy5OXbhP9-2" target="pyIBk68P-THsy5OXbhP9-0" edge="1"><mxGeometry width="100" height="100" relative="1" as="geometry"><mxPoint x="442" y="175" as="sourcePoint"/><mxPoint x="342" y="245" as="targetPoint"/></mxGeometry></mxCell><mxCell id="bhMQhNk1bgYH9bhr0qsX-5" value="&lt;p style=&quot;margin: 0px ; margin-top: 4px ; text-align: center ; text-decoration: underline&quot;&gt;&lt;b&gt;Киноличность&lt;/b&gt;&lt;/p&gt;" style="verticalAlign=top;align=left;overflow=fill;fontSize=12;fontFamily=Helvetica;html=1;strokeColor=#003366;shadow=1;fillColor=#D4E1F5;fontColor=#003366" parent="OkBOiD5OcaHg_WbjaFcI-1" vertex="1"><mxGeometry x="252" y="335" width="110" height="28.36" as="geometry"/></mxCell><mxCell id="bhMQhNk1bgYH9bhr0qsX-6" value="&lt;p style=&quot;margin: 0px ; margin-top: 4px ; text-align: center ; text-decoration: underline&quot;&gt;&lt;b&gt;Фильмография&lt;/b&gt;&lt;/p&gt;" style="verticalAlign=top;align=left;overflow=fill;fontSize=12;fontFamily=Helvetica;html=1;strokeColor=#003366;shadow=1;fillColor=#D4E1F5;fontColor=#003366" parent="OkBOiD5OcaHg_WbjaFcI-1" vertex="1"><mxGeometry x="94" y="335" width="126" height="28.36" as="geometry"/></mxCell><mxCell id="bhMQhNk1bgYH9bhr0qsX-7" value="" style="fontSize=12;html=1;endArrow=ERzeroToMany;endFill=1;" parent="OkBOiD5OcaHg_WbjaFcI-1" source="pyIBk68P-THsy5OXbhP9-0" target="bhMQhNk1bgYH9bhr0qsX-6" edge="1"><mxGeometry width="100" height="100" relative="1" as="geometry"><mxPoint x="192" y="153.36" as="sourcePoint"/><mxPoint x="402" y="345" as="targetPoint"/></mxGeometry></mxCell><mxCell id="bhMQhNk1bgYH9bhr0qsX-8" value="" style="fontSize=12;html=1;endArrow=ERzeroToMany;endFill=1;" parent="OkBOiD5OcaHg_WbjaFcI-1" source="bhMQhNk1bgYH9bhr0qsX-5" target="bhMQhNk1bgYH9bhr0qsX-6" edge="1"><mxGeometry width="100" height="100" relative="1" as="geometry"><mxPoint x="202" y="163.36" as="sourcePoint"/><mxPoint x="202" y="205.0000000000001" as="targetPoint"/></mxGeometry></mxCell><mxCell id="bhMQhNk1bgYH9bhr0qsX-9" value="&lt;p style=&quot;margin: 0px ; margin-top: 4px ; text-align: center ; text-decoration: underline&quot;&gt;&lt;b&gt;Трейлер&lt;/b&gt;&lt;/p&gt;" style="verticalAlign=top;align=left;overflow=fill;fontSize=12;fontFamily=Helvetica;html=1;strokeColor=#003366;shadow=1;fillColor=#D4E1F5;fontColor=#003366" parent="OkBOiD5OcaHg_WbjaFcI-1" vertex="1"><mxGeometry x="14" y="277" width="110" height="28.36" as="geometry"/></mxCell><mxCell id="bhMQhNk1bgYH9bhr0qsX-10" value="" style="fontSize=12;html=1;endArrow=ERzeroToMany;endFill=1;" parent="OkBOiD5OcaHg_WbjaFcI-1" source="pyIBk68P-THsy5OXbhP9-0" target="bhMQhNk1bgYH9bhr0qsX-9" edge="1"><mxGeometry width="100" height="100" relative="1" as="geometry"><mxPoint x="192" y="99.54000000000019" as="sourcePoint"/><mxPoint x="192" y="195.0000000000001" as="targetPoint"/></mxGeometry></mxCell><mxCell id="bhMQhNk1bgYH9bhr0qsX-12" value="&lt;p style=&quot;margin: 0px ; margin-top: 4px ; text-align: center ; text-decoration: underline&quot;&gt;&lt;b&gt;Пользователь&lt;/b&gt;&lt;/p&gt;" style="verticalAlign=top;align=left;overflow=fill;fontSize=12;fontFamily=Helvetica;html=1;strokeColor=#003366;shadow=1;fillColor=#82C7F5;fontColor=#003366" parent="OkBOiD5OcaHg_WbjaFcI-1" vertex="1"><mxGeometry x="372" y="85" width="110" height="28.36" as="geometry"/></mxCell><mxCell id="bhMQhNk1bgYH9bhr0qsX-14" value="&lt;p style=&quot;margin: 0px ; margin-top: 4px ; text-align: center ; text-decoration: underline&quot;&gt;&lt;b&gt;Рейтинг&lt;/b&gt;&lt;/p&gt;" style="verticalAlign=top;align=left;overflow=fill;fontSize=12;fontFamily=Helvetica;html=1;strokeColor=#003366;shadow=1;fillColor=#82C7F5;fontColor=#003366" parent="OkBOiD5OcaHg_WbjaFcI-1" vertex="1"><mxGeometry x="372" y="185" width="110" height="28.36" as="geometry"/></mxCell><mxCell id="bhMQhNk1bgYH9bhr0qsX-15" value="" style="fontSize=12;html=1;endArrow=ERzeroToMany;endFill=1;fillColor=#82C7F5;" parent="OkBOiD5OcaHg_WbjaFcI-1" source="bhMQhNk1bgYH9bhr0qsX-12" target="bhMQhNk1bgYH9bhr0qsX-14" edge="1"><mxGeometry width="100" height="100" relative="1" as="geometry"><mxPoint x="498.7382857142858" y="165" as="sourcePoint"/><mxPoint x="422.00171428571423" y="206.6400000000001" as="targetPoint"/></mxGeometry></mxCell><mxCell id="bhMQhNk1bgYH9bhr0qsX-16" value="" style="fontSize=12;html=1;endArrow=ERzeroToMany;endFill=1;" parent="OkBOiD5OcaHg_WbjaFcI-1" source="pyIBk68P-THsy5OXbhP9-0" target="bhMQhNk1bgYH9bhr0qsX-14" edge="1"><mxGeometry width="100" height="100" relative="1" as="geometry"><mxPoint x="384.73666666666657" y="115" as="sourcePoint"/><mxPoint x="282.00333333333344" y="176.6400000000001" as="targetPoint"/></mxGeometry></mxCell><mxCell id="bhMQhNk1bgYH9bhr0qsX-19" value="&lt;p style=&quot;margin: 0px ; margin-top: 4px ; text-align: center ; text-decoration: underline&quot;&gt;&lt;b&gt;Рецензия&lt;/b&gt;&lt;/p&gt;" style="verticalAlign=top;align=left;overflow=fill;fontSize=12;fontFamily=Helvetica;html=1;strokeColor=#003366;shadow=1;fillColor=#82C7F5;fontColor=#003366" parent="OkBOiD5OcaHg_WbjaFcI-1" vertex="1"><mxGeometry x="372" y="245" width="110" height="28.36" as="geometry"/></mxCell><mxCell id="bhMQhNk1bgYH9bhr0qsX-20" value="" style="fontSize=12;html=1;endArrow=ERzeroToOne;endFill=1;fillColor=#82C7F5;" parent="OkBOiD5OcaHg_WbjaFcI-1" source="bhMQhNk1bgYH9bhr0qsX-14" target="bhMQhNk1bgYH9bhr0qsX-19" edge="1"><mxGeometry width="100" height="100" relative="1" as="geometry"><mxPoint x="522" y="425" as="sourcePoint"/><mxPoint x="622" y="325" as="targetPoint"/></mxGeometry></mxCell><mxCell id="bhMQhNk1bgYH9bhr0qsX-22" value="" style="fontSize=12;html=1;endArrow=ERzeroToMany;endFill=1;startArrow=ERzeroToMany;" parent="OkBOiD5OcaHg_WbjaFcI-1" source="pyIBk68P-THsy5OXbhP9-0" target="bhMQhNk1bgYH9bhr0qsX-12" edge="1"><mxGeometry width="100" height="100" relative="1" as="geometry"><mxPoint x="262" y="165" as="sourcePoint"/><mxPoint x="362" y="65" as="targetPoint"/><Array as="points"/></mxGeometry></mxCell><mxCell id="bhMQhNk1bgYH9bhr0qsX-23" value="Избранное" style="edgeLabel;html=1;align=center;verticalAlign=middle;resizable=0;points=[];" parent="bhMQhNk1bgYH9bhr0qsX-22" vertex="1" connectable="0"><mxGeometry x="0.2683" relative="1" as="geometry"><mxPoint as="offset"/></mxGeometry></mxCell><mxCell id="bhMQhNk1bgYH9bhr0qsX-24" value="&lt;p style=&quot;margin: 0px ; margin-top: 4px ; text-align: center ; text-decoration: underline&quot;&gt;&lt;b&gt;Кинотеатр&lt;/b&gt;&lt;/p&gt;" style="verticalAlign=top;align=left;overflow=fill;fontSize=12;fontFamily=Helvetica;html=1;strokeColor=#003366;shadow=1;fillColor=#E1D5E7;fontColor=#003366" parent="OkBOiD5OcaHg_WbjaFcI-1" vertex="1"><mxGeometry x="517" y="85" width="110" height="28.36" as="geometry"/></mxCell><mxCell id="bhMQhNk1bgYH9bhr0qsX-25" value="&lt;p style=&quot;margin: 0px ; margin-top: 4px ; text-align: center ; text-decoration: underline&quot;&gt;&lt;b&gt;Зал&lt;/b&gt;&lt;/p&gt;" style="verticalAlign=top;align=left;overflow=fill;fontSize=12;fontFamily=Helvetica;html=1;strokeColor=#003366;shadow=1;fillColor=#E1D5E7;fontColor=#003366" parent="OkBOiD5OcaHg_WbjaFcI-1" vertex="1"><mxGeometry x="517" y="185" width="110" height="28.36" as="geometry"/></mxCell><mxCell id="bhMQhNk1bgYH9bhr0qsX-26" value="&lt;p style=&quot;margin: 0px ; margin-top: 4px ; text-align: center ; text-decoration: underline&quot;&gt;&lt;b&gt;Сеанс&lt;/b&gt;&lt;/p&gt;" style="verticalAlign=top;align=left;overflow=fill;fontSize=12;fontFamily=Helvetica;html=1;strokeColor=#003366;shadow=1;fillColor=#E1D5E7;fontColor=#003366" parent="OkBOiD5OcaHg_WbjaFcI-1" vertex="1"><mxGeometry x="517" y="335" width="110" height="28.36" as="geometry"/></mxCell><mxCell id="bhMQhNk1bgYH9bhr0qsX-27" value="" style="fontSize=12;html=1;endArrow=ERzeroToMany;endFill=1;" parent="OkBOiD5OcaHg_WbjaFcI-1" source="pyIBk68P-THsy5OXbhP9-0" target="bhMQhNk1bgYH9bhr0qsX-26" edge="1"><mxGeometry width="100" height="100" relative="1" as="geometry"><mxPoint x="242" y="336.3500000000002" as="sourcePoint"/><mxPoint x="402" y="336.3500000000002" as="targetPoint"/><Array as="points"><mxPoint x="392" y="329"/></Array></mxGeometry></mxCell><mxCell id="bhMQhNk1bgYH9bhr0qsX-28" value="" style="fontSize=12;html=1;endArrow=ERzeroToMany;endFill=1;fillColor=#E1D5E7;" parent="OkBOiD5OcaHg_WbjaFcI-1" source="bhMQhNk1bgYH9bhr0qsX-24" target="bhMQhNk1bgYH9bhr0qsX-25" edge="1"><mxGeometry width="100" height="100" relative="1" as="geometry"><mxPoint x="587" y="113.36000000000001" as="sourcePoint"/><mxPoint x="587" y="185.0000000000001" as="targetPoint"/></mxGeometry></mxCell><mxCell id="bhMQhNk1bgYH9bhr0qsX-29" value="" style="fontSize=12;html=1;endArrow=ERzeroToMany;endFill=1;fillColor=#E1D5E7;" parent="OkBOiD5OcaHg_WbjaFcI-1" source="bhMQhNk1bgYH9bhr0qsX-25" target="bhMQhNk1bgYH9bhr0qsX-26" edge="1"><mxGeometry width="100" height="100" relative="1" as="geometry"><mxPoint x="571.58" y="223.36" as="sourcePoint"/><mxPoint x="571.58" y="295.0000000000001" as="targetPoint"/></mxGeometry></mxCell><mxCell id="bhMQhNk1bgYH9bhr0qsX-30" value="&lt;p style=&quot;margin: 0px ; margin-top: 4px ; text-align: center ; text-decoration: underline&quot;&gt;&lt;b&gt;Место&lt;/b&gt;&lt;/p&gt;" style="verticalAlign=top;align=left;overflow=fill;fontSize=12;fontFamily=Helvetica;html=1;strokeColor=#003366;shadow=1;fillColor=#E1D5E7;fontColor=#003366" parent="OkBOiD5OcaHg_WbjaFcI-1" vertex="1"><mxGeometry x="667" y="245" width="110" height="28.36" as="geometry"/></mxCell><mxCell id="bhMQhNk1bgYH9bhr0qsX-31" value="" style="fontSize=12;html=1;endArrow=ERzeroToMany;endFill=1;fillColor=#E1D5E7;" parent="OkBOiD5OcaHg_WbjaFcI-1" source="bhMQhNk1bgYH9bhr0qsX-25" target="bhMQhNk1bgYH9bhr0qsX-30" edge="1"><mxGeometry width="100" height="100" relative="1" as="geometry"><mxPoint x="582" y="123.36000000000001" as="sourcePoint"/><mxPoint x="582" y="195.0000000000001" as="targetPoint"/></mxGeometry></mxCell><mxCell id="bhMQhNk1bgYH9bhr0qsX-32" value="&lt;p style=&quot;margin: 0px ; margin-top: 4px ; text-align: center ; text-decoration: underline&quot;&gt;&lt;b&gt;Бронь&lt;/b&gt;&lt;/p&gt;" style="verticalAlign=top;align=left;overflow=fill;fontSize=12;fontFamily=Helvetica;html=1;strokeColor=#003366;shadow=1;fillColor=#E1D5E7;fontColor=#003366" parent="OkBOiD5OcaHg_WbjaFcI-1" vertex="1"><mxGeometry x="667" y="335" width="110" height="28.36" as="geometry"/></mxCell><mxCell id="bhMQhNk1bgYH9bhr0qsX-33" value="" style="fontSize=12;html=1;endArrow=ERzeroToMany;endFill=1;fillColor=#E1D5E7;" parent="OkBOiD5OcaHg_WbjaFcI-1" source="bhMQhNk1bgYH9bhr0qsX-26" target="bhMQhNk1bgYH9bhr0qsX-32" edge="1"><mxGeometry width="100" height="100" relative="1" as="geometry"><mxPoint x="663" y="435" as="sourcePoint"/><mxPoint x="663" y="556.64" as="targetPoint"/></mxGeometry></mxCell><mxCell id="bhMQhNk1bgYH9bhr0qsX-34" value="" style="fontSize=12;html=1;endArrow=ERzeroToOne;endFill=1;fillColor=#E1D5E7;" parent="OkBOiD5OcaHg_WbjaFcI-1" source="bhMQhNk1bgYH9bhr0qsX-30" target="bhMQhNk1bgYH9bhr0qsX-32" edge="1"><mxGeometry width="100" height="100" relative="1" as="geometry"><mxPoint x="721.76" y="285" as="sourcePoint"/><mxPoint x="721.76" y="316.6400000000001" as="targetPoint"/><Array as="points"><mxPoint x="721.76" y="296.64"/></Array></mxGeometry></mxCell><mxCell id="bhMQhNk1bgYH9bhr0qsX-36" value="" style="fontSize=12;html=1;endArrow=ERzeroToMany;endFill=1;startArrow=ERzeroToMany;entryX=0;entryY=0.5;entryDx=0;entryDy=0;" parent="OkBOiD5OcaHg_WbjaFcI-1" source="pyIBk68P-THsy5OXbhP9-2" target="bhMQhNk1bgYH9bhr0qsX-12" edge="1"><mxGeometry width="100" height="100" relative="1" as="geometry"><mxPoint x="81.99820375957313" y="104.74" as="sourcePoint"/><mxPoint x="352" y="99" as="targetPoint"/><Array as="points"/></mxGeometry></mxCell><mxCell id="bhMQhNk1bgYH9bhr0qsX-37" value="Избранное" style="edgeLabel;html=1;align=center;verticalAlign=middle;resizable=0;points=[];" parent="bhMQhNk1bgYH9bhr0qsX-36" vertex="1" connectable="0"><mxGeometry x="0.2683" relative="1" as="geometry"><mxPoint as="offset"/></mxGeometry></mxCell><mxCell id="bhMQhNk1bgYH9bhr0qsX-38" value="" style="fontSize=12;html=1;endArrow=ERzeroToMany;endFill=1;startArrow=ERzeroToMany;entryX=0.297;entryY=1.032;entryDx=0;entryDy=0;entryPerimeter=0;exitX=0.5;exitY=0;exitDx=0;exitDy=0;" parent="OkBOiD5OcaHg_WbjaFcI-1" source="bhMQhNk1bgYH9bhr0qsX-5" target="bhMQhNk1bgYH9bhr0qsX-12" edge="1"><mxGeometry width="100" height="100" relative="1" as="geometry"><mxPoint x="205.28600000000006" y="195" as="sourcePoint"/><mxPoint x="398.7139999999997" y="123.36000000000001" as="targetPoint"/><Array as="points"><mxPoint x="307" y="215"/></Array></mxGeometry></mxCell><mxCell id="bhMQhNk1bgYH9bhr0qsX-39" value="Избранное" style="edgeLabel;html=1;align=center;verticalAlign=middle;resizable=0;points=[];" parent="bhMQhNk1bgYH9bhr0qsX-38" vertex="1" connectable="0"><mxGeometry x="0.2683" relative="1" as="geometry"><mxPoint as="offset"/></mxGeometry></mxCell></root></mxGraphModel></diagram><diagram id="6mF1w_aZcbj_zg9NuXZ1" name="Страница 3"><mxGraphModel dx="222" dy="409" grid="0" gridSize="10" guides="1" tooltips="1" connect="1" arrows="1" fold="1" page="0" pageScale="1" pageWidth="827" pageHeight="1169" math="0" shadow="0"><root><mxCell id="X1oMiQ-_WU-d17lLFQEp-0"/><mxCell id="X1oMiQ-_WU-d17lLFQEp-1" parent="X1oMiQ-_WU-d17lLFQEp-0"/><mxCell id="X1oMiQ-_WU-d17lLFQEp-4" value="" style="fontSize=12;html=1;endArrow=ERzeroToMany;endFill=1;fillColor=#E1D5E7;" parent="X1oMiQ-_WU-d17lLFQEp-1" source="X1oMiQ-_WU-d17lLFQEp-2" target="X1oMiQ-_WU-d17lLFQEp-3" edge="1"><mxGeometry relative="1" as="geometry"/></mxCell><mxCell id="X1oMiQ-_WU-d17lLFQEp-6" value="" style="fontSize=12;html=1;endArrow=ERzeroToMany;endFill=1;fillColor=#E1D5E7;" parent="X1oMiQ-_WU-d17lLFQEp-1" source="X1oMiQ-_WU-d17lLFQEp-2" target="X1oMiQ-_WU-d17lLFQEp-5" edge="1"><mxGeometry relative="1" as="geometry"><Array as="points"><mxPoint x="220" y="270"/></Array></mxGeometry></mxCell><mxCell id="fqhg5dwavwekQmkXKmO6-0" value="Владелец" style="edgeLabel;html=1;align=center;verticalAlign=middle;resizable=0;points=[];" parent="X1oMiQ-_WU-d17lLFQEp-6" vertex="1" connectable="0"><mxGeometry x="0.1119" y="-1" relative="1" as="geometry"><mxPoint as="offset"/></mxGeometry></mxCell><mxCell id="X1oMiQ-_WU-d17lLFQEp-2" value="Организация" style="whiteSpace=wrap;html=1;align=center;fillColor=#E1D5E7;" parent="X1oMiQ-_WU-d17lLFQEp-1" vertex="1"><mxGeometry x="60" y="255" width="120" height="50" as="geometry"/></mxCell><mxCell id="X1oMiQ-_WU-d17lLFQEp-3" value="Сотрудник" style="whiteSpace=wrap;html=1;fillColor=#E1D5E7;" parent="X1oMiQ-_WU-d17lLFQEp-1" vertex="1"><mxGeometry x="60" y="375" width="120" height="60" as="geometry"/></mxCell><mxCell id="X1oMiQ-_WU-d17lLFQEp-9" value="" style="fontSize=12;html=1;endArrow=ERzeroToMany;endFill=1;fillColor=#E1D5E7;" parent="X1oMiQ-_WU-d17lLFQEp-1" source="X1oMiQ-_WU-d17lLFQEp-5" target="X1oMiQ-_WU-d17lLFQEp-8" edge="1"><mxGeometry relative="1" as="geometry"/></mxCell><mxCell id="X1oMiQ-_WU-d17lLFQEp-5" value="Информационная система" style="whiteSpace=wrap;html=1;fillColor=#E1D5E7;" parent="X1oMiQ-_WU-d17lLFQEp-1" vertex="1"><mxGeometry x="290" y="255" width="120" height="60" as="geometry"/></mxCell><mxCell id="X1oMiQ-_WU-d17lLFQEp-14" value="" style="edgeStyle=none;rounded=1;orthogonalLoop=1;jettySize=auto;html=1;fillColor=#E1D5E7;fontSize=12;endFill=1;endArrow=ERzeroToMany;" parent="X1oMiQ-_WU-d17lLFQEp-1" source="X1oMiQ-_WU-d17lLFQEp-8" target="X1oMiQ-_WU-d17lLFQEp-13" edge="1"><mxGeometry relative="1" as="geometry"/></mxCell><mxCell id="X1oMiQ-_WU-d17lLFQEp-8" value="Адрес" style="whiteSpace=wrap;html=1;fillColor=#E1D5E7;" parent="X1oMiQ-_WU-d17lLFQEp-1" vertex="1"><mxGeometry x="480" y="255" width="120" height="60" as="geometry"/></mxCell><mxCell id="X1oMiQ-_WU-d17lLFQEp-16" value="" style="edgeStyle=none;rounded=1;orthogonalLoop=1;jettySize=auto;html=1;fillColor=#E1D5E7;fontSize=12;endFill=1;endArrow=ERzeroToMany;" parent="X1oMiQ-_WU-d17lLFQEp-1" source="X1oMiQ-_WU-d17lLFQEp-13" target="X1oMiQ-_WU-d17lLFQEp-15" edge="1"><mxGeometry relative="1" as="geometry"/></mxCell><mxCell id="X1oMiQ-_WU-d17lLFQEp-13" value="Рабочее место" style="whiteSpace=wrap;html=1;fillColor=#E1D5E7;" parent="X1oMiQ-_WU-d17lLFQEp-1" vertex="1"><mxGeometry x="670" y="255" width="120" height="60" as="geometry"/></mxCell><mxCell id="X1oMiQ-_WU-d17lLFQEp-15" value="Устройство" style="whiteSpace=wrap;html=1;fillColor=#E1D5E7;" parent="X1oMiQ-_WU-d17lLFQEp-1" vertex="1"><mxGeometry x="860" y="255" width="120" height="60" as="geometry"/></mxCell><mxCell id="fqhg5dwavwekQmkXKmO6-1" value="" style="fontSize=12;html=1;endArrow=ERzeroToMany;endFill=1;fillColor=#E1D5E7;" parent="X1oMiQ-_WU-d17lLFQEp-1" source="X1oMiQ-_WU-d17lLFQEp-2" target="X1oMiQ-_WU-d17lLFQEp-5" edge="1"><mxGeometry relative="1" as="geometry"><mxPoint x="180" y="294" as="sourcePoint"/><mxPoint x="260" y="294" as="targetPoint"/><Array as="points"><mxPoint x="220" y="300"/></Array></mxGeometry></mxCell><mxCell id="fqhg5dwavwekQmkXKmO6-2" value="Исполнитель" style="edgeLabel;html=1;align=center;verticalAlign=middle;resizable=0;points=[];" parent="fqhg5dwavwekQmkXKmO6-1" vertex="1" connectable="0"><mxGeometry x="0.1119" y="-1" relative="1" as="geometry"><mxPoint as="offset"/></mxGeometry></mxCell><mxCell id="fqhg5dwavwekQmkXKmO6-3" value="" style="fontSize=12;html=1;endArrow=ERone;endFill=1;fillColor=#E1D5E7;" parent="X1oMiQ-_WU-d17lLFQEp-1" source="X1oMiQ-_WU-d17lLFQEp-3" target="X1oMiQ-_WU-d17lLFQEp-5" edge="1"><mxGeometry width="100" height="100" relative="1" as="geometry"><mxPoint x="370" y="490" as="sourcePoint"/><mxPoint x="470" y="390" as="targetPoint"/><Array as="points"><mxPoint x="250" y="350"/></Array></mxGeometry></mxCell><mxCell id="fqhg5dwavwekQmkXKmO6-4" value="Утверждающий" style="edgeLabel;html=1;align=center;verticalAlign=middle;resizable=0;points=[];" parent="fqhg5dwavwekQmkXKmO6-3" vertex="1" connectable="0"><mxGeometry x="-0.1473" relative="1" as="geometry"><mxPoint y="10.55" as="offset"/></mxGeometry></mxCell><mxCell id="fqhg5dwavwekQmkXKmO6-5" value="" style="fontSize=12;html=1;endArrow=ERone;endFill=1;fillColor=#E1D5E7;" parent="X1oMiQ-_WU-d17lLFQEp-1" source="X1oMiQ-_WU-d17lLFQEp-3" target="X1oMiQ-_WU-d17lLFQEp-5" edge="1"><mxGeometry width="100" height="100" relative="1" as="geometry"><mxPoint x="187.5" y="385" as="sourcePoint"/><mxPoint x="302.5" y="325" as="targetPoint"/><Array as="points"><mxPoint x="190" y="350"/></Array></mxGeometry></mxCell><mxCell id="fqhg5dwavwekQmkXKmO6-6" value="Согласующий" style="edgeLabel;html=1;align=center;verticalAlign=middle;resizable=0;points=[];" parent="fqhg5dwavwekQmkXKmO6-5" vertex="1" connectable="0"><mxGeometry x="-0.1473" relative="1" as="geometry"><mxPoint as="offset"/></mxGeometry></mxCell><mxCell id="fqhg5dwavwekQmkXKmO6-7" value="" style="fontSize=12;html=1;endArrow=ERone;endFill=1;fillColor=#E1D5E7;" parent="X1oMiQ-_WU-d17lLFQEp-1" source="X1oMiQ-_WU-d17lLFQEp-3" target="X1oMiQ-_WU-d17lLFQEp-5" edge="1"><mxGeometry width="100" height="100" relative="1" as="geometry"><mxPoint x="210" y="420" as="sourcePoint"/><mxPoint x="325" y="360" as="targetPoint"/><Array as="points"><mxPoint x="300" y="360"/></Array></mxGeometry></mxCell><mxCell id="fqhg5dwavwekQmkXKmO6-8" value="Председатель комиссии" style="edgeLabel;html=1;align=center;verticalAlign=middle;resizable=0;points=[];" parent="fqhg5dwavwekQmkXKmO6-7" vertex="1" connectable="0"><mxGeometry x="-0.1473" relative="1" as="geometry"><mxPoint y="10.55" as="offset"/></mxGeometry></mxCell><mxCell id="fqhg5dwavwekQmkXKmO6-10" value="Документ" style="whiteSpace=wrap;html=1;fillColor=#E1D5E7;" parent="X1oMiQ-_WU-d17lLFQEp-1" vertex="1"><mxGeometry x="290" y="480" width="120" height="60" as="geometry"/></mxCell><mxCell id="fqhg5dwavwekQmkXKmO6-11" value="" style="fontSize=12;html=1;endArrow=ERzeroToMany;endFill=1;fillColor=#E1D5E7;" parent="X1oMiQ-_WU-d17lLFQEp-1" source="X1oMiQ-_WU-d17lLFQEp-5" target="fqhg5dwavwekQmkXKmO6-10" edge="1"><mxGeometry relative="1" as="geometry"><mxPoint x="349.58000000000004" y="310" as="sourcePoint"/><mxPoint x="349.58000000000004" y="380" as="targetPoint"/></mxGeometry></mxCell><mxCell id="fqhg5dwavwekQmkXKmO6-12" value="Шаблон документа" style="whiteSpace=wrap;html=1;fillColor=#E1D5E7;" parent="X1oMiQ-_WU-d17lLFQEp-1" vertex="1"><mxGeometry x="60" y="480" width="120" height="60" as="geometry"/></mxCell><mxCell id="fqhg5dwavwekQmkXKmO6-13" value="" style="fontSize=12;html=1;endArrow=ERzeroToMany;endFill=1;fillColor=#E1D5E7;" parent="X1oMiQ-_WU-d17lLFQEp-1" source="fqhg5dwavwekQmkXKmO6-12" target="fqhg5dwavwekQmkXKmO6-10" edge="1"><mxGeometry relative="1" as="geometry"><mxPoint x="360" y="325" as="sourcePoint"/><mxPoint x="360" y="420" as="targetPoint"/></mxGeometry></mxCell><mxCell id="fqhg5dwavwekQmkXKmO6-14" value="Фото" style="whiteSpace=wrap;html=1;fillColor=#E1D5E7;" parent="X1oMiQ-_WU-d17lLFQEp-1" vertex="1"><mxGeometry x="480" y="375" width="120" height="60" as="geometry"/></mxCell><mxCell id="fqhg5dwavwekQmkXKmO6-15" value="" style="fontSize=12;html=1;endArrow=ERzeroToMany;endFill=1;fillColor=#E1D5E7;" parent="X1oMiQ-_WU-d17lLFQEp-1" source="X1oMiQ-_WU-d17lLFQEp-8" target="fqhg5dwavwekQmkXKmO6-14" edge="1"><mxGeometry relative="1" as="geometry"><mxPoint x="490" y="450" as="sourcePoint"/><mxPoint x="420" y="450" as="targetPoint"/></mxGeometry></mxCell><mxCell id="fqhg5dwavwekQmkXKmO6-16" value="Меры ИБ" style="whiteSpace=wrap;html=1;fillColor=#E1D5E7;" parent="X1oMiQ-_WU-d17lLFQEp-1" vertex="1"><mxGeometry x="480" y="100" width="120" height="60" as="geometry"/></mxCell><mxCell id="fqhg5dwavwekQmkXKmO6-17" value="Применимые меры" style="whiteSpace=wrap;html=1;fillColor=#E1D5E7;" parent="X1oMiQ-_WU-d17lLFQEp-1" vertex="1"><mxGeometry x="290" y="100" width="120" height="60" as="geometry"/></mxCell><mxCell id="fqhg5dwavwekQmkXKmO6-18" value="" style="fontSize=12;html=1;endArrow=ERzeroToMany;endFill=1;fillColor=#E1D5E7;" parent="X1oMiQ-_WU-d17lLFQEp-1" source="X1oMiQ-_WU-d17lLFQEp-5" target="fqhg5dwavwekQmkXKmO6-17" edge="1"><mxGeometry relative="1" as="geometry"><mxPoint x="420" y="295" as="sourcePoint"/><mxPoint x="490" y="295" as="targetPoint"/></mxGeometry></mxCell><mxCell id="fqhg5dwavwekQmkXKmO6-19" value="" style="fontSize=12;html=1;endArrow=ERzeroToMany;endFill=1;fillColor=#E1D5E7;" parent="X1oMiQ-_WU-d17lLFQEp-1" source="fqhg5dwavwekQmkXKmO6-16" target="fqhg5dwavwekQmkXKmO6-17" edge="1"><mxGeometry relative="1" as="geometry"><mxPoint x="360" y="265" as="sourcePoint"/><mxPoint x="360" y="170" as="targetPoint"/></mxGeometry></mxCell></root></mxGraphModel></diagram></mxfile>